M48
; DRILL file {KiCad 9.0.1} date 2025-05-04T05:29:56+0800
; FORMAT={-:-/ absolute / metric / decimal}
; #@! TF.CreationDate,2025-05-04T05:29:56+08:00
; #@! TF.GenerationSoftware,Kicad,Pcbnew,9.0.1
; #@! TF.FileFunction,Plated,1,2,PTH
FMAT,2
METRIC
; #@! TA.AperFunction,Plated,PTH,ViaDrill
T1C0.100
; #@! TA.AperFunction,Plated,PTH,ViaDrill
T2C0.300
; #@! TA.AperFunction,Plated,PTH,ComponentDrill
T3C1.000
%
G90
G05
T1
X151.91Y-127.7
X169.6Y-128.3
X181.7Y-145.796
X212.9Y-146.3
X231.1Y-147.0
X250.3Y-146.9
T2
X97.15Y-123.32
X97.15Y-142.32
X97.15Y-161.32
X102.85Y-123.32
X102.85Y-142.32
X102.85Y-161.32
X114.0Y-125.4
X116.15Y-123.32
X116.15Y-142.32
X116.15Y-161.32
X121.85Y-123.32
X121.85Y-142.32
X121.85Y-161.32
X129.8Y-126.4
X135.15Y-123.32
X135.15Y-142.32
X135.15Y-161.32
X140.85Y-123.32
X140.85Y-142.32
X140.85Y-161.32
X154.15Y-123.32
X154.15Y-142.32
X154.15Y-161.32
X154.15Y-180.32
X159.85Y-123.32
X159.85Y-142.32
X159.85Y-161.32
X159.85Y-180.32
X170.0Y-149.9
X173.15Y-123.32
X173.15Y-142.32
X173.15Y-161.32
X173.15Y-180.32
X178.7Y-128.9
X178.85Y-123.32
X178.85Y-142.32
X178.85Y-161.32
X178.85Y-180.32
X208.525Y-154.3
X209.2Y-145.0
X212.15Y-123.32
X212.15Y-142.32
X212.15Y-161.32
X212.15Y-180.32
X217.85Y-123.32
X217.85Y-142.32
X217.85Y-161.32
X217.85Y-180.32
X231.15Y-123.32
X231.15Y-142.32
X231.15Y-161.32
X231.15Y-180.32
X236.85Y-123.32
X236.85Y-142.32
X236.85Y-161.32
X236.85Y-180.32
X250.15Y-123.32
X250.15Y-142.32
X250.15Y-161.32
X255.85Y-123.32
X255.85Y-142.32
X255.85Y-161.32
X269.15Y-123.32
X269.15Y-142.32
X269.15Y-161.32
X269.6Y-145.4
X274.85Y-123.32
X274.85Y-142.32
X274.85Y-161.32
X288.15Y-123.32
X288.15Y-142.32
X288.15Y-161.32
X293.85Y-123.32
X293.85Y-142.32
X293.85Y-161.32
T3
X187.88Y-112.46
X187.88Y-115.0
X187.88Y-117.54
X187.88Y-120.08
X187.88Y-122.62
X187.88Y-125.16
X187.88Y-127.7
X187.88Y-130.24
X187.88Y-132.78
X187.88Y-135.32
X187.88Y-137.86
X187.88Y-140.4
X203.12Y-112.46
X203.12Y-115.0
X203.12Y-117.54
X203.12Y-120.08
X203.12Y-122.62
X203.12Y-125.16
X203.12Y-127.7
X203.12Y-130.24
X203.12Y-132.78
X203.12Y-135.32
X203.12Y-137.86
X203.12Y-140.4
M30
