%TF.GenerationSoftware,KiCad,Pcbnew,9.0.1*%
%TF.CreationDate,2025-05-04T05:29:54+08:00*%
%TF.ProjectId,board,626f6172-642e-46b6-9963-61645f706362,v1.0.0*%
%TF.SameCoordinates,Original*%
%TF.FileFunction,Legend,Top*%
%TF.FilePolarity,Positive*%
%FSLAX46Y46*%
G04 Gerber Fmt 4.6, Leading zero omitted, Abs format (unit mm)*
G04 Created by KiCad (PCBNEW 9.0.1) date 2025-05-04 05:29:54*
%MOMM*%
%LPD*%
G01*
G04 APERTURE LIST*
%ADD10C,0.100000*%
G04 APERTURE END LIST*
D10*
%TO.C,D23*%
X233250000Y-161320000D02*
X233650000Y-161320000D01*
X233650000Y-161320000D02*
X233650000Y-160770000D01*
X233650000Y-161320000D02*
X233650000Y-161870000D01*
X233650000Y-161320000D02*
X234250000Y-160920000D01*
X234250000Y-160920000D02*
X234250000Y-161720000D01*
X234250000Y-161320000D02*
X234750000Y-161320000D01*
X234250000Y-161720000D02*
X233650000Y-161320000D01*
%TO.C,D13*%
X156250000Y-123320000D02*
X156650000Y-123320000D01*
X156650000Y-123320000D02*
X156650000Y-122770000D01*
X156650000Y-123320000D02*
X156650000Y-123870000D01*
X156650000Y-123320000D02*
X157250000Y-122920000D01*
X157250000Y-122920000D02*
X157250000Y-123720000D01*
X157250000Y-123320000D02*
X157750000Y-123320000D01*
X157250000Y-123720000D02*
X156650000Y-123320000D01*
%TO.C,D10*%
X156250000Y-180320000D02*
X156650000Y-180320000D01*
X156650000Y-180320000D02*
X156650000Y-179770000D01*
X156650000Y-180320000D02*
X156650000Y-180870000D01*
X156650000Y-180320000D02*
X157250000Y-179920000D01*
X157250000Y-179920000D02*
X157250000Y-180720000D01*
X157250000Y-180320000D02*
X157750000Y-180320000D01*
X157250000Y-180720000D02*
X156650000Y-180320000D01*
%TO.C,D31*%
X271250000Y-123320000D02*
X271650000Y-123320000D01*
X271650000Y-123320000D02*
X271650000Y-122770000D01*
X271650000Y-123320000D02*
X271650000Y-123870000D01*
X271650000Y-123320000D02*
X272250000Y-122920000D01*
X272250000Y-122920000D02*
X272250000Y-123720000D01*
X272250000Y-123320000D02*
X272750000Y-123320000D01*
X272250000Y-123720000D02*
X271650000Y-123320000D01*
%TO.C,D33*%
X290250000Y-142320000D02*
X290650000Y-142320000D01*
X290650000Y-142320000D02*
X290650000Y-141770000D01*
X290650000Y-142320000D02*
X290650000Y-142870000D01*
X290650000Y-142320000D02*
X291250000Y-141920000D01*
X291250000Y-141920000D02*
X291250000Y-142720000D01*
X291250000Y-142320000D02*
X291750000Y-142320000D01*
X291250000Y-142720000D02*
X290650000Y-142320000D01*
%TO.C,D29*%
X271250000Y-161320000D02*
X271650000Y-161320000D01*
X271650000Y-161320000D02*
X271650000Y-160770000D01*
X271650000Y-161320000D02*
X271650000Y-161870000D01*
X271650000Y-161320000D02*
X272250000Y-160920000D01*
X272250000Y-160920000D02*
X272250000Y-161720000D01*
X272250000Y-161320000D02*
X272750000Y-161320000D01*
X272250000Y-161720000D02*
X271650000Y-161320000D01*
%TO.C,D9*%
X137250000Y-123320000D02*
X137650000Y-123320000D01*
X137650000Y-123320000D02*
X137650000Y-122770000D01*
X137650000Y-123320000D02*
X137650000Y-123870000D01*
X137650000Y-123320000D02*
X138250000Y-122920000D01*
X138250000Y-122920000D02*
X138250000Y-123720000D01*
X138250000Y-123320000D02*
X138750000Y-123320000D01*
X138250000Y-123720000D02*
X137650000Y-123320000D01*
%TO.C,D1*%
X99250000Y-161320000D02*
X99650000Y-161320000D01*
X99650000Y-161320000D02*
X99650000Y-160770000D01*
X99650000Y-161320000D02*
X99650000Y-161870000D01*
X99650000Y-161320000D02*
X100250000Y-160920000D01*
X100250000Y-160920000D02*
X100250000Y-161720000D01*
X100250000Y-161320000D02*
X100750000Y-161320000D01*
X100250000Y-161720000D02*
X99650000Y-161320000D01*
%TO.C,D32*%
X290250000Y-161320000D02*
X290650000Y-161320000D01*
X290650000Y-161320000D02*
X290650000Y-160770000D01*
X290650000Y-161320000D02*
X290650000Y-161870000D01*
X290650000Y-161320000D02*
X291250000Y-160920000D01*
X291250000Y-160920000D02*
X291250000Y-161720000D01*
X291250000Y-161320000D02*
X291750000Y-161320000D01*
X291250000Y-161720000D02*
X290650000Y-161320000D01*
%TO.C,D17*%
X175250000Y-123320000D02*
X175650000Y-123320000D01*
X175650000Y-123320000D02*
X175650000Y-122770000D01*
X175650000Y-123320000D02*
X175650000Y-123870000D01*
X175650000Y-123320000D02*
X176250000Y-122920000D01*
X176250000Y-122920000D02*
X176250000Y-123720000D01*
X176250000Y-123320000D02*
X176750000Y-123320000D01*
X176250000Y-123720000D02*
X175650000Y-123320000D01*
%TO.C,D6*%
X118250000Y-123320000D02*
X118650000Y-123320000D01*
X118650000Y-123320000D02*
X118650000Y-122770000D01*
X118650000Y-123320000D02*
X118650000Y-123870000D01*
X118650000Y-123320000D02*
X119250000Y-122920000D01*
X119250000Y-122920000D02*
X119250000Y-123720000D01*
X119250000Y-123320000D02*
X119750000Y-123320000D01*
X119250000Y-123720000D02*
X118650000Y-123320000D01*
%TO.C,D18*%
X214250000Y-180320000D02*
X214650000Y-180320000D01*
X214650000Y-180320000D02*
X214650000Y-179770000D01*
X214650000Y-180320000D02*
X214650000Y-180870000D01*
X214650000Y-180320000D02*
X215250000Y-179920000D01*
X215250000Y-179920000D02*
X215250000Y-180720000D01*
X215250000Y-180320000D02*
X215750000Y-180320000D01*
X215250000Y-180720000D02*
X214650000Y-180320000D01*
%TO.C,D20*%
X214250000Y-142320000D02*
X214650000Y-142320000D01*
X214650000Y-142320000D02*
X214650000Y-141770000D01*
X214650000Y-142320000D02*
X214650000Y-142870000D01*
X214650000Y-142320000D02*
X215250000Y-141920000D01*
X215250000Y-141920000D02*
X215250000Y-142720000D01*
X215250000Y-142320000D02*
X215750000Y-142320000D01*
X215250000Y-142720000D02*
X214650000Y-142320000D01*
%TO.C,D2*%
X99250000Y-142320000D02*
X99650000Y-142320000D01*
X99650000Y-142320000D02*
X99650000Y-141770000D01*
X99650000Y-142320000D02*
X99650000Y-142870000D01*
X99650000Y-142320000D02*
X100250000Y-141920000D01*
X100250000Y-141920000D02*
X100250000Y-142720000D01*
X100250000Y-142320000D02*
X100750000Y-142320000D01*
X100250000Y-142720000D02*
X99650000Y-142320000D01*
%TO.C,D4*%
X118250000Y-161320000D02*
X118650000Y-161320000D01*
X118650000Y-161320000D02*
X118650000Y-160770000D01*
X118650000Y-161320000D02*
X118650000Y-161870000D01*
X118650000Y-161320000D02*
X119250000Y-160920000D01*
X119250000Y-160920000D02*
X119250000Y-161720000D01*
X119250000Y-161320000D02*
X119750000Y-161320000D01*
X119250000Y-161720000D02*
X118650000Y-161320000D01*
%TO.C,D25*%
X233250000Y-123320000D02*
X233650000Y-123320000D01*
X233650000Y-123320000D02*
X233650000Y-122770000D01*
X233650000Y-123320000D02*
X233650000Y-123870000D01*
X233650000Y-123320000D02*
X234250000Y-122920000D01*
X234250000Y-122920000D02*
X234250000Y-123720000D01*
X234250000Y-123320000D02*
X234750000Y-123320000D01*
X234250000Y-123720000D02*
X233650000Y-123320000D01*
%TO.C,D21*%
X214250000Y-123320000D02*
X214650000Y-123320000D01*
X214650000Y-123320000D02*
X214650000Y-122770000D01*
X214650000Y-123320000D02*
X214650000Y-123870000D01*
X214650000Y-123320000D02*
X215250000Y-122920000D01*
X215250000Y-122920000D02*
X215250000Y-123720000D01*
X215250000Y-123320000D02*
X215750000Y-123320000D01*
X215250000Y-123720000D02*
X214650000Y-123320000D01*
%TO.C,D8*%
X137250000Y-142320000D02*
X137650000Y-142320000D01*
X137650000Y-142320000D02*
X137650000Y-141770000D01*
X137650000Y-142320000D02*
X137650000Y-142870000D01*
X137650000Y-142320000D02*
X138250000Y-141920000D01*
X138250000Y-141920000D02*
X138250000Y-142720000D01*
X138250000Y-142320000D02*
X138750000Y-142320000D01*
X138250000Y-142720000D02*
X137650000Y-142320000D01*
%TO.C,D19*%
X214250000Y-161320000D02*
X214650000Y-161320000D01*
X214650000Y-161320000D02*
X214650000Y-160770000D01*
X214650000Y-161320000D02*
X214650000Y-161870000D01*
X214650000Y-161320000D02*
X215250000Y-160920000D01*
X215250000Y-160920000D02*
X215250000Y-161720000D01*
X215250000Y-161320000D02*
X215750000Y-161320000D01*
X215250000Y-161720000D02*
X214650000Y-161320000D01*
%TO.C,D5*%
X118250000Y-142320000D02*
X118650000Y-142320000D01*
X118650000Y-142320000D02*
X118650000Y-141770000D01*
X118650000Y-142320000D02*
X118650000Y-142870000D01*
X118650000Y-142320000D02*
X119250000Y-141920000D01*
X119250000Y-141920000D02*
X119250000Y-142720000D01*
X119250000Y-142320000D02*
X119750000Y-142320000D01*
X119250000Y-142720000D02*
X118650000Y-142320000D01*
%TO.C,D3*%
X99250000Y-123320000D02*
X99650000Y-123320000D01*
X99650000Y-123320000D02*
X99650000Y-122770000D01*
X99650000Y-123320000D02*
X99650000Y-123870000D01*
X99650000Y-123320000D02*
X100250000Y-122920000D01*
X100250000Y-122920000D02*
X100250000Y-123720000D01*
X100250000Y-123320000D02*
X100750000Y-123320000D01*
X100250000Y-123720000D02*
X99650000Y-123320000D01*
%TO.C,D16*%
X175250000Y-142320000D02*
X175650000Y-142320000D01*
X175650000Y-142320000D02*
X175650000Y-141770000D01*
X175650000Y-142320000D02*
X175650000Y-142870000D01*
X175650000Y-142320000D02*
X176250000Y-141920000D01*
X176250000Y-141920000D02*
X176250000Y-142720000D01*
X176250000Y-142320000D02*
X176750000Y-142320000D01*
X176250000Y-142720000D02*
X175650000Y-142320000D01*
%TO.C,D7*%
X137250000Y-161320000D02*
X137650000Y-161320000D01*
X137650000Y-161320000D02*
X137650000Y-160770000D01*
X137650000Y-161320000D02*
X137650000Y-161870000D01*
X137650000Y-161320000D02*
X138250000Y-160920000D01*
X138250000Y-160920000D02*
X138250000Y-161720000D01*
X138250000Y-161320000D02*
X138750000Y-161320000D01*
X138250000Y-161720000D02*
X137650000Y-161320000D01*
%TO.C,D15*%
X175250000Y-161320000D02*
X175650000Y-161320000D01*
X175650000Y-161320000D02*
X175650000Y-160770000D01*
X175650000Y-161320000D02*
X175650000Y-161870000D01*
X175650000Y-161320000D02*
X176250000Y-160920000D01*
X176250000Y-160920000D02*
X176250000Y-161720000D01*
X176250000Y-161320000D02*
X176750000Y-161320000D01*
X176250000Y-161720000D02*
X175650000Y-161320000D01*
%TO.C,D22*%
X233250000Y-180320000D02*
X233650000Y-180320000D01*
X233650000Y-180320000D02*
X233650000Y-179770000D01*
X233650000Y-180320000D02*
X233650000Y-180870000D01*
X233650000Y-180320000D02*
X234250000Y-179920000D01*
X234250000Y-179920000D02*
X234250000Y-180720000D01*
X234250000Y-180320000D02*
X234750000Y-180320000D01*
X234250000Y-180720000D02*
X233650000Y-180320000D01*
%TO.C,D34*%
X290250000Y-123320000D02*
X290650000Y-123320000D01*
X290650000Y-123320000D02*
X290650000Y-122770000D01*
X290650000Y-123320000D02*
X290650000Y-123870000D01*
X290650000Y-123320000D02*
X291250000Y-122920000D01*
X291250000Y-122920000D02*
X291250000Y-123720000D01*
X291250000Y-123320000D02*
X291750000Y-123320000D01*
X291250000Y-123720000D02*
X290650000Y-123320000D01*
%TO.C,D11*%
X156250000Y-161320000D02*
X156650000Y-161320000D01*
X156650000Y-161320000D02*
X156650000Y-160770000D01*
X156650000Y-161320000D02*
X156650000Y-161870000D01*
X156650000Y-161320000D02*
X157250000Y-160920000D01*
X157250000Y-160920000D02*
X157250000Y-161720000D01*
X157250000Y-161320000D02*
X157750000Y-161320000D01*
X157250000Y-161720000D02*
X156650000Y-161320000D01*
%TO.C,D14*%
X175250000Y-180320000D02*
X175650000Y-180320000D01*
X175650000Y-180320000D02*
X175650000Y-179770000D01*
X175650000Y-180320000D02*
X175650000Y-180870000D01*
X175650000Y-180320000D02*
X176250000Y-179920000D01*
X176250000Y-179920000D02*
X176250000Y-180720000D01*
X176250000Y-180320000D02*
X176750000Y-180320000D01*
X176250000Y-180720000D02*
X175650000Y-180320000D01*
%TO.C,D24*%
X233250000Y-142320000D02*
X233650000Y-142320000D01*
X233650000Y-142320000D02*
X233650000Y-141770000D01*
X233650000Y-142320000D02*
X233650000Y-142870000D01*
X233650000Y-142320000D02*
X234250000Y-141920000D01*
X234250000Y-141920000D02*
X234250000Y-142720000D01*
X234250000Y-142320000D02*
X234750000Y-142320000D01*
X234250000Y-142720000D02*
X233650000Y-142320000D01*
%TO.C,D26*%
X252250000Y-161320000D02*
X252650000Y-161320000D01*
X252650000Y-161320000D02*
X252650000Y-160770000D01*
X252650000Y-161320000D02*
X252650000Y-161870000D01*
X252650000Y-161320000D02*
X253250000Y-160920000D01*
X253250000Y-160920000D02*
X253250000Y-161720000D01*
X253250000Y-161320000D02*
X253750000Y-161320000D01*
X253250000Y-161720000D02*
X252650000Y-161320000D01*
%TO.C,D28*%
X252250000Y-123320000D02*
X252650000Y-123320000D01*
X252650000Y-123320000D02*
X252650000Y-122770000D01*
X252650000Y-123320000D02*
X252650000Y-123870000D01*
X252650000Y-123320000D02*
X253250000Y-122920000D01*
X253250000Y-122920000D02*
X253250000Y-123720000D01*
X253250000Y-123320000D02*
X253750000Y-123320000D01*
X253250000Y-123720000D02*
X252650000Y-123320000D01*
%TO.C,D30*%
X271250000Y-142320000D02*
X271650000Y-142320000D01*
X271650000Y-142320000D02*
X271650000Y-141770000D01*
X271650000Y-142320000D02*
X271650000Y-142870000D01*
X271650000Y-142320000D02*
X272250000Y-141920000D01*
X272250000Y-141920000D02*
X272250000Y-142720000D01*
X272250000Y-142320000D02*
X272750000Y-142320000D01*
X272250000Y-142720000D02*
X271650000Y-142320000D01*
%TO.C,D12*%
X156250000Y-142320000D02*
X156650000Y-142320000D01*
X156650000Y-142320000D02*
X156650000Y-141770000D01*
X156650000Y-142320000D02*
X156650000Y-142870000D01*
X156650000Y-142320000D02*
X157250000Y-141920000D01*
X157250000Y-141920000D02*
X157250000Y-142720000D01*
X157250000Y-142320000D02*
X157750000Y-142320000D01*
X157250000Y-142720000D02*
X156650000Y-142320000D01*
%TO.C,D27*%
X252250000Y-142320000D02*
X252650000Y-142320000D01*
X252650000Y-142320000D02*
X252650000Y-141770000D01*
X252650000Y-142320000D02*
X252650000Y-142870000D01*
X252650000Y-142320000D02*
X253250000Y-141920000D01*
X253250000Y-141920000D02*
X253250000Y-142720000D01*
X253250000Y-142320000D02*
X253750000Y-142320000D01*
X253250000Y-142720000D02*
X252650000Y-142320000D01*
%TD*%
M02*
