%TF.GenerationSoftware,KiCad,Pcbnew,9.0.1*%
%TF.CreationDate,2025-05-05T17:51:07+08:00*%
%TF.ProjectId,board,626f6172-642e-46b6-9963-61645f706362,v1.0.0*%
%TF.SameCoordinates,Original*%
%TF.FileFunction,Paste,Top*%
%TF.FilePolarity,Positive*%
%FSLAX46Y46*%
G04 Gerber Fmt 4.6, Leading zero omitted, Abs format (unit mm)*
G04 Created by KiCad (PCBNEW 9.0.1) date 2025-05-05 17:51:07*
%MOMM*%
%LPD*%
G01*
G04 APERTURE LIST*
%ADD10R,1.200000X0.900000*%
G04 APERTURE END LIST*
D10*
%TO.C,D29*%
X265540000Y-152330000D03*
X265540000Y-149030000D03*
%TD*%
%TO.C,D12*%
X150540000Y-133330000D03*
X150540000Y-130030000D03*
%TD*%
%TO.C,D23*%
X227540000Y-152330000D03*
X227540000Y-149030000D03*
%TD*%
%TO.C,D4*%
X112540000Y-152330000D03*
X112540000Y-149030000D03*
%TD*%
%TO.C,D16*%
X169540000Y-133330000D03*
X169540000Y-130030000D03*
%TD*%
%TO.C,D14*%
X169540000Y-171330000D03*
X169540000Y-168030000D03*
%TD*%
%TO.C,D1*%
X93540000Y-152330000D03*
X93540000Y-149030000D03*
%TD*%
%TO.C,D21*%
X208540000Y-114330000D03*
X208540000Y-111030000D03*
%TD*%
%TO.C,D30*%
X265540000Y-133330000D03*
X265540000Y-130030000D03*
%TD*%
%TO.C,D20*%
X208540000Y-133330000D03*
X208540000Y-130030000D03*
%TD*%
%TO.C,D11*%
X150540000Y-152330000D03*
X150540000Y-149030000D03*
%TD*%
%TO.C,D5*%
X112540000Y-133330000D03*
X112540000Y-130030000D03*
%TD*%
%TO.C,D19*%
X208540000Y-152330000D03*
X208540000Y-149030000D03*
%TD*%
%TO.C,D2*%
X93540000Y-133330000D03*
X93540000Y-130030000D03*
%TD*%
%TO.C,D7*%
X131540000Y-152330000D03*
X131540000Y-149030000D03*
%TD*%
%TO.C,D31*%
X265540000Y-114330000D03*
X265540000Y-111030000D03*
%TD*%
%TO.C,D13*%
X150540000Y-114330000D03*
X150540000Y-111030000D03*
%TD*%
%TO.C,D24*%
X227540000Y-133330000D03*
X227540000Y-130030000D03*
%TD*%
%TO.C,D15*%
X169540000Y-152330000D03*
X169540000Y-149030000D03*
%TD*%
%TO.C,D28*%
X246540000Y-114330000D03*
X246540000Y-111030000D03*
%TD*%
%TO.C,D26*%
X246540000Y-152330000D03*
X246540000Y-149030000D03*
%TD*%
%TO.C,D8*%
X131540000Y-133330000D03*
X131540000Y-130030000D03*
%TD*%
%TO.C,D22*%
X227540000Y-171330000D03*
X227540000Y-168030000D03*
%TD*%
%TO.C,D3*%
X93540000Y-114330000D03*
X93540000Y-111030000D03*
%TD*%
%TO.C,D27*%
X246540000Y-133330000D03*
X246540000Y-130030000D03*
%TD*%
%TO.C,D10*%
X150540000Y-171330000D03*
X150540000Y-168030000D03*
%TD*%
%TO.C,D17*%
X169540000Y-114330000D03*
X169540000Y-111030000D03*
%TD*%
%TO.C,D25*%
X227540000Y-114330000D03*
X227540000Y-111030000D03*
%TD*%
%TO.C,D34*%
X284540000Y-114330000D03*
X284540000Y-111030000D03*
%TD*%
%TO.C,D9*%
X131540000Y-114330000D03*
X131540000Y-111030000D03*
%TD*%
%TO.C,D6*%
X112540000Y-114330000D03*
X112540000Y-111030000D03*
%TD*%
%TO.C,D18*%
X208540000Y-171330000D03*
X208540000Y-168030000D03*
%TD*%
%TO.C,D33*%
X284540000Y-133330000D03*
X284540000Y-130030000D03*
%TD*%
%TO.C,D32*%
X284540000Y-152330000D03*
X284540000Y-149030000D03*
%TD*%
M02*
