M48
; DRILL file {KiCad 9.0.1} date 2025-05-05T17:51:08+0800
; FORMAT={-:-/ absolute / metric / decimal}
; #@! TF.CreationDate,2025-05-05T17:51:08+08:00
; #@! TF.GenerationSoftware,Kicad,Pcbnew,9.0.1
; #@! TF.FileFunction,NonPlated,1,2,NPTH
FMAT,2
METRIC
; #@! TA.AperFunction,NonPlated,NPTH,ComponentDrill
T1C0.750
; #@! TA.AperFunction,NonPlated,NPTH,ComponentDrill
T2C0.900
; #@! TA.AperFunction,NonPlated,NPTH,ComponentDrill
T3C1.900
; #@! TA.AperFunction,NonPlated,NPTH,ComponentDrill
T4C3.000
; #@! TA.AperFunction,NonPlated,NPTH,ComponentDrill
T5C5.000
%
G90
G05
T1
X201.88Y-108.625
X201.88Y-111.375
T2
X187.18Y-109.725
X190.18Y-109.725
T3
X94.5Y-118.0
X94.5Y-137.0
X94.5Y-156.0
X105.5Y-118.0
X105.5Y-137.0
X105.5Y-156.0
X113.5Y-118.0
X113.5Y-137.0
X113.5Y-156.0
X124.5Y-118.0
X124.5Y-137.0
X124.5Y-156.0
X132.5Y-118.0
X132.5Y-137.0
X132.5Y-156.0
X143.5Y-118.0
X143.5Y-137.0
X143.5Y-156.0
X151.5Y-118.0
X151.5Y-137.0
X151.5Y-156.0
X151.5Y-175.0
X162.5Y-118.0
X162.5Y-137.0
X162.5Y-156.0
X162.5Y-175.0
X170.5Y-118.0
X170.5Y-137.0
X170.5Y-156.0
X170.5Y-175.0
X181.5Y-118.0
X181.5Y-137.0
X181.5Y-156.0
X181.5Y-175.0
X209.5Y-118.0
X209.5Y-137.0
X209.5Y-156.0
X209.5Y-175.0
X220.5Y-118.0
X220.5Y-137.0
X220.5Y-156.0
X220.5Y-175.0
X228.5Y-118.0
X228.5Y-137.0
X228.5Y-156.0
X228.5Y-175.0
X239.5Y-118.0
X239.5Y-137.0
X239.5Y-156.0
X239.5Y-175.0
X247.5Y-118.0
X247.5Y-137.0
X247.5Y-156.0
X258.5Y-118.0
X258.5Y-137.0
X258.5Y-156.0
X266.5Y-118.0
X266.5Y-137.0
X266.5Y-156.0
X277.5Y-118.0
X277.5Y-137.0
X277.5Y-156.0
X285.5Y-118.0
X285.5Y-137.0
X285.5Y-156.0
X296.5Y-118.0
X296.5Y-137.0
X296.5Y-156.0
T4
X100.0Y-112.05
X100.0Y-131.05
X100.0Y-150.05
X105.0Y-114.25
X105.0Y-133.25
X105.0Y-152.25
X119.0Y-112.05
X119.0Y-131.05
X119.0Y-150.05
X124.0Y-114.25
X124.0Y-133.25
X124.0Y-152.25
X138.0Y-112.05
X138.0Y-131.05
X138.0Y-150.05
X143.0Y-114.25
X143.0Y-133.25
X143.0Y-152.25
X157.0Y-112.05
X157.0Y-131.05
X157.0Y-150.05
X157.0Y-169.05
X162.0Y-114.25
X162.0Y-133.25
X162.0Y-152.25
X162.0Y-171.25
X176.0Y-112.05
X176.0Y-131.05
X176.0Y-150.05
X176.0Y-169.05
X181.0Y-114.25
X181.0Y-133.25
X181.0Y-152.25
X181.0Y-171.25
X215.0Y-112.05
X215.0Y-131.05
X215.0Y-150.05
X215.0Y-169.05
X220.0Y-114.25
X220.0Y-133.25
X220.0Y-152.25
X220.0Y-171.25
X234.0Y-112.05
X234.0Y-131.05
X234.0Y-150.05
X234.0Y-169.05
X239.0Y-114.25
X239.0Y-133.25
X239.0Y-152.25
X239.0Y-171.25
X253.0Y-112.05
X253.0Y-131.05
X253.0Y-150.05
X258.0Y-114.25
X258.0Y-133.25
X258.0Y-152.25
X272.0Y-112.05
X272.0Y-131.05
X272.0Y-150.05
X277.0Y-114.25
X277.0Y-133.25
X277.0Y-152.25
X291.0Y-112.05
X291.0Y-131.05
X291.0Y-150.05
X296.0Y-114.25
X296.0Y-133.25
X296.0Y-152.25
T5
X100.0Y-118.0
X100.0Y-137.0
X100.0Y-156.0
X119.0Y-118.0
X119.0Y-137.0
X119.0Y-156.0
X138.0Y-118.0
X138.0Y-137.0
X138.0Y-156.0
X157.0Y-118.0
X157.0Y-137.0
X157.0Y-156.0
X157.0Y-175.0
X176.0Y-118.0
X176.0Y-137.0
X176.0Y-156.0
X176.0Y-175.0
X215.0Y-118.0
X215.0Y-137.0
X215.0Y-156.0
X215.0Y-175.0
X234.0Y-118.0
X234.0Y-137.0
X234.0Y-156.0
X234.0Y-175.0
X253.0Y-118.0
X253.0Y-137.0
X253.0Y-156.0
X272.0Y-118.0
X272.0Y-137.0
X272.0Y-156.0
X291.0Y-118.0
X291.0Y-137.0
X291.0Y-156.0
M30
