%TF.GenerationSoftware,KiCad,Pcbnew,9.0.1*%
%TF.CreationDate,2025-05-05T05:16:20+08:00*%
%TF.ProjectId,board,626f6172-642e-46b6-9963-61645f706362,v1.0.0*%
%TF.SameCoordinates,Original*%
%TF.FileFunction,Copper,L1,Top*%
%TF.FilePolarity,Positive*%
%FSLAX46Y46*%
G04 Gerber Fmt 4.6, Leading zero omitted, Abs format (unit mm)*
G04 Created by KiCad (PCBNEW 9.0.1) date 2025-05-05 05:16:20*
%MOMM*%
%LPD*%
G01*
G04 APERTURE LIST*
%TA.AperFunction,SMDPad,CuDef*%
%ADD10R,1.200000X0.900000*%
%TD*%
%TA.AperFunction,ComponentPad*%
%ADD11C,1.700000*%
%TD*%
%TA.AperFunction,ComponentPad*%
%ADD12C,5.600000*%
%TD*%
%TA.AperFunction,ComponentPad*%
%ADD13C,3.500000*%
%TD*%
%TA.AperFunction,ViaPad*%
%ADD14C,0.600000*%
%TD*%
%TA.AperFunction,ViaPad*%
%ADD15C,0.300000*%
%TD*%
%TA.AperFunction,Conductor*%
%ADD16C,0.200000*%
%TD*%
%TA.AperFunction,Conductor*%
%ADD17C,0.250000*%
%TD*%
G04 APERTURE END LIST*
D10*
%TO.P,D29,1*%
%TO.N,P15*%
X265540000Y-152330000D03*
%TO.P,D29,2*%
%TO.N,rightring_bottom*%
X265540000Y-149030000D03*
%TD*%
%TO.P,D12,1*%
%TO.N,P18*%
X150540000Y-133330000D03*
%TO.P,D12,2*%
%TO.N,leftindex_home*%
X150540000Y-130030000D03*
%TD*%
%TO.P,D23,1*%
%TO.N,P15*%
X227540000Y-152330000D03*
%TO.P,D23,2*%
%TO.N,rightindex_bottom*%
X227540000Y-149030000D03*
%TD*%
%TO.P,D4,1*%
%TO.N,P15*%
X112540000Y-152330000D03*
%TO.P,D4,2*%
%TO.N,leftring_bottom*%
X112540000Y-149030000D03*
%TD*%
%TO.P,D16,1*%
%TO.N,P18*%
X169540000Y-133330000D03*
%TO.P,D16,2*%
%TO.N,leftinner_home*%
X169540000Y-130030000D03*
%TD*%
%TO.P,D14,1*%
%TO.N,P14*%
X169540000Y-171330000D03*
%TO.P,D14,2*%
%TO.N,leftinner_thumb*%
X169540000Y-168030000D03*
%TD*%
%TO.P,D1,1*%
%TO.N,P15*%
X93540000Y-152330000D03*
%TO.P,D1,2*%
%TO.N,leftpinky_bottom*%
X93540000Y-149030000D03*
%TD*%
%TO.P,D21,1*%
%TO.N,P19*%
X208540000Y-114330000D03*
%TO.P,D21,2*%
%TO.N,rightinner_top*%
X208540000Y-111030000D03*
%TD*%
%TO.P,D30,1*%
%TO.N,P18*%
X265540000Y-133330000D03*
%TO.P,D30,2*%
%TO.N,rightring_home*%
X265540000Y-130030000D03*
%TD*%
%TO.P,D20,1*%
%TO.N,P18*%
X208540000Y-133330000D03*
%TO.P,D20,2*%
%TO.N,rightinner_home*%
X208540000Y-130030000D03*
%TD*%
%TO.P,D11,1*%
%TO.N,P15*%
X150540000Y-152330000D03*
%TO.P,D11,2*%
%TO.N,leftindex_bottom*%
X150540000Y-149030000D03*
%TD*%
%TO.P,D5,1*%
%TO.N,P18*%
X112540000Y-133330000D03*
%TO.P,D5,2*%
%TO.N,leftring_home*%
X112540000Y-130030000D03*
%TD*%
%TO.P,D19,1*%
%TO.N,P15*%
X208540000Y-152330000D03*
%TO.P,D19,2*%
%TO.N,rightinner_bottom*%
X208540000Y-149030000D03*
%TD*%
D11*
%TO.P,MCU1,1*%
%TO.N,RAW*%
X203120000Y-112300000D03*
%TO.P,MCU1,2*%
%TO.N,GND*%
X203120000Y-114840000D03*
%TO.P,MCU1,3*%
%TO.N,RST*%
X203120000Y-117380000D03*
%TO.P,MCU1,4*%
%TO.N,VCC*%
X203120000Y-119920000D03*
%TO.P,MCU1,5*%
%TO.N,P21*%
X203120000Y-122460000D03*
%TO.P,MCU1,6*%
%TO.N,P20*%
X203120000Y-125000000D03*
%TO.P,MCU1,7*%
%TO.N,P19*%
X203120000Y-127540000D03*
%TO.P,MCU1,8*%
%TO.N,P18*%
X203120000Y-130080000D03*
%TO.P,MCU1,9*%
%TO.N,P15*%
X203120000Y-132620000D03*
%TO.P,MCU1,10*%
%TO.N,P14*%
X203120000Y-135160000D03*
%TO.P,MCU1,11*%
%TO.N,P16*%
X203120000Y-137700000D03*
%TO.P,MCU1,12*%
%TO.N,P10*%
X203120000Y-140240000D03*
%TO.P,MCU1,13*%
%TO.N,P9*%
X187880000Y-140240000D03*
%TO.P,MCU1,14*%
%TO.N,P8*%
X187880000Y-137700000D03*
%TO.P,MCU1,15*%
%TO.N,P7*%
X187880000Y-135160000D03*
%TO.P,MCU1,16*%
%TO.N,P6*%
X187880000Y-132620000D03*
%TO.P,MCU1,17*%
%TO.N,P5*%
X187880000Y-130080000D03*
%TO.P,MCU1,18*%
%TO.N,P4*%
X187880000Y-127540000D03*
%TO.P,MCU1,19*%
%TO.N,P3*%
X187880000Y-125000000D03*
%TO.P,MCU1,20*%
%TO.N,P2*%
X187880000Y-122460000D03*
%TO.P,MCU1,21*%
%TO.N,GND*%
X187880000Y-119920000D03*
%TO.P,MCU1,22*%
X187880000Y-117380000D03*
%TO.P,MCU1,23*%
%TO.N,P0*%
X187880000Y-114840000D03*
%TO.P,MCU1,24*%
%TO.N,P1*%
X187880000Y-112300000D03*
%TD*%
D10*
%TO.P,D2,1*%
%TO.N,P18*%
X93540000Y-133330000D03*
%TO.P,D2,2*%
%TO.N,leftpinky_home*%
X93540000Y-130030000D03*
%TD*%
%TO.P,D7,1*%
%TO.N,P15*%
X131540000Y-152330000D03*
%TO.P,D7,2*%
%TO.N,leftmiddle_bottom*%
X131540000Y-149030000D03*
%TD*%
%TO.P,D31,1*%
%TO.N,P19*%
X265540000Y-114330000D03*
%TO.P,D31,2*%
%TO.N,rightring_top*%
X265540000Y-111030000D03*
%TD*%
%TO.P,D13,1*%
%TO.N,P19*%
X150540000Y-114330000D03*
%TO.P,D13,2*%
%TO.N,leftindex_top*%
X150540000Y-111030000D03*
%TD*%
%TO.P,D24,1*%
%TO.N,P18*%
X227540000Y-133330000D03*
%TO.P,D24,2*%
%TO.N,rightindex_home*%
X227540000Y-130030000D03*
%TD*%
%TO.P,D15,1*%
%TO.N,P15*%
X169540000Y-152330000D03*
%TO.P,D15,2*%
%TO.N,leftinner_bottom*%
X169540000Y-149030000D03*
%TD*%
%TO.P,D28,1*%
%TO.N,P19*%
X246540000Y-114330000D03*
%TO.P,D28,2*%
%TO.N,rightmiddle_top*%
X246540000Y-111030000D03*
%TD*%
%TO.P,D26,1*%
%TO.N,P15*%
X246540000Y-152330000D03*
%TO.P,D26,2*%
%TO.N,rightmiddle_bottom*%
X246540000Y-149030000D03*
%TD*%
%TO.P,D8,1*%
%TO.N,P18*%
X131540000Y-133330000D03*
%TO.P,D8,2*%
%TO.N,leftmiddle_home*%
X131540000Y-130030000D03*
%TD*%
%TO.P,D22,1*%
%TO.N,P14*%
X227540000Y-171330000D03*
%TO.P,D22,2*%
%TO.N,rightindex_thumb*%
X227540000Y-168030000D03*
%TD*%
%TO.P,D3,1*%
%TO.N,P19*%
X93540000Y-114330000D03*
%TO.P,D3,2*%
%TO.N,leftpinky_top*%
X93540000Y-111030000D03*
%TD*%
%TO.P,D27,1*%
%TO.N,P18*%
X246540000Y-133330000D03*
%TO.P,D27,2*%
%TO.N,rightmiddle_home*%
X246540000Y-130030000D03*
%TD*%
%TO.P,D10,1*%
%TO.N,P14*%
X150540000Y-171330000D03*
%TO.P,D10,2*%
%TO.N,leftindex_thumb*%
X150540000Y-168030000D03*
%TD*%
%TO.P,D17,1*%
%TO.N,P19*%
X169540000Y-114330000D03*
%TO.P,D17,2*%
%TO.N,leftinner_top*%
X169540000Y-111030000D03*
%TD*%
%TO.P,D25,1*%
%TO.N,P19*%
X227540000Y-114330000D03*
%TO.P,D25,2*%
%TO.N,rightindex_top*%
X227540000Y-111030000D03*
%TD*%
%TO.P,D34,1*%
%TO.N,P19*%
X284540000Y-114330000D03*
%TO.P,D34,2*%
%TO.N,rightpinky_top*%
X284540000Y-111030000D03*
%TD*%
%TO.P,D9,1*%
%TO.N,P19*%
X131540000Y-114330000D03*
%TO.P,D9,2*%
%TO.N,leftmiddle_top*%
X131540000Y-111030000D03*
%TD*%
%TO.P,D6,1*%
%TO.N,P19*%
X112540000Y-114330000D03*
%TO.P,D6,2*%
%TO.N,leftring_top*%
X112540000Y-111030000D03*
%TD*%
%TO.P,D18,1*%
%TO.N,P14*%
X208540000Y-171330000D03*
%TO.P,D18,2*%
%TO.N,rightinner_thumb*%
X208540000Y-168030000D03*
%TD*%
%TO.P,D33,1*%
%TO.N,P18*%
X284540000Y-133330000D03*
%TO.P,D33,2*%
%TO.N,rightpinky_home*%
X284540000Y-130030000D03*
%TD*%
%TO.P,D32,1*%
%TO.N,P15*%
X284540000Y-152330000D03*
%TO.P,D32,2*%
%TO.N,rightpinky_bottom*%
X284540000Y-149030000D03*
%TD*%
D12*
%TO.P,S31,*%
%TO.N,*%
X272000000Y-118000000D03*
D13*
%TO.P,S31,1*%
%TO.N,P10*%
X267600000Y-122700000D03*
%TO.P,S31,2*%
%TO.N,rightring_top*%
X274600000Y-123750000D03*
%TD*%
D12*
%TO.P,S7,*%
%TO.N,*%
X138000000Y-156000000D03*
D13*
%TO.P,S7,1*%
%TO.N,P4*%
X133600000Y-160700000D03*
%TO.P,S7,2*%
%TO.N,leftmiddle_bottom*%
X140600000Y-161750000D03*
%TD*%
D12*
%TO.P,S4,*%
%TO.N,*%
X119000000Y-156000000D03*
D13*
%TO.P,S4,1*%
%TO.N,P3*%
X114600000Y-160700000D03*
%TO.P,S4,2*%
%TO.N,leftring_bottom*%
X121600000Y-161750000D03*
%TD*%
D12*
%TO.P,S29,*%
%TO.N,*%
X272000000Y-156000000D03*
D13*
%TO.P,S29,1*%
%TO.N,P10*%
X267600000Y-160700000D03*
%TO.P,S29,2*%
%TO.N,rightring_bottom*%
X274600000Y-161750000D03*
%TD*%
D12*
%TO.P,S26,*%
%TO.N,*%
X253000000Y-156000000D03*
D13*
%TO.P,S26,1*%
%TO.N,P9*%
X248600000Y-160700000D03*
%TO.P,S26,2*%
%TO.N,rightmiddle_bottom*%
X255600000Y-161750000D03*
%TD*%
D12*
%TO.P,S16,*%
%TO.N,*%
X176000000Y-137000000D03*
D13*
%TO.P,S16,1*%
%TO.N,P6*%
X171600000Y-141700000D03*
%TO.P,S16,2*%
%TO.N,leftinner_home*%
X178600000Y-142750000D03*
%TD*%
D12*
%TO.P,S6,*%
%TO.N,*%
X119000000Y-118000000D03*
D13*
%TO.P,S6,1*%
%TO.N,P3*%
X114600000Y-122700000D03*
%TO.P,S6,2*%
%TO.N,leftring_top*%
X121600000Y-123750000D03*
%TD*%
D12*
%TO.P,S5,*%
%TO.N,*%
X119000000Y-137000000D03*
D13*
%TO.P,S5,1*%
%TO.N,P3*%
X114600000Y-141700000D03*
%TO.P,S5,2*%
%TO.N,leftring_home*%
X121600000Y-142750000D03*
%TD*%
D12*
%TO.P,S1,*%
%TO.N,*%
X100000000Y-156000000D03*
D13*
%TO.P,S1,1*%
%TO.N,P2*%
X95600000Y-160700000D03*
%TO.P,S1,2*%
%TO.N,leftpinky_bottom*%
X102600000Y-161750000D03*
%TD*%
D12*
%TO.P,S2,*%
%TO.N,*%
X100000000Y-137000000D03*
D13*
%TO.P,S2,1*%
%TO.N,P2*%
X95600000Y-141700000D03*
%TO.P,S2,2*%
%TO.N,leftpinky_home*%
X102600000Y-142750000D03*
%TD*%
D12*
%TO.P,S24,*%
%TO.N,*%
X234000000Y-137000000D03*
D13*
%TO.P,S24,1*%
%TO.N,P8*%
X229600000Y-141700000D03*
%TO.P,S24,2*%
%TO.N,rightindex_home*%
X236600000Y-142750000D03*
%TD*%
D12*
%TO.P,S12,*%
%TO.N,*%
X157000000Y-137000000D03*
D13*
%TO.P,S12,1*%
%TO.N,P5*%
X152600000Y-141700000D03*
%TO.P,S12,2*%
%TO.N,leftindex_home*%
X159600000Y-142750000D03*
%TD*%
D12*
%TO.P,S14,*%
%TO.N,*%
X176000000Y-175000000D03*
D13*
%TO.P,S14,1*%
%TO.N,P6*%
X171600000Y-179700000D03*
%TO.P,S14,2*%
%TO.N,leftinner_thumb*%
X178600000Y-180750000D03*
%TD*%
D12*
%TO.P,S33,*%
%TO.N,*%
X291000000Y-137000000D03*
D13*
%TO.P,S33,1*%
%TO.N,P16*%
X286600000Y-141700000D03*
%TO.P,S33,2*%
%TO.N,rightpinky_home*%
X293600000Y-142750000D03*
%TD*%
D12*
%TO.P,S15,*%
%TO.N,*%
X176000000Y-156000000D03*
D13*
%TO.P,S15,1*%
%TO.N,P6*%
X171600000Y-160700000D03*
%TO.P,S15,2*%
%TO.N,leftinner_bottom*%
X178600000Y-161750000D03*
%TD*%
D12*
%TO.P,S30,*%
%TO.N,*%
X272000000Y-137000000D03*
D13*
%TO.P,S30,1*%
%TO.N,P10*%
X267600000Y-141700000D03*
%TO.P,S30,2*%
%TO.N,rightring_home*%
X274600000Y-142750000D03*
%TD*%
D12*
%TO.P,S8,*%
%TO.N,*%
X138000000Y-137000000D03*
D13*
%TO.P,S8,1*%
%TO.N,P4*%
X133600000Y-141700000D03*
%TO.P,S8,2*%
%TO.N,leftmiddle_home*%
X140600000Y-142750000D03*
%TD*%
D12*
%TO.P,S9,*%
%TO.N,*%
X138000000Y-118000000D03*
D13*
%TO.P,S9,1*%
%TO.N,P4*%
X133600000Y-122700000D03*
%TO.P,S9,2*%
%TO.N,leftmiddle_top*%
X140600000Y-123750000D03*
%TD*%
D12*
%TO.P,S22,*%
%TO.N,*%
X234000000Y-175000000D03*
D13*
%TO.P,S22,1*%
%TO.N,P8*%
X229600000Y-179700000D03*
%TO.P,S22,2*%
%TO.N,rightindex_thumb*%
X236600000Y-180750000D03*
%TD*%
D12*
%TO.P,S13,*%
%TO.N,*%
X157000000Y-118000000D03*
D13*
%TO.P,S13,1*%
%TO.N,P5*%
X152600000Y-122700000D03*
%TO.P,S13,2*%
%TO.N,leftindex_top*%
X159600000Y-123750000D03*
%TD*%
D12*
%TO.P,S23,*%
%TO.N,*%
X234000000Y-156000000D03*
D13*
%TO.P,S23,1*%
%TO.N,P8*%
X229600000Y-160700000D03*
%TO.P,S23,2*%
%TO.N,rightindex_bottom*%
X236600000Y-161750000D03*
%TD*%
D12*
%TO.P,S3,*%
%TO.N,*%
X100000000Y-118000000D03*
D13*
%TO.P,S3,1*%
%TO.N,P2*%
X95600000Y-122700000D03*
%TO.P,S3,2*%
%TO.N,leftpinky_top*%
X102600000Y-123750000D03*
%TD*%
D12*
%TO.P,S34,*%
%TO.N,*%
X291000000Y-118000000D03*
D13*
%TO.P,S34,1*%
%TO.N,P16*%
X286600000Y-122700000D03*
%TO.P,S34,2*%
%TO.N,rightpinky_top*%
X293600000Y-123750000D03*
%TD*%
D12*
%TO.P,S25,*%
%TO.N,*%
X234000000Y-118000000D03*
D13*
%TO.P,S25,1*%
%TO.N,P8*%
X229600000Y-122700000D03*
%TO.P,S25,2*%
%TO.N,rightindex_top*%
X236600000Y-123750000D03*
%TD*%
D12*
%TO.P,S10,*%
%TO.N,*%
X157000000Y-175000000D03*
D13*
%TO.P,S10,1*%
%TO.N,P5*%
X152600000Y-179700000D03*
%TO.P,S10,2*%
%TO.N,leftindex_thumb*%
X159600000Y-180750000D03*
%TD*%
D12*
%TO.P,S28,*%
%TO.N,*%
X253000000Y-118000000D03*
D13*
%TO.P,S28,1*%
%TO.N,P9*%
X248600000Y-122700000D03*
%TO.P,S28,2*%
%TO.N,rightmiddle_top*%
X255600000Y-123750000D03*
%TD*%
D12*
%TO.P,S20,*%
%TO.N,*%
X215000000Y-137000000D03*
D13*
%TO.P,S20,1*%
%TO.N,P7*%
X210600000Y-141700000D03*
%TO.P,S20,2*%
%TO.N,rightinner_home*%
X217600000Y-142750000D03*
%TD*%
D12*
%TO.P,S17,*%
%TO.N,*%
X176000000Y-118000000D03*
D13*
%TO.P,S17,1*%
%TO.N,P6*%
X171600000Y-122700000D03*
%TO.P,S17,2*%
%TO.N,leftinner_top*%
X178600000Y-123750000D03*
%TD*%
D12*
%TO.P,S27,*%
%TO.N,*%
X253000000Y-137000000D03*
D13*
%TO.P,S27,1*%
%TO.N,P9*%
X248600000Y-141700000D03*
%TO.P,S27,2*%
%TO.N,rightmiddle_home*%
X255600000Y-142750000D03*
%TD*%
D12*
%TO.P,S21,*%
%TO.N,*%
X215000000Y-118000000D03*
D13*
%TO.P,S21,1*%
%TO.N,P7*%
X210600000Y-122700000D03*
%TO.P,S21,2*%
%TO.N,rightinner_top*%
X217600000Y-123750000D03*
%TD*%
D12*
%TO.P,S11,*%
%TO.N,*%
X157000000Y-156000000D03*
D13*
%TO.P,S11,1*%
%TO.N,P5*%
X152600000Y-160700000D03*
%TO.P,S11,2*%
%TO.N,leftindex_bottom*%
X159600000Y-161750000D03*
%TD*%
D12*
%TO.P,S18,*%
%TO.N,*%
X215000000Y-175000000D03*
D13*
%TO.P,S18,1*%
%TO.N,P7*%
X210600000Y-179700000D03*
%TO.P,S18,2*%
%TO.N,rightinner_thumb*%
X217600000Y-180750000D03*
%TD*%
D12*
%TO.P,S32,*%
%TO.N,*%
X291000000Y-156000000D03*
D13*
%TO.P,S32,1*%
%TO.N,P16*%
X286600000Y-160700000D03*
%TO.P,S32,2*%
%TO.N,rightpinky_bottom*%
X293600000Y-161750000D03*
%TD*%
D12*
%TO.P,S19,*%
%TO.N,*%
X215000000Y-156000000D03*
D13*
%TO.P,S19,1*%
%TO.N,P7*%
X210600000Y-160700000D03*
%TO.P,S19,2*%
%TO.N,rightinner_bottom*%
X217600000Y-161750000D03*
%TD*%
D14*
%TO.N,P2*%
X96725000Y-126775000D03*
%TO.N,leftpinky_bottom*%
X93540000Y-147830000D03*
X108275000Y-152250000D03*
%TO.N,leftpinky_home*%
X108275000Y-133250000D03*
X93540000Y-128830000D03*
%TO.N,leftpinky_top*%
X93540000Y-109830000D03*
D15*
X108275000Y-114250000D03*
D14*
%TO.N,P3*%
X115725000Y-126860000D03*
%TO.N,leftring_bottom*%
X112540000Y-147830000D03*
X127275000Y-152250000D03*
%TO.N,leftring_home*%
X112540000Y-128830000D03*
X127275000Y-133250000D03*
%TO.N,leftring_top*%
X127275000Y-114250000D03*
X112540000Y-109830000D03*
%TO.N,P4*%
X134725000Y-127130000D03*
%TO.N,leftmiddle_bottom*%
X146275000Y-152250000D03*
X131540000Y-147830000D03*
%TO.N,leftmiddle_home*%
X131540000Y-128830000D03*
X146275000Y-133250000D03*
%TO.N,leftmiddle_top*%
X131540000Y-109830000D03*
X146275000Y-114250000D03*
%TO.N,P5*%
X153725000Y-127780000D03*
%TO.N,leftindex_thumb*%
X165275000Y-171250000D03*
X150540000Y-166830000D03*
%TO.N,leftindex_bottom*%
X150540000Y-147830000D03*
X165275000Y-152250000D03*
%TO.N,leftindex_home*%
X150540000Y-128830000D03*
X165275000Y-133250000D03*
%TO.N,leftindex_top*%
X165275000Y-114250000D03*
X150540000Y-109830000D03*
%TO.N,P6*%
X172725000Y-128330000D03*
%TO.N,leftinner_thumb*%
X184275000Y-171250000D03*
X169540000Y-166830000D03*
%TO.N,leftinner_bottom*%
X184275000Y-152250000D03*
X169540000Y-147830000D03*
%TO.N,leftinner_home*%
X184275000Y-133250000D03*
X169540000Y-128830000D03*
%TO.N,leftinner_top*%
X169540000Y-109830000D03*
X184275000Y-114250000D03*
%TO.N,P7*%
X207460000Y-141720000D03*
%TO.N,rightinner_thumb*%
X223275000Y-171250000D03*
X208540000Y-166830000D03*
%TO.N,rightinner_bottom*%
X208540000Y-147830000D03*
X223275000Y-152250000D03*
%TO.N,rightinner_home*%
X208540000Y-128830000D03*
X223275000Y-133250000D03*
%TO.N,rightinner_top*%
X208540000Y-109830000D03*
X223275000Y-114250000D03*
%TO.N,P8*%
X226680000Y-141910000D03*
%TO.N,rightindex_thumb*%
X242275000Y-171250000D03*
X227540000Y-166830000D03*
%TO.N,rightindex_bottom*%
X242275000Y-152250000D03*
X227540000Y-147830000D03*
%TO.N,rightindex_home*%
X242275000Y-133250000D03*
X227540000Y-128830000D03*
%TO.N,rightindex_top*%
X242275000Y-114250000D03*
X227540000Y-109830000D03*
%TO.N,P9*%
X245600000Y-141810000D03*
%TO.N,rightmiddle_bottom*%
X246540000Y-147830000D03*
X261275000Y-152250000D03*
%TO.N,rightmiddle_home*%
X246540000Y-128830000D03*
X261275000Y-133250000D03*
%TO.N,rightmiddle_top*%
X261275000Y-114250000D03*
X246540000Y-109830000D03*
%TO.N,P10*%
X268725000Y-131210000D03*
X268725000Y-131210000D03*
%TO.N,rightring_bottom*%
X280275000Y-152250000D03*
X265540000Y-147830000D03*
%TO.N,rightring_home*%
X265540000Y-128830000D03*
X280275000Y-133250000D03*
%TO.N,rightring_top*%
X265540000Y-109830000D03*
X280275000Y-114250000D03*
%TO.N,P16*%
X287850000Y-130960000D03*
%TO.N,rightpinky_bottom*%
X299275000Y-152250000D03*
X284540000Y-147830000D03*
%TO.N,rightpinky_home*%
X284540000Y-128830000D03*
X299275000Y-133250000D03*
%TO.N,rightpinky_top*%
X299275000Y-114250000D03*
X284540000Y-109830000D03*
%TO.N,P15*%
X208540000Y-153530000D03*
X93540000Y-153530000D03*
X246540000Y-153530000D03*
X131540000Y-153530000D03*
X169540000Y-153530000D03*
X150540000Y-153530000D03*
X181950000Y-147310000D03*
X265540000Y-153530000D03*
X112540000Y-153530000D03*
X227540000Y-153530000D03*
X284540000Y-153530000D03*
%TO.N,P18*%
X131540000Y-134530000D03*
X208540000Y-134530000D03*
X227540000Y-134530000D03*
X169540000Y-134530000D03*
X93540000Y-134530000D03*
X112540000Y-134530000D03*
X265540000Y-134530000D03*
X246540000Y-134530000D03*
X150540000Y-134530000D03*
X284540000Y-134530000D03*
%TO.N,P19*%
X150540000Y-115530000D03*
X169540000Y-115530000D03*
X284540000Y-115530000D03*
X227540000Y-115530000D03*
X131540000Y-115530000D03*
X208540000Y-115530000D03*
X265540000Y-115530000D03*
X246540000Y-115530000D03*
X93540000Y-115530000D03*
X112540000Y-115530000D03*
%TO.N,P14*%
X212800000Y-142710000D03*
X150540000Y-172530000D03*
X227540000Y-172530000D03*
X210730000Y-135130000D03*
X169540000Y-172530000D03*
X206220000Y-135120000D03*
X208540000Y-172530000D03*
X184950000Y-145470000D03*
%TD*%
D16*
%TO.N,P2*%
X97546000Y-125954000D02*
X96725000Y-126775000D01*
X187880000Y-122460000D02*
X184386000Y-125954000D01*
X184386000Y-125954000D02*
X97546000Y-125954000D01*
D17*
%TO.N,leftpinky_bottom*%
X95570000Y-147000000D02*
X103025000Y-147000000D01*
X103025000Y-147000000D02*
X108275000Y-152250000D01*
X93540000Y-149030000D02*
X93540000Y-147830000D01*
X93540000Y-149030000D02*
X95570000Y-147000000D01*
%TO.N,leftpinky_home*%
X94396000Y-129174000D02*
X104199000Y-129174000D01*
X93540000Y-130030000D02*
X93540000Y-128830000D01*
X93540000Y-130030000D02*
X94396000Y-129174000D01*
X104199000Y-129174000D02*
X108275000Y-133250000D01*
%TO.N,leftpinky_top*%
X93540000Y-111030000D02*
X94396000Y-110174000D01*
X93540000Y-111030000D02*
X93540000Y-109830000D01*
X94396000Y-110174000D02*
X104199000Y-110174000D01*
X104199000Y-110174000D02*
X108275000Y-114250000D01*
D16*
%TO.N,P3*%
X186380000Y-126500000D02*
X187880000Y-125000000D01*
X116085000Y-126500000D02*
X186380000Y-126500000D01*
X115725000Y-126860000D02*
X116085000Y-126500000D01*
D17*
%TO.N,leftring_bottom*%
X112540000Y-149030000D02*
X112540000Y-147830000D01*
X123199000Y-148174000D02*
X127275000Y-152250000D01*
X112540000Y-149030000D02*
X113396000Y-148174000D01*
X113396000Y-148174000D02*
X123199000Y-148174000D01*
%TO.N,leftring_home*%
X112540000Y-130030000D02*
X112540000Y-128830000D01*
X112540000Y-130030000D02*
X113396000Y-129174000D01*
X123199000Y-129174000D02*
X127275000Y-133250000D01*
X113396000Y-129174000D02*
X123199000Y-129174000D01*
%TO.N,leftring_top*%
X112540000Y-111030000D02*
X112540000Y-109830000D01*
X113396000Y-110174000D02*
X123199000Y-110174000D01*
X112540000Y-111030000D02*
X113396000Y-110174000D01*
X123199000Y-110174000D02*
X127275000Y-114250000D01*
D16*
%TO.N,P4*%
X187470000Y-127130000D02*
X134725000Y-127130000D01*
X187880000Y-127540000D02*
X187470000Y-127130000D01*
D17*
%TO.N,leftmiddle_bottom*%
X142199000Y-148174000D02*
X146275000Y-152250000D01*
X131540000Y-149030000D02*
X132396000Y-148174000D01*
X132396000Y-148174000D02*
X142199000Y-148174000D01*
X131540000Y-149030000D02*
X131540000Y-147830000D01*
%TO.N,leftmiddle_home*%
X142199000Y-129174000D02*
X146275000Y-133250000D01*
X131540000Y-130030000D02*
X131540000Y-128830000D01*
X132396000Y-129174000D02*
X142199000Y-129174000D01*
X131540000Y-130030000D02*
X132396000Y-129174000D01*
%TO.N,leftmiddle_top*%
X131540000Y-111030000D02*
X132396000Y-110174000D01*
X142199000Y-110174000D02*
X146275000Y-114250000D01*
X131540000Y-111030000D02*
X131540000Y-109830000D01*
X132396000Y-110174000D02*
X142199000Y-110174000D01*
D16*
%TO.N,P5*%
X187880000Y-130080000D02*
X185529000Y-127729000D01*
X153776000Y-127729000D02*
X153725000Y-127780000D01*
X185529000Y-127729000D02*
X153776000Y-127729000D01*
D17*
%TO.N,leftindex_thumb*%
X150540000Y-168030000D02*
X151396000Y-167174000D01*
X161199000Y-167174000D02*
X165275000Y-171250000D01*
X150540000Y-168030000D02*
X150540000Y-166830000D01*
X151396000Y-167174000D02*
X161199000Y-167174000D01*
%TO.N,leftindex_bottom*%
X151396000Y-148174000D02*
X161199000Y-148174000D01*
X150540000Y-149030000D02*
X151396000Y-148174000D01*
X161199000Y-148174000D02*
X165275000Y-152250000D01*
X150540000Y-149030000D02*
X150540000Y-147830000D01*
%TO.N,leftindex_home*%
X151570000Y-129000000D02*
X161025000Y-129000000D01*
X161025000Y-129000000D02*
X165275000Y-133250000D01*
X150540000Y-130030000D02*
X150540000Y-128830000D01*
X150540000Y-130030000D02*
X151570000Y-129000000D01*
%TO.N,leftindex_top*%
X151396000Y-110174000D02*
X161199000Y-110174000D01*
X150540000Y-111030000D02*
X151396000Y-110174000D01*
X161199000Y-110174000D02*
X165275000Y-114250000D01*
X150540000Y-111030000D02*
X150540000Y-109830000D01*
D16*
%TO.N,P6*%
X183590000Y-128330000D02*
X187880000Y-132620000D01*
X172725000Y-128330000D02*
X183590000Y-128330000D01*
D17*
%TO.N,leftinner_thumb*%
X180199000Y-167174000D02*
X184275000Y-171250000D01*
X169540000Y-168030000D02*
X169540000Y-166830000D01*
X170396000Y-167174000D02*
X180199000Y-167174000D01*
X169540000Y-168030000D02*
X170396000Y-167174000D01*
%TO.N,leftinner_bottom*%
X170570000Y-148000000D02*
X180025000Y-148000000D01*
X169540000Y-149030000D02*
X170570000Y-148000000D01*
X180025000Y-148000000D02*
X184275000Y-152250000D01*
X169540000Y-149030000D02*
X169540000Y-147830000D01*
%TO.N,leftinner_home*%
X169540000Y-130030000D02*
X169540000Y-128830000D01*
X169540000Y-130030000D02*
X170396000Y-129174000D01*
X180199000Y-129174000D02*
X184275000Y-133250000D01*
X170396000Y-129174000D02*
X180199000Y-129174000D01*
%TO.N,leftinner_top*%
X180199000Y-110174000D02*
X184275000Y-114250000D01*
X169540000Y-111030000D02*
X170396000Y-110174000D01*
X169540000Y-111030000D02*
X169540000Y-109830000D01*
X170396000Y-110174000D02*
X180199000Y-110174000D01*
D16*
%TO.N,P7*%
X207170000Y-141430000D02*
X194150000Y-141430000D01*
X207460000Y-141720000D02*
X207170000Y-141430000D01*
X194150000Y-141430000D02*
X187880000Y-135160000D01*
D17*
%TO.N,rightinner_thumb*%
X208540000Y-168030000D02*
X209396000Y-167174000D01*
X208540000Y-168030000D02*
X208540000Y-166830000D01*
X209396000Y-167174000D02*
X219199000Y-167174000D01*
X219199000Y-167174000D02*
X223275000Y-171250000D01*
%TO.N,rightinner_bottom*%
X219199000Y-148174000D02*
X223275000Y-152250000D01*
X208540000Y-149030000D02*
X208540000Y-147830000D01*
X208540000Y-149030000D02*
X209396000Y-148174000D01*
X209396000Y-148174000D02*
X219199000Y-148174000D01*
%TO.N,rightinner_home*%
X219199000Y-129174000D02*
X223275000Y-133250000D01*
X209396000Y-129174000D02*
X219199000Y-129174000D01*
X208540000Y-130030000D02*
X209396000Y-129174000D01*
X208540000Y-130030000D02*
X208540000Y-128830000D01*
%TO.N,rightinner_top*%
X208540000Y-111030000D02*
X209396000Y-110174000D01*
X219199000Y-110174000D02*
X223275000Y-114250000D01*
X209396000Y-110174000D02*
X219199000Y-110174000D01*
X208540000Y-111030000D02*
X208540000Y-109830000D01*
D16*
%TO.N,P8*%
X226680000Y-141910000D02*
X223789000Y-144801000D01*
X192020000Y-141840000D02*
X187880000Y-137700000D01*
X206650000Y-141840000D02*
X192020000Y-141840000D01*
X209611000Y-144801000D02*
X206650000Y-141840000D01*
X223789000Y-144801000D02*
X209611000Y-144801000D01*
D17*
%TO.N,rightindex_thumb*%
X227540000Y-168030000D02*
X228396000Y-167174000D01*
X238199000Y-167174000D02*
X242275000Y-171250000D01*
X227540000Y-168030000D02*
X227540000Y-166830000D01*
X228396000Y-167174000D02*
X238199000Y-167174000D01*
%TO.N,rightindex_bottom*%
X227540000Y-149030000D02*
X228396000Y-148174000D01*
X227540000Y-149030000D02*
X227540000Y-147830000D01*
X238199000Y-148174000D02*
X242275000Y-152250000D01*
X228396000Y-148174000D02*
X238199000Y-148174000D01*
%TO.N,rightindex_home*%
X227540000Y-130030000D02*
X228396000Y-129174000D01*
X238199000Y-129174000D02*
X242275000Y-133250000D01*
X228396000Y-129174000D02*
X238199000Y-129174000D01*
X227540000Y-130030000D02*
X227540000Y-128830000D01*
%TO.N,rightindex_top*%
X227540000Y-111030000D02*
X227540000Y-109830000D01*
X228396000Y-110174000D02*
X238199000Y-110174000D01*
X227540000Y-111030000D02*
X228396000Y-110174000D01*
X238199000Y-110174000D02*
X242275000Y-114250000D01*
D16*
%TO.N,P9*%
X242208000Y-145202000D02*
X209444900Y-145202000D01*
X245600000Y-141810000D02*
X242208000Y-145202000D01*
X189881000Y-142241000D02*
X187880000Y-140240000D01*
X206483900Y-142241000D02*
X189881000Y-142241000D01*
X209444900Y-145202000D02*
X206483900Y-142241000D01*
D17*
%TO.N,rightmiddle_bottom*%
X247396000Y-148174000D02*
X257199000Y-148174000D01*
X257199000Y-148174000D02*
X261275000Y-152250000D01*
X246540000Y-149030000D02*
X246540000Y-147830000D01*
X246540000Y-149030000D02*
X247396000Y-148174000D01*
%TO.N,rightmiddle_home*%
X246540000Y-130030000D02*
X246540000Y-128830000D01*
X246540000Y-130030000D02*
X247396000Y-129174000D01*
X247396000Y-129174000D02*
X257199000Y-129174000D01*
X257199000Y-129174000D02*
X261275000Y-133250000D01*
%TO.N,rightmiddle_top*%
X246540000Y-111030000D02*
X246540000Y-109830000D01*
X257199000Y-110174000D02*
X261275000Y-114250000D01*
X247396000Y-110174000D02*
X257199000Y-110174000D01*
X246540000Y-111030000D02*
X247396000Y-110174000D01*
D16*
%TO.N,P10*%
X268725000Y-131210000D02*
X268725000Y-131050000D01*
X207450000Y-138780000D02*
X205990000Y-140240000D01*
X262087000Y-128229000D02*
X208291057Y-128229000D01*
X205990000Y-140240000D02*
X203120000Y-140240000D01*
X265068000Y-131210000D02*
X262087000Y-128229000D01*
X268725000Y-131210000D02*
X265068000Y-131210000D01*
X208291057Y-128229000D02*
X207450000Y-129070057D01*
X207450000Y-129070057D02*
X207450000Y-138780000D01*
D17*
%TO.N,rightring_bottom*%
X265540000Y-149030000D02*
X265540000Y-147830000D01*
X276199000Y-148174000D02*
X280275000Y-152250000D01*
X266396000Y-148174000D02*
X276199000Y-148174000D01*
X265540000Y-149030000D02*
X266396000Y-148174000D01*
%TO.N,rightring_home*%
X266396000Y-129174000D02*
X276199000Y-129174000D01*
X265540000Y-130030000D02*
X265540000Y-128830000D01*
X276199000Y-129174000D02*
X280275000Y-133250000D01*
X265540000Y-130030000D02*
X266396000Y-129174000D01*
%TO.N,rightring_top*%
X265540000Y-111030000D02*
X266396000Y-110174000D01*
X266396000Y-110174000D02*
X276199000Y-110174000D01*
X265540000Y-111030000D02*
X265540000Y-109830000D01*
X276199000Y-110174000D02*
X280275000Y-114250000D01*
D16*
%TO.N,P16*%
X283414943Y-130960000D02*
X280282943Y-127828000D01*
X287850000Y-130960000D02*
X283414943Y-130960000D01*
X280282943Y-127828000D02*
X208124957Y-127828000D01*
X206960000Y-128992957D02*
X206960000Y-136970000D01*
X206230000Y-137700000D02*
X203120000Y-137700000D01*
X206960000Y-136970000D02*
X206230000Y-137700000D01*
X208124957Y-127828000D02*
X206960000Y-128992957D01*
D17*
%TO.N,rightpinky_bottom*%
X284540000Y-149030000D02*
X284540000Y-147830000D01*
X295199000Y-148174000D02*
X299275000Y-152250000D01*
X284540000Y-149030000D02*
X285396000Y-148174000D01*
X285396000Y-148174000D02*
X295199000Y-148174000D01*
%TO.N,rightpinky_home*%
X285396000Y-129174000D02*
X295199000Y-129174000D01*
X284540000Y-130030000D02*
X285396000Y-129174000D01*
X295199000Y-129174000D02*
X299275000Y-133250000D01*
X284540000Y-130030000D02*
X284540000Y-128830000D01*
%TO.N,rightpinky_top*%
X284540000Y-111030000D02*
X284540000Y-109830000D01*
X284540000Y-111030000D02*
X285396000Y-110174000D01*
X295199000Y-110174000D02*
X299275000Y-114250000D01*
X285396000Y-110174000D02*
X295199000Y-110174000D01*
%TO.N,P15*%
X93540000Y-152330000D02*
X93540000Y-153530000D01*
X208540000Y-152330000D02*
X217426935Y-152330000D01*
X246540000Y-152330000D02*
X246540000Y-153530000D01*
X244744000Y-154126000D02*
X246540000Y-152330000D01*
X121426935Y-152330000D02*
X123222935Y-154126000D01*
X129744000Y-154126000D02*
X131540000Y-152330000D01*
X140426935Y-152330000D02*
X142222935Y-154126000D01*
X265540000Y-152330000D02*
X265540000Y-153530000D01*
X284540000Y-152330000D02*
X284540000Y-153530000D01*
X161222935Y-154126000D02*
X167744000Y-154126000D01*
X265540000Y-152330000D02*
X274426935Y-152330000D01*
X123222935Y-154126000D02*
X129744000Y-154126000D01*
X169280702Y-147204000D02*
X181844000Y-147204000D01*
X131540000Y-152330000D02*
X140426935Y-152330000D01*
X93540000Y-152330000D02*
X102426935Y-152330000D01*
X246540000Y-152330000D02*
X255266935Y-152330000D01*
X131540000Y-152330000D02*
X131540000Y-153530000D01*
X227540000Y-152330000D02*
X236266935Y-152330000D01*
X219222935Y-154126000D02*
X225744000Y-154126000D01*
X274426935Y-152330000D02*
X276222935Y-154126000D01*
X276222935Y-154126000D02*
X282744000Y-154126000D01*
X227540000Y-152330000D02*
X227540000Y-153530000D01*
X148744000Y-154126000D02*
X150540000Y-152330000D01*
X159426935Y-152330000D02*
X161222935Y-154126000D01*
X169540000Y-152330000D02*
X169540000Y-153530000D01*
X150540000Y-152330000D02*
X159426935Y-152330000D01*
X282744000Y-154126000D02*
X284540000Y-152330000D01*
X112540000Y-152330000D02*
X112540000Y-153530000D01*
X110744000Y-154126000D02*
X112540000Y-152330000D01*
X257062935Y-154126000D02*
X263744000Y-154126000D01*
X167744000Y-154126000D02*
X169540000Y-152330000D01*
X168614000Y-147870702D02*
X169280702Y-147204000D01*
X208540000Y-152330000D02*
X208540000Y-153530000D01*
X181844000Y-147204000D02*
X181950000Y-147310000D01*
X236266935Y-152330000D02*
X238062935Y-154126000D01*
X150540000Y-152330000D02*
X150540000Y-153530000D01*
X217426935Y-152330000D02*
X219222935Y-154126000D01*
X238062935Y-154126000D02*
X244744000Y-154126000D01*
X169540000Y-152330000D02*
X168614000Y-151404000D01*
X102426935Y-152330000D02*
X104222935Y-154126000D01*
X255266935Y-152330000D02*
X257062935Y-154126000D01*
X225744000Y-154126000D02*
X227540000Y-152330000D01*
X263744000Y-154126000D02*
X265540000Y-152330000D01*
X168614000Y-151404000D02*
X168614000Y-147870702D01*
X104222935Y-154126000D02*
X110744000Y-154126000D01*
X112540000Y-152330000D02*
X121426935Y-152330000D01*
X142222935Y-154126000D02*
X148744000Y-154126000D01*
%TO.N,P18*%
X282744000Y-135126000D02*
X284540000Y-133330000D01*
X227540000Y-133330000D02*
X236426935Y-133330000D01*
X236426935Y-133330000D02*
X238222935Y-135126000D01*
X110744000Y-135126000D02*
X112540000Y-133330000D01*
X159426935Y-133330000D02*
X161222935Y-135126000D01*
X238222935Y-135126000D02*
X244744000Y-135126000D01*
X148744000Y-135126000D02*
X150540000Y-133330000D01*
X112540000Y-133330000D02*
X112540000Y-134530000D01*
X104222935Y-135126000D02*
X110744000Y-135126000D01*
X246540000Y-133330000D02*
X255426935Y-133330000D01*
X112540000Y-133330000D02*
X121266935Y-133330000D01*
X217426935Y-133330000D02*
X219222935Y-135126000D01*
X121266935Y-133330000D02*
X123062935Y-135126000D01*
X244744000Y-135126000D02*
X246540000Y-133330000D01*
X102426935Y-133330000D02*
X104222935Y-135126000D01*
X284540000Y-133330000D02*
X284540000Y-134530000D01*
X219222935Y-135126000D02*
X225744000Y-135126000D01*
X255426935Y-133330000D02*
X257222935Y-135126000D01*
X161222935Y-135126000D02*
X167744000Y-135126000D01*
X131540000Y-133330000D02*
X140426935Y-133330000D01*
X225744000Y-135126000D02*
X227540000Y-133330000D01*
X150540000Y-133330000D02*
X159426935Y-133330000D01*
X208540000Y-133330000D02*
X217426935Y-133330000D01*
X177053247Y-133330000D02*
X179397247Y-135674000D01*
X169540000Y-133330000D02*
X177053247Y-133330000D01*
X199404000Y-133796000D02*
X203120000Y-130080000D01*
X274426935Y-133330000D02*
X276222935Y-135126000D01*
X131540000Y-133330000D02*
X131540000Y-134530000D01*
X276222935Y-135126000D02*
X282744000Y-135126000D01*
X265540000Y-133330000D02*
X265540000Y-134530000D01*
X169540000Y-133330000D02*
X169540000Y-134530000D01*
X123062935Y-135126000D02*
X129744000Y-135126000D01*
X246540000Y-133330000D02*
X246540000Y-134530000D01*
X142222935Y-135126000D02*
X148744000Y-135126000D01*
X150540000Y-133330000D02*
X150540000Y-134530000D01*
X227540000Y-133330000D02*
X227540000Y-134530000D01*
X187580884Y-133796000D02*
X199404000Y-133796000D01*
X208540000Y-133330000D02*
X208540000Y-134530000D01*
X179397247Y-135674000D02*
X185702884Y-135674000D01*
X140426935Y-133330000D02*
X142222935Y-135126000D01*
X257222935Y-135126000D02*
X263744000Y-135126000D01*
X93540000Y-133330000D02*
X93540000Y-134530000D01*
X185702884Y-135674000D02*
X187580884Y-133796000D01*
X265540000Y-133330000D02*
X274426935Y-133330000D01*
X129744000Y-135126000D02*
X131540000Y-133330000D01*
X167744000Y-135126000D02*
X169540000Y-133330000D01*
X93540000Y-133330000D02*
X102426935Y-133330000D01*
X263744000Y-135126000D02*
X265540000Y-133330000D01*
%TO.N,P19*%
X179126000Y-117776000D02*
X182634000Y-121284000D01*
X131540000Y-114330000D02*
X140426935Y-114330000D01*
X148744000Y-116126000D02*
X150540000Y-114330000D01*
X282744000Y-116126000D02*
X284540000Y-114330000D01*
X112540000Y-114330000D02*
X112540000Y-115530000D01*
X246540000Y-114330000D02*
X246540000Y-115530000D01*
X167744000Y-116126000D02*
X169540000Y-114330000D01*
X121426935Y-114330000D02*
X123222935Y-116126000D01*
X169540000Y-114330000D02*
X176750832Y-114330000D01*
X227540000Y-114330000D02*
X236426935Y-114330000D01*
X150540000Y-114330000D02*
X159426935Y-114330000D01*
X238222935Y-116126000D02*
X244744000Y-116126000D01*
X276222935Y-116126000D02*
X282744000Y-116126000D01*
X208540000Y-114330000D02*
X208540000Y-115530000D01*
X169540000Y-114330000D02*
X169540000Y-115530000D01*
X265540000Y-114330000D02*
X274426935Y-114330000D01*
X123222935Y-116126000D02*
X129744000Y-116126000D01*
X274426935Y-114330000D02*
X276222935Y-116126000D01*
X227540000Y-114330000D02*
X227540000Y-115530000D01*
X255426935Y-114330000D02*
X257222935Y-116126000D01*
X208540000Y-114330000D02*
X217266935Y-114330000D01*
X196864000Y-121284000D02*
X203120000Y-127540000D01*
X150540000Y-114330000D02*
X150540000Y-115530000D01*
X236426935Y-114330000D02*
X238222935Y-116126000D01*
X203120000Y-127540000D02*
X204296000Y-126364000D01*
X159426935Y-114330000D02*
X161222935Y-116126000D01*
X110744000Y-116126000D02*
X112540000Y-114330000D01*
X140426935Y-114330000D02*
X142222935Y-116126000D01*
X104222935Y-116126000D02*
X110744000Y-116126000D01*
X182634000Y-121284000D02*
X196864000Y-121284000D01*
X217266935Y-114330000D02*
X219062935Y-116126000D01*
X131540000Y-114330000D02*
X131540000Y-115530000D01*
X204296000Y-126364000D02*
X204296000Y-118574000D01*
X142222935Y-116126000D02*
X148744000Y-116126000D01*
X93540000Y-114330000D02*
X102426935Y-114330000D01*
X112540000Y-114330000D02*
X121426935Y-114330000D01*
X263744000Y-116126000D02*
X265540000Y-114330000D01*
X246540000Y-114330000D02*
X255426935Y-114330000D01*
X129744000Y-116126000D02*
X131540000Y-114330000D01*
X93540000Y-114330000D02*
X93540000Y-115530000D01*
X161222935Y-116126000D02*
X167744000Y-116126000D01*
X176750832Y-114330000D02*
X179126000Y-116705168D01*
X219062935Y-116126000D02*
X225744000Y-116126000D01*
X257222935Y-116126000D02*
X263744000Y-116126000D01*
X102426935Y-114330000D02*
X104222935Y-116126000D01*
X265540000Y-114330000D02*
X265540000Y-115530000D01*
X204296000Y-118574000D02*
X208540000Y-114330000D01*
X225744000Y-116126000D02*
X227540000Y-114330000D01*
X284540000Y-114330000D02*
X284540000Y-115530000D01*
X244744000Y-116126000D02*
X246540000Y-114330000D01*
X179126000Y-116705168D02*
X179126000Y-117776000D01*
%TO.N,P14*%
X211459908Y-139624000D02*
X212800000Y-140964092D01*
X169540000Y-171330000D02*
X169540000Y-172530000D01*
X206180000Y-135160000D02*
X206220000Y-135120000D01*
X167744000Y-173126000D02*
X169540000Y-171330000D01*
X184950000Y-156800000D02*
X184950000Y-145470000D01*
X210730000Y-135130000D02*
X211459908Y-135859908D01*
X175810702Y-159674000D02*
X182076000Y-159674000D01*
X203120000Y-135160000D02*
X206180000Y-135160000D01*
X217266935Y-171330000D02*
X219062935Y-173126000D01*
X225744000Y-173126000D02*
X227540000Y-171330000D01*
X168614000Y-166870702D02*
X175810702Y-159674000D01*
X211459908Y-135859908D02*
X211459908Y-139624000D01*
X150540000Y-171330000D02*
X150540000Y-172530000D01*
X168614000Y-170404000D02*
X168614000Y-166870702D01*
X150540000Y-171330000D02*
X159426935Y-171330000D01*
X219062935Y-173126000D02*
X225744000Y-173126000D01*
X208540000Y-171330000D02*
X217266935Y-171330000D01*
X227540000Y-171330000D02*
X227540000Y-172530000D01*
X161222935Y-173126000D02*
X167744000Y-173126000D01*
X159426935Y-171330000D02*
X161222935Y-173126000D01*
X169540000Y-171330000D02*
X168614000Y-170404000D01*
X212800000Y-140964092D02*
X212800000Y-142710000D01*
X208540000Y-171330000D02*
X208540000Y-172530000D01*
X182076000Y-159674000D02*
X184950000Y-156800000D01*
%TD*%
M02*
