%TF.GenerationSoftware,KiCad,Pcbnew,9.0.1*%
%TF.CreationDate,2025-05-04T05:17:47+08:00*%
%TF.ProjectId,board,626f6172-642e-46b6-9963-61645f706362,v1.0.0*%
%TF.SameCoordinates,Original*%
%TF.FileFunction,Soldermask,Top*%
%TF.FilePolarity,Negative*%
%FSLAX46Y46*%
G04 Gerber Fmt 4.6, Leading zero omitted, Abs format (unit mm)*
G04 Created by KiCad (PCBNEW 9.0.1) date 2025-05-04 05:17:47*
%MOMM*%
%LPD*%
G01*
G04 APERTURE LIST*
G04 Aperture macros list*
%AMRoundRect*
0 Rectangle with rounded corners*
0 $1 Rounding radius*
0 $2 $3 $4 $5 $6 $7 $8 $9 X,Y pos of 4 corners*
0 Add a 4 corners polygon primitive as box body*
4,1,4,$2,$3,$4,$5,$6,$7,$8,$9,$2,$3,0*
0 Add four circle primitives for the rounded corners*
1,1,$1+$1,$2,$3*
1,1,$1+$1,$4,$5*
1,1,$1+$1,$6,$7*
1,1,$1+$1,$8,$9*
0 Add four rect primitives between the rounded corners*
20,1,$1+$1,$2,$3,$4,$5,0*
20,1,$1+$1,$4,$5,$6,$7,0*
20,1,$1+$1,$6,$7,$8,$9,0*
20,1,$1+$1,$8,$9,$2,$3,0*%
G04 Aperture macros list end*
%ADD10C,1.800000*%
%ADD11RoundRect,0.050000X-0.450000X-0.600000X0.450000X-0.600000X0.450000X0.600000X-0.450000X0.600000X0*%
%ADD12C,3.100000*%
%ADD13C,5.100000*%
%ADD14C,0.850000*%
%ADD15C,1.000000*%
G04 APERTURE END LIST*
D10*
%TO.C,MCU1*%
X187880000Y-112460000D03*
X187880000Y-115000000D03*
X187880000Y-117540000D03*
X187880000Y-120080000D03*
X187880000Y-122620000D03*
X187880000Y-125160000D03*
X187880000Y-127700000D03*
X187880000Y-130240000D03*
X187880000Y-132780000D03*
X187880000Y-135320000D03*
X187880000Y-137860000D03*
X187880000Y-140400000D03*
X203120000Y-140400000D03*
X203120000Y-137860000D03*
X203120000Y-135320000D03*
X203120000Y-132780000D03*
X203120000Y-130240000D03*
X203120000Y-127700000D03*
X203120000Y-125160000D03*
X203120000Y-122620000D03*
X203120000Y-120080000D03*
X203120000Y-117540000D03*
X203120000Y-115000000D03*
X203120000Y-112460000D03*
%TD*%
D11*
%TO.C,D23*%
X232350000Y-161320000D03*
X235650000Y-161320000D03*
%TD*%
%TO.C,D13*%
X155350000Y-123320000D03*
X158650000Y-123320000D03*
%TD*%
%TO.C,D10*%
X155350000Y-180320000D03*
X158650000Y-180320000D03*
%TD*%
%TO.C,D31*%
X270350000Y-123320000D03*
X273650000Y-123320000D03*
%TD*%
%TO.C,D33*%
X289350000Y-142320000D03*
X292650000Y-142320000D03*
%TD*%
%TO.C,D29*%
X270350000Y-161320000D03*
X273650000Y-161320000D03*
%TD*%
%TO.C,D9*%
X136350000Y-123320000D03*
X139650000Y-123320000D03*
%TD*%
%TO.C,D1*%
X98350000Y-161320000D03*
X101650000Y-161320000D03*
%TD*%
%TO.C,D32*%
X289350000Y-161320000D03*
X292650000Y-161320000D03*
%TD*%
%TO.C,D17*%
X174350000Y-123320000D03*
X177650000Y-123320000D03*
%TD*%
%TO.C,D6*%
X117350000Y-123320000D03*
X120650000Y-123320000D03*
%TD*%
%TO.C,D18*%
X213350000Y-180320000D03*
X216650000Y-180320000D03*
%TD*%
%TO.C,D20*%
X213350000Y-142320000D03*
X216650000Y-142320000D03*
%TD*%
%TO.C,D2*%
X98350000Y-142320000D03*
X101650000Y-142320000D03*
%TD*%
%TO.C,D4*%
X117350000Y-161320000D03*
X120650000Y-161320000D03*
%TD*%
%TO.C,D25*%
X232350000Y-123320000D03*
X235650000Y-123320000D03*
%TD*%
%TO.C,D21*%
X213350000Y-123320000D03*
X216650000Y-123320000D03*
%TD*%
%TO.C,D8*%
X136350000Y-142320000D03*
X139650000Y-142320000D03*
%TD*%
%TO.C,D19*%
X213350000Y-161320000D03*
X216650000Y-161320000D03*
%TD*%
%TO.C,D5*%
X117350000Y-142320000D03*
X120650000Y-142320000D03*
%TD*%
%TO.C,D3*%
X98350000Y-123320000D03*
X101650000Y-123320000D03*
%TD*%
%TO.C,D16*%
X174350000Y-142320000D03*
X177650000Y-142320000D03*
%TD*%
%TO.C,D7*%
X136350000Y-161320000D03*
X139650000Y-161320000D03*
%TD*%
%TO.C,D15*%
X174350000Y-161320000D03*
X177650000Y-161320000D03*
%TD*%
%TO.C,D22*%
X232350000Y-180320000D03*
X235650000Y-180320000D03*
%TD*%
%TO.C,D34*%
X289350000Y-123320000D03*
X292650000Y-123320000D03*
%TD*%
%TO.C,D11*%
X155350000Y-161320000D03*
X158650000Y-161320000D03*
%TD*%
%TO.C,D14*%
X174350000Y-180320000D03*
X177650000Y-180320000D03*
%TD*%
%TO.C,D24*%
X232350000Y-142320000D03*
X235650000Y-142320000D03*
%TD*%
%TO.C,D26*%
X251350000Y-161320000D03*
X254650000Y-161320000D03*
%TD*%
%TO.C,D28*%
X251350000Y-123320000D03*
X254650000Y-123320000D03*
%TD*%
%TO.C,D30*%
X270350000Y-142320000D03*
X273650000Y-142320000D03*
%TD*%
%TO.C,D12*%
X155350000Y-142320000D03*
X158650000Y-142320000D03*
%TD*%
%TO.C,D27*%
X251350000Y-142320000D03*
X254650000Y-142320000D03*
%TD*%
D12*
%TO.C,S11*%
X157000000Y-150050000D03*
D13*
X157000000Y-156000000D03*
D12*
X162000000Y-152250000D03*
%TD*%
%TO.C,S34*%
X291000000Y-112050000D03*
D13*
X291000000Y-118000000D03*
D12*
X296000000Y-114250000D03*
%TD*%
%TO.C,S24*%
X234000000Y-131050000D03*
D13*
X234000000Y-137000000D03*
D12*
X239000000Y-133250000D03*
%TD*%
%TO.C,S25*%
X234000000Y-112050000D03*
D13*
X234000000Y-118000000D03*
D12*
X239000000Y-114250000D03*
%TD*%
%TO.C,S3*%
X100000000Y-112050000D03*
D13*
X100000000Y-118000000D03*
D12*
X105000000Y-114250000D03*
%TD*%
%TO.C,S14*%
X176000000Y-169050000D03*
D13*
X176000000Y-175000000D03*
D12*
X181000000Y-171250000D03*
%TD*%
%TO.C,S6*%
X119000000Y-112050000D03*
D13*
X119000000Y-118000000D03*
D12*
X124000000Y-114250000D03*
%TD*%
%TO.C,S20*%
X215000000Y-131050000D03*
D13*
X215000000Y-137000000D03*
D12*
X220000000Y-133250000D03*
%TD*%
%TO.C,S23*%
X234000000Y-150050000D03*
D13*
X234000000Y-156000000D03*
D12*
X239000000Y-152250000D03*
%TD*%
%TO.C,S10*%
X157000000Y-169050000D03*
D13*
X157000000Y-175000000D03*
D12*
X162000000Y-171250000D03*
%TD*%
%TO.C,S26*%
X253000000Y-150050000D03*
D13*
X253000000Y-156000000D03*
D12*
X258000000Y-152250000D03*
%TD*%
D14*
%TO.C,RST1*%
X201975000Y-108575000D03*
X201975000Y-111325000D03*
%TD*%
D12*
%TO.C,S8*%
X138000000Y-131050000D03*
D13*
X138000000Y-137000000D03*
D12*
X143000000Y-133250000D03*
%TD*%
%TO.C,S18*%
X215000000Y-169050000D03*
D13*
X215000000Y-175000000D03*
D12*
X220000000Y-171250000D03*
%TD*%
%TO.C,S33*%
X291000000Y-131050000D03*
D13*
X291000000Y-137000000D03*
D12*
X296000000Y-133250000D03*
%TD*%
D15*
%TO.C,PWR1*%
X187240000Y-109725000D03*
X190240000Y-109725000D03*
%TD*%
D12*
%TO.C,S13*%
X157000000Y-112050000D03*
D13*
X157000000Y-118000000D03*
D12*
X162000000Y-114250000D03*
%TD*%
%TO.C,S1*%
X100000000Y-150050000D03*
D13*
X100000000Y-156000000D03*
D12*
X105000000Y-152250000D03*
%TD*%
%TO.C,S19*%
X215000000Y-150050000D03*
D13*
X215000000Y-156000000D03*
D12*
X220000000Y-152250000D03*
%TD*%
%TO.C,S30*%
X272000000Y-131050000D03*
D13*
X272000000Y-137000000D03*
D12*
X277000000Y-133250000D03*
%TD*%
%TO.C,S21*%
X215000000Y-112050000D03*
D13*
X215000000Y-118000000D03*
D12*
X220000000Y-114250000D03*
%TD*%
%TO.C,S5*%
X119000000Y-131050000D03*
D13*
X119000000Y-137000000D03*
D12*
X124000000Y-133250000D03*
%TD*%
%TO.C,S12*%
X157000000Y-131050000D03*
D13*
X157000000Y-137000000D03*
D12*
X162000000Y-133250000D03*
%TD*%
%TO.C,S28*%
X253000000Y-112050000D03*
D13*
X253000000Y-118000000D03*
D12*
X258000000Y-114250000D03*
%TD*%
%TO.C,S9*%
X138000000Y-112050000D03*
D13*
X138000000Y-118000000D03*
D12*
X143000000Y-114250000D03*
%TD*%
%TO.C,S22*%
X234000000Y-169050000D03*
D13*
X234000000Y-175000000D03*
D12*
X239000000Y-171250000D03*
%TD*%
%TO.C,S29*%
X272000000Y-150050000D03*
D13*
X272000000Y-156000000D03*
D12*
X277000000Y-152250000D03*
%TD*%
%TO.C,S15*%
X176000000Y-150050000D03*
D13*
X176000000Y-156000000D03*
D12*
X181000000Y-152250000D03*
%TD*%
%TO.C,S17*%
X176000000Y-112050000D03*
D13*
X176000000Y-118000000D03*
D12*
X181000000Y-114250000D03*
%TD*%
%TO.C,S31*%
X272000000Y-112050000D03*
D13*
X272000000Y-118000000D03*
D12*
X277000000Y-114250000D03*
%TD*%
%TO.C,S32*%
X291000000Y-150050000D03*
D13*
X291000000Y-156000000D03*
D12*
X296000000Y-152250000D03*
%TD*%
%TO.C,S7*%
X138000000Y-150050000D03*
D13*
X138000000Y-156000000D03*
D12*
X143000000Y-152250000D03*
%TD*%
%TO.C,S2*%
X100000000Y-131050000D03*
D13*
X100000000Y-137000000D03*
D12*
X105000000Y-133250000D03*
%TD*%
%TO.C,S27*%
X253000000Y-131050000D03*
D13*
X253000000Y-137000000D03*
D12*
X258000000Y-133250000D03*
%TD*%
%TO.C,S4*%
X119000000Y-150050000D03*
D13*
X119000000Y-156000000D03*
D12*
X124000000Y-152250000D03*
%TD*%
%TO.C,S16*%
X176000000Y-131050000D03*
D13*
X176000000Y-137000000D03*
D12*
X181000000Y-133250000D03*
%TD*%
M02*
