M48
; DRILL file {KiCad 9.0.1} date 2025-05-04T05:17:49+0800
; FORMAT={-:-/ absolute / metric / decimal}
; #@! TF.CreationDate,2025-05-04T05:17:49+08:00
; #@! TF.GenerationSoftware,Kicad,Pcbnew,9.0.1
; #@! TF.FileFunction,NonPlated,1,2,NPTH
FMAT,2
METRIC
; #@! TA.AperFunction,NonPlated,NPTH,ComponentDrill
T1C0.750
; #@! TA.AperFunction,NonPlated,NPTH,ComponentDrill
T2C0.900
; #@! TA.AperFunction,NonPlated,NPTH,ComponentDrill
T3C3.000
; #@! TA.AperFunction,NonPlated,NPTH,ComponentDrill
T4C5.000
%
G90
G05
T1
X201.975Y-108.575
X201.975Y-111.325
T2
X187.24Y-109.725
X190.24Y-109.725
T3
X100.0Y-112.05
X100.0Y-131.05
X100.0Y-150.05
X105.0Y-114.25
X105.0Y-133.25
X105.0Y-152.25
X119.0Y-112.05
X119.0Y-131.05
X119.0Y-150.05
X124.0Y-114.25
X124.0Y-133.25
X124.0Y-152.25
X138.0Y-112.05
X138.0Y-131.05
X138.0Y-150.05
X143.0Y-114.25
X143.0Y-133.25
X143.0Y-152.25
X157.0Y-112.05
X157.0Y-131.05
X157.0Y-150.05
X157.0Y-169.05
X162.0Y-114.25
X162.0Y-133.25
X162.0Y-152.25
X162.0Y-171.25
X176.0Y-112.05
X176.0Y-131.05
X176.0Y-150.05
X176.0Y-169.05
X181.0Y-114.25
X181.0Y-133.25
X181.0Y-152.25
X181.0Y-171.25
X215.0Y-112.05
X215.0Y-131.05
X215.0Y-150.05
X215.0Y-169.05
X220.0Y-114.25
X220.0Y-133.25
X220.0Y-152.25
X220.0Y-171.25
X234.0Y-112.05
X234.0Y-131.05
X234.0Y-150.05
X234.0Y-169.05
X239.0Y-114.25
X239.0Y-133.25
X239.0Y-152.25
X239.0Y-171.25
X253.0Y-112.05
X253.0Y-131.05
X253.0Y-150.05
X258.0Y-114.25
X258.0Y-133.25
X258.0Y-152.25
X272.0Y-112.05
X272.0Y-131.05
X272.0Y-150.05
X277.0Y-114.25
X277.0Y-133.25
X277.0Y-152.25
X291.0Y-112.05
X291.0Y-131.05
X291.0Y-150.05
X296.0Y-114.25
X296.0Y-133.25
X296.0Y-152.25
T4
X100.0Y-118.0
X100.0Y-137.0
X100.0Y-156.0
X119.0Y-118.0
X119.0Y-137.0
X119.0Y-156.0
X138.0Y-118.0
X138.0Y-137.0
X138.0Y-156.0
X157.0Y-118.0
X157.0Y-137.0
X157.0Y-156.0
X157.0Y-175.0
X176.0Y-118.0
X176.0Y-137.0
X176.0Y-156.0
X176.0Y-175.0
X215.0Y-118.0
X215.0Y-137.0
X215.0Y-156.0
X215.0Y-175.0
X234.0Y-118.0
X234.0Y-137.0
X234.0Y-156.0
X234.0Y-175.0
X253.0Y-118.0
X253.0Y-137.0
X253.0Y-156.0
X272.0Y-118.0
X272.0Y-137.0
X272.0Y-156.0
X291.0Y-118.0
X291.0Y-137.0
X291.0Y-156.0
M30
