M48
; DRILL file {KiCad 9.0.1} date 2025-05-05T07:00:40+0800
; FORMAT={-:-/ absolute / metric / decimal}
; #@! TF.CreationDate,2025-05-05T07:00:40+08:00
; #@! TF.GenerationSoftware,Kicad,Pcbnew,9.0.1
; #@! TF.FileFunction,Plated,1,2,PTH
FMAT,2
METRIC
; #@! TA.AperFunction,Plated,PTH,ViaDrill
T1C0.100
; #@! TA.AperFunction,Plated,PTH,ViaDrill
T2C0.300
; #@! TA.AperFunction,Plated,PTH,ComponentDrill
T3C1.000
; #@! TA.AperFunction,Plated,PTH,ComponentDrill
T4C3.000
; #@! TA.AperFunction,Plated,PTH,ComponentDrill
T5C5.100
%
G90
G05
T1
X108.275Y-114.25
T2
X93.54Y-109.83
X93.54Y-115.53
X93.54Y-128.83
X93.54Y-134.53
X93.54Y-147.83
X93.54Y-153.53
X96.725Y-126.775
X108.275Y-133.25
X108.275Y-152.25
X112.54Y-109.83
X112.54Y-115.53
X112.54Y-128.83
X112.54Y-134.53
X112.54Y-147.83
X112.54Y-153.53
X115.725Y-126.86
X127.275Y-114.25
X127.275Y-133.25
X127.275Y-152.25
X131.54Y-109.83
X131.54Y-115.53
X131.54Y-128.83
X131.54Y-134.53
X131.54Y-147.83
X131.54Y-153.53
X134.725Y-127.13
X146.275Y-114.25
X146.275Y-133.25
X146.275Y-152.25
X150.54Y-109.83
X150.54Y-115.53
X150.54Y-128.83
X150.54Y-134.53
X150.54Y-147.83
X150.54Y-153.53
X150.54Y-166.83
X150.54Y-172.53
X153.725Y-127.78
X165.275Y-114.25
X165.275Y-133.25
X165.275Y-152.25
X165.275Y-171.25
X169.54Y-109.83
X169.54Y-115.53
X169.54Y-128.83
X169.54Y-134.53
X169.54Y-147.83
X169.54Y-153.53
X169.54Y-166.83
X169.54Y-172.53
X172.725Y-128.33
X181.95Y-147.31
X184.275Y-114.25
X184.275Y-133.25
X184.275Y-152.25
X184.275Y-171.25
X184.95Y-145.47
X206.22Y-135.12
X207.46Y-141.72
X208.54Y-109.83
X208.54Y-115.53
X208.54Y-128.83
X208.54Y-134.53
X208.54Y-147.83
X208.54Y-153.53
X208.54Y-166.83
X208.54Y-172.53
X210.73Y-135.13
X212.8Y-142.71
X223.275Y-114.25
X223.275Y-133.25
X223.275Y-152.25
X223.275Y-171.25
X226.68Y-141.91
X227.54Y-109.83
X227.54Y-115.53
X227.54Y-128.83
X227.54Y-134.53
X227.54Y-147.83
X227.54Y-153.53
X227.54Y-166.83
X227.54Y-172.53
X242.275Y-114.25
X242.275Y-133.25
X242.275Y-152.25
X242.275Y-171.25
X245.6Y-141.81
X246.54Y-109.83
X246.54Y-115.53
X246.54Y-128.83
X246.54Y-134.53
X246.54Y-147.83
X246.54Y-153.53
X261.275Y-114.25
X261.275Y-133.25
X261.275Y-152.25
X265.54Y-109.83
X265.54Y-115.53
X265.54Y-128.83
X265.54Y-134.53
X265.54Y-147.83
X265.54Y-153.53
X268.725Y-131.21
X268.725Y-131.21
X280.275Y-114.25
X280.275Y-133.25
X280.275Y-152.25
X284.54Y-109.83
X284.54Y-115.53
X284.54Y-128.83
X284.54Y-134.53
X284.54Y-147.83
X284.54Y-153.53
X287.85Y-130.96
X299.275Y-114.25
X299.275Y-133.25
X299.275Y-152.25
T3
X187.88Y-112.3
X187.88Y-114.84
X187.88Y-117.38
X187.88Y-119.92
X187.88Y-122.46
X187.88Y-125.0
X187.88Y-127.54
X187.88Y-130.08
X187.88Y-132.62
X187.88Y-135.16
X187.88Y-137.7
X187.88Y-140.24
X203.12Y-112.3
X203.12Y-114.84
X203.12Y-117.38
X203.12Y-119.92
X203.12Y-122.46
X203.12Y-125.0
X203.12Y-127.54
X203.12Y-130.08
X203.12Y-132.62
X203.12Y-135.16
X203.12Y-137.7
X203.12Y-140.24
T4
X95.6Y-122.7
X95.6Y-141.7
X95.6Y-160.7
X102.6Y-123.75
X102.6Y-142.75
X102.6Y-161.75
X114.6Y-122.7
X114.6Y-141.7
X114.6Y-160.7
X121.6Y-123.75
X121.6Y-142.75
X121.6Y-161.75
X133.6Y-122.7
X133.6Y-141.7
X133.6Y-160.7
X140.6Y-123.75
X140.6Y-142.75
X140.6Y-161.75
X152.6Y-122.7
X152.6Y-141.7
X152.6Y-160.7
X152.6Y-179.7
X159.6Y-123.75
X159.6Y-142.75
X159.6Y-161.75
X159.6Y-180.75
X171.6Y-122.7
X171.6Y-141.7
X171.6Y-160.7
X171.6Y-179.7
X178.6Y-123.75
X178.6Y-142.75
X178.6Y-161.75
X178.6Y-180.75
X210.6Y-122.7
X210.6Y-141.7
X210.6Y-160.7
X210.6Y-179.7
X217.6Y-123.75
X217.6Y-142.75
X217.6Y-161.75
X217.6Y-180.75
X229.6Y-122.7
X229.6Y-141.7
X229.6Y-160.7
X229.6Y-179.7
X236.6Y-123.75
X236.6Y-142.75
X236.6Y-161.75
X236.6Y-180.75
X248.6Y-122.7
X248.6Y-141.7
X248.6Y-160.7
X255.6Y-123.75
X255.6Y-142.75
X255.6Y-161.75
X267.6Y-122.7
X267.6Y-141.7
X267.6Y-160.7
X274.6Y-123.75
X274.6Y-142.75
X274.6Y-161.75
X286.6Y-122.7
X286.6Y-141.7
X286.6Y-160.7
X293.6Y-123.75
X293.6Y-142.75
X293.6Y-161.75
T5
X100.0Y-118.0
X100.0Y-137.0
X100.0Y-156.0
X119.0Y-118.0
X119.0Y-137.0
X119.0Y-156.0
X138.0Y-118.0
X138.0Y-137.0
X138.0Y-156.0
X157.0Y-118.0
X157.0Y-137.0
X157.0Y-156.0
X157.0Y-175.0
X176.0Y-118.0
X176.0Y-137.0
X176.0Y-156.0
X176.0Y-175.0
X215.0Y-118.0
X215.0Y-137.0
X215.0Y-156.0
X215.0Y-175.0
X234.0Y-118.0
X234.0Y-137.0
X234.0Y-156.0
X234.0Y-175.0
X253.0Y-118.0
X253.0Y-137.0
X253.0Y-156.0
X272.0Y-118.0
X272.0Y-137.0
X272.0Y-156.0
X291.0Y-118.0
X291.0Y-137.0
X291.0Y-156.0
M30
