%TF.GenerationSoftware,KiCad,Pcbnew,9.0.1*%
%TF.CreationDate,2025-05-05T17:51:07+08:00*%
%TF.ProjectId,board,626f6172-642e-46b6-9963-61645f706362,v1.0.0*%
%TF.SameCoordinates,Original*%
%TF.FileFunction,Legend,Bot*%
%TF.FilePolarity,Positive*%
%FSLAX46Y46*%
G04 Gerber Fmt 4.6, Leading zero omitted, Abs format (unit mm)*
G04 Created by KiCad (PCBNEW 9.0.1) date 2025-05-05 17:51:07*
%MOMM*%
%LPD*%
G01*
G04 APERTURE LIST*
%ADD10C,0.300000*%
%ADD11C,0.150000*%
%ADD12C,0.100000*%
%ADD13C,0.120000*%
G04 APERTURE END LIST*
D10*
X202466917Y-141500828D02*
X202466917Y-142572257D01*
X202466917Y-142572257D02*
X202538346Y-142786542D01*
X202538346Y-142786542D02*
X202681203Y-142929400D01*
X202681203Y-142929400D02*
X202895489Y-143000828D01*
X202895489Y-143000828D02*
X203038346Y-143000828D01*
X201038346Y-143000828D02*
X201752632Y-143000828D01*
X201752632Y-143000828D02*
X201752632Y-141500828D01*
X199681203Y-142857971D02*
X199752631Y-142929400D01*
X199752631Y-142929400D02*
X199966917Y-143000828D01*
X199966917Y-143000828D02*
X200109774Y-143000828D01*
X200109774Y-143000828D02*
X200324060Y-142929400D01*
X200324060Y-142929400D02*
X200466917Y-142786542D01*
X200466917Y-142786542D02*
X200538346Y-142643685D01*
X200538346Y-142643685D02*
X200609774Y-142357971D01*
X200609774Y-142357971D02*
X200609774Y-142143685D01*
X200609774Y-142143685D02*
X200538346Y-141857971D01*
X200538346Y-141857971D02*
X200466917Y-141715114D01*
X200466917Y-141715114D02*
X200324060Y-141572257D01*
X200324060Y-141572257D02*
X200109774Y-141500828D01*
X200109774Y-141500828D02*
X199966917Y-141500828D01*
X199966917Y-141500828D02*
X199752631Y-141572257D01*
X199752631Y-141572257D02*
X199681203Y-141643685D01*
X198609774Y-141500828D02*
X198609774Y-142572257D01*
X198609774Y-142572257D02*
X198681203Y-142786542D01*
X198681203Y-142786542D02*
X198824060Y-142929400D01*
X198824060Y-142929400D02*
X199038346Y-143000828D01*
X199038346Y-143000828D02*
X199181203Y-143000828D01*
X197181203Y-143000828D02*
X197895489Y-143000828D01*
X197895489Y-143000828D02*
X197895489Y-141500828D01*
X195824060Y-142857971D02*
X195895488Y-142929400D01*
X195895488Y-142929400D02*
X196109774Y-143000828D01*
X196109774Y-143000828D02*
X196252631Y-143000828D01*
X196252631Y-143000828D02*
X196466917Y-142929400D01*
X196466917Y-142929400D02*
X196609774Y-142786542D01*
X196609774Y-142786542D02*
X196681203Y-142643685D01*
X196681203Y-142643685D02*
X196752631Y-142357971D01*
X196752631Y-142357971D02*
X196752631Y-142143685D01*
X196752631Y-142143685D02*
X196681203Y-141857971D01*
X196681203Y-141857971D02*
X196609774Y-141715114D01*
X196609774Y-141715114D02*
X196466917Y-141572257D01*
X196466917Y-141572257D02*
X196252631Y-141500828D01*
X196252631Y-141500828D02*
X196109774Y-141500828D01*
X196109774Y-141500828D02*
X195895488Y-141572257D01*
X195895488Y-141572257D02*
X195824060Y-141643685D01*
X194752631Y-141500828D02*
X194752631Y-142572257D01*
X194752631Y-142572257D02*
X194824060Y-142786542D01*
X194824060Y-142786542D02*
X194966917Y-142929400D01*
X194966917Y-142929400D02*
X195181203Y-143000828D01*
X195181203Y-143000828D02*
X195324060Y-143000828D01*
X193324060Y-143000828D02*
X194038346Y-143000828D01*
X194038346Y-143000828D02*
X194038346Y-141500828D01*
X191966917Y-142857971D02*
X192038345Y-142929400D01*
X192038345Y-142929400D02*
X192252631Y-143000828D01*
X192252631Y-143000828D02*
X192395488Y-143000828D01*
X192395488Y-143000828D02*
X192609774Y-142929400D01*
X192609774Y-142929400D02*
X192752631Y-142786542D01*
X192752631Y-142786542D02*
X192824060Y-142643685D01*
X192824060Y-142643685D02*
X192895488Y-142357971D01*
X192895488Y-142357971D02*
X192895488Y-142143685D01*
X192895488Y-142143685D02*
X192824060Y-141857971D01*
X192824060Y-141857971D02*
X192752631Y-141715114D01*
X192752631Y-141715114D02*
X192609774Y-141572257D01*
X192609774Y-141572257D02*
X192395488Y-141500828D01*
X192395488Y-141500828D02*
X192252631Y-141500828D01*
X192252631Y-141500828D02*
X192038345Y-141572257D01*
X192038345Y-141572257D02*
X191966917Y-141643685D01*
X190895488Y-141500828D02*
X190895488Y-142572257D01*
X190895488Y-142572257D02*
X190966917Y-142786542D01*
X190966917Y-142786542D02*
X191109774Y-142929400D01*
X191109774Y-142929400D02*
X191324060Y-143000828D01*
X191324060Y-143000828D02*
X191466917Y-143000828D01*
X189466917Y-143000828D02*
X190181203Y-143000828D01*
X190181203Y-143000828D02*
X190181203Y-141500828D01*
X188109774Y-142857971D02*
X188181202Y-142929400D01*
X188181202Y-142929400D02*
X188395488Y-143000828D01*
X188395488Y-143000828D02*
X188538345Y-143000828D01*
X188538345Y-143000828D02*
X188752631Y-142929400D01*
X188752631Y-142929400D02*
X188895488Y-142786542D01*
X188895488Y-142786542D02*
X188966917Y-142643685D01*
X188966917Y-142643685D02*
X189038345Y-142357971D01*
X189038345Y-142357971D02*
X189038345Y-142143685D01*
X189038345Y-142143685D02*
X188966917Y-141857971D01*
X188966917Y-141857971D02*
X188895488Y-141715114D01*
X188895488Y-141715114D02*
X188752631Y-141572257D01*
X188752631Y-141572257D02*
X188538345Y-141500828D01*
X188538345Y-141500828D02*
X188395488Y-141500828D01*
X188395488Y-141500828D02*
X188181202Y-141572257D01*
X188181202Y-141572257D02*
X188109774Y-141643685D01*
D11*
X193134819Y-108797619D02*
X193134819Y-108988095D01*
X193134819Y-108988095D02*
X193182438Y-109083333D01*
X193182438Y-109083333D02*
X193277676Y-109178571D01*
X193277676Y-109178571D02*
X193468152Y-109226190D01*
X193468152Y-109226190D02*
X193801485Y-109226190D01*
X193801485Y-109226190D02*
X193991961Y-109178571D01*
X193991961Y-109178571D02*
X194087200Y-109083333D01*
X194087200Y-109083333D02*
X194134819Y-108988095D01*
X194134819Y-108988095D02*
X194134819Y-108797619D01*
X194134819Y-108797619D02*
X194087200Y-108702381D01*
X194087200Y-108702381D02*
X193991961Y-108607143D01*
X193991961Y-108607143D02*
X193801485Y-108559524D01*
X193801485Y-108559524D02*
X193468152Y-108559524D01*
X193468152Y-108559524D02*
X193277676Y-108607143D01*
X193277676Y-108607143D02*
X193182438Y-108702381D01*
X193182438Y-108702381D02*
X193134819Y-108797619D01*
X193611009Y-109988095D02*
X193611009Y-109654762D01*
X194134819Y-109654762D02*
X193134819Y-109654762D01*
X193134819Y-109654762D02*
X193134819Y-110130952D01*
X193611009Y-110845238D02*
X193611009Y-110511905D01*
X194134819Y-110511905D02*
X193134819Y-110511905D01*
X193134819Y-110511905D02*
X193134819Y-110988095D01*
X183134819Y-109130952D02*
X183134819Y-109321428D01*
X183134819Y-109321428D02*
X183182438Y-109416666D01*
X183182438Y-109416666D02*
X183277676Y-109511904D01*
X183277676Y-109511904D02*
X183468152Y-109559523D01*
X183468152Y-109559523D02*
X183801485Y-109559523D01*
X183801485Y-109559523D02*
X183991961Y-109511904D01*
X183991961Y-109511904D02*
X184087200Y-109416666D01*
X184087200Y-109416666D02*
X184134819Y-109321428D01*
X184134819Y-109321428D02*
X184134819Y-109130952D01*
X184134819Y-109130952D02*
X184087200Y-109035714D01*
X184087200Y-109035714D02*
X183991961Y-108940476D01*
X183991961Y-108940476D02*
X183801485Y-108892857D01*
X183801485Y-108892857D02*
X183468152Y-108892857D01*
X183468152Y-108892857D02*
X183277676Y-108940476D01*
X183277676Y-108940476D02*
X183182438Y-109035714D01*
X183182438Y-109035714D02*
X183134819Y-109130952D01*
X184134819Y-109988095D02*
X183134819Y-109988095D01*
X183134819Y-109988095D02*
X184134819Y-110559523D01*
X184134819Y-110559523D02*
X183134819Y-110559523D01*
D12*
%TO.C,D29*%
X265140000Y-150430000D02*
X265940000Y-150430000D01*
X265540000Y-150430000D02*
X265540000Y-149930000D01*
X265540000Y-151030000D02*
X264990000Y-151030000D01*
X265540000Y-151030000D02*
X265140000Y-150430000D01*
X265540000Y-151030000D02*
X266090000Y-151030000D01*
X265540000Y-151430000D02*
X265540000Y-151030000D01*
X265940000Y-150430000D02*
X265540000Y-151030000D01*
%TO.C,D12*%
X150140000Y-131430000D02*
X150940000Y-131430000D01*
X150540000Y-131430000D02*
X150540000Y-130930000D01*
X150540000Y-132030000D02*
X149990000Y-132030000D01*
X150540000Y-132030000D02*
X150140000Y-131430000D01*
X150540000Y-132030000D02*
X151090000Y-132030000D01*
X150540000Y-132430000D02*
X150540000Y-132030000D01*
X150940000Y-131430000D02*
X150540000Y-132030000D01*
%TO.C,D23*%
X227140000Y-150430000D02*
X227940000Y-150430000D01*
X227540000Y-150430000D02*
X227540000Y-149930000D01*
X227540000Y-151030000D02*
X226990000Y-151030000D01*
X227540000Y-151030000D02*
X227140000Y-150430000D01*
X227540000Y-151030000D02*
X228090000Y-151030000D01*
X227540000Y-151430000D02*
X227540000Y-151030000D01*
X227940000Y-150430000D02*
X227540000Y-151030000D01*
%TO.C,D4*%
X112140000Y-150430000D02*
X112940000Y-150430000D01*
X112540000Y-150430000D02*
X112540000Y-149930000D01*
X112540000Y-151030000D02*
X111990000Y-151030000D01*
X112540000Y-151030000D02*
X112140000Y-150430000D01*
X112540000Y-151030000D02*
X113090000Y-151030000D01*
X112540000Y-151430000D02*
X112540000Y-151030000D01*
X112940000Y-150430000D02*
X112540000Y-151030000D01*
%TO.C,D16*%
X169140000Y-131430000D02*
X169940000Y-131430000D01*
X169540000Y-131430000D02*
X169540000Y-130930000D01*
X169540000Y-132030000D02*
X168990000Y-132030000D01*
X169540000Y-132030000D02*
X169140000Y-131430000D01*
X169540000Y-132030000D02*
X170090000Y-132030000D01*
X169540000Y-132430000D02*
X169540000Y-132030000D01*
X169940000Y-131430000D02*
X169540000Y-132030000D01*
%TO.C,D14*%
X169140000Y-169430000D02*
X169940000Y-169430000D01*
X169540000Y-169430000D02*
X169540000Y-168930000D01*
X169540000Y-170030000D02*
X168990000Y-170030000D01*
X169540000Y-170030000D02*
X169140000Y-169430000D01*
X169540000Y-170030000D02*
X170090000Y-170030000D01*
X169540000Y-170430000D02*
X169540000Y-170030000D01*
X169940000Y-169430000D02*
X169540000Y-170030000D01*
%TO.C,D1*%
X93140000Y-150430000D02*
X93940000Y-150430000D01*
X93540000Y-150430000D02*
X93540000Y-149930000D01*
X93540000Y-151030000D02*
X92990000Y-151030000D01*
X93540000Y-151030000D02*
X93140000Y-150430000D01*
X93540000Y-151030000D02*
X94090000Y-151030000D01*
X93540000Y-151430000D02*
X93540000Y-151030000D01*
X93940000Y-150430000D02*
X93540000Y-151030000D01*
%TO.C,D21*%
X208140000Y-112430000D02*
X208940000Y-112430000D01*
X208540000Y-112430000D02*
X208540000Y-111930000D01*
X208540000Y-113030000D02*
X207990000Y-113030000D01*
X208540000Y-113030000D02*
X208140000Y-112430000D01*
X208540000Y-113030000D02*
X209090000Y-113030000D01*
X208540000Y-113430000D02*
X208540000Y-113030000D01*
X208940000Y-112430000D02*
X208540000Y-113030000D01*
%TO.C,D30*%
X265140000Y-131430000D02*
X265940000Y-131430000D01*
X265540000Y-131430000D02*
X265540000Y-130930000D01*
X265540000Y-132030000D02*
X264990000Y-132030000D01*
X265540000Y-132030000D02*
X265140000Y-131430000D01*
X265540000Y-132030000D02*
X266090000Y-132030000D01*
X265540000Y-132430000D02*
X265540000Y-132030000D01*
X265940000Y-131430000D02*
X265540000Y-132030000D01*
%TO.C,D20*%
X208140000Y-131430000D02*
X208940000Y-131430000D01*
X208540000Y-131430000D02*
X208540000Y-130930000D01*
X208540000Y-132030000D02*
X207990000Y-132030000D01*
X208540000Y-132030000D02*
X208140000Y-131430000D01*
X208540000Y-132030000D02*
X209090000Y-132030000D01*
X208540000Y-132430000D02*
X208540000Y-132030000D01*
X208940000Y-131430000D02*
X208540000Y-132030000D01*
%TO.C,D11*%
X150140000Y-150430000D02*
X150940000Y-150430000D01*
X150540000Y-150430000D02*
X150540000Y-149930000D01*
X150540000Y-151030000D02*
X149990000Y-151030000D01*
X150540000Y-151030000D02*
X150140000Y-150430000D01*
X150540000Y-151030000D02*
X151090000Y-151030000D01*
X150540000Y-151430000D02*
X150540000Y-151030000D01*
X150940000Y-150430000D02*
X150540000Y-151030000D01*
%TO.C,D5*%
X112140000Y-131430000D02*
X112940000Y-131430000D01*
X112540000Y-131430000D02*
X112540000Y-130930000D01*
X112540000Y-132030000D02*
X111990000Y-132030000D01*
X112540000Y-132030000D02*
X112140000Y-131430000D01*
X112540000Y-132030000D02*
X113090000Y-132030000D01*
X112540000Y-132430000D02*
X112540000Y-132030000D01*
X112940000Y-131430000D02*
X112540000Y-132030000D01*
%TO.C,D19*%
X208140000Y-150430000D02*
X208940000Y-150430000D01*
X208540000Y-150430000D02*
X208540000Y-149930000D01*
X208540000Y-151030000D02*
X207990000Y-151030000D01*
X208540000Y-151030000D02*
X208140000Y-150430000D01*
X208540000Y-151030000D02*
X209090000Y-151030000D01*
X208540000Y-151430000D02*
X208540000Y-151030000D01*
X208940000Y-150430000D02*
X208540000Y-151030000D01*
%TO.C,D2*%
X93140000Y-131430000D02*
X93940000Y-131430000D01*
X93540000Y-131430000D02*
X93540000Y-130930000D01*
X93540000Y-132030000D02*
X92990000Y-132030000D01*
X93540000Y-132030000D02*
X93140000Y-131430000D01*
X93540000Y-132030000D02*
X94090000Y-132030000D01*
X93540000Y-132430000D02*
X93540000Y-132030000D01*
X93940000Y-131430000D02*
X93540000Y-132030000D01*
%TO.C,D7*%
X131140000Y-150430000D02*
X131940000Y-150430000D01*
X131540000Y-150430000D02*
X131540000Y-149930000D01*
X131540000Y-151030000D02*
X130990000Y-151030000D01*
X131540000Y-151030000D02*
X131140000Y-150430000D01*
X131540000Y-151030000D02*
X132090000Y-151030000D01*
X131540000Y-151430000D02*
X131540000Y-151030000D01*
X131940000Y-150430000D02*
X131540000Y-151030000D01*
%TO.C,D31*%
X265140000Y-112430000D02*
X265940000Y-112430000D01*
X265540000Y-112430000D02*
X265540000Y-111930000D01*
X265540000Y-113030000D02*
X264990000Y-113030000D01*
X265540000Y-113030000D02*
X265140000Y-112430000D01*
X265540000Y-113030000D02*
X266090000Y-113030000D01*
X265540000Y-113430000D02*
X265540000Y-113030000D01*
X265940000Y-112430000D02*
X265540000Y-113030000D01*
%TO.C,D13*%
X150140000Y-112430000D02*
X150940000Y-112430000D01*
X150540000Y-112430000D02*
X150540000Y-111930000D01*
X150540000Y-113030000D02*
X149990000Y-113030000D01*
X150540000Y-113030000D02*
X150140000Y-112430000D01*
X150540000Y-113030000D02*
X151090000Y-113030000D01*
X150540000Y-113430000D02*
X150540000Y-113030000D01*
X150940000Y-112430000D02*
X150540000Y-113030000D01*
%TO.C,D24*%
X227140000Y-131430000D02*
X227940000Y-131430000D01*
X227540000Y-131430000D02*
X227540000Y-130930000D01*
X227540000Y-132030000D02*
X226990000Y-132030000D01*
X227540000Y-132030000D02*
X227140000Y-131430000D01*
X227540000Y-132030000D02*
X228090000Y-132030000D01*
X227540000Y-132430000D02*
X227540000Y-132030000D01*
X227940000Y-131430000D02*
X227540000Y-132030000D01*
%TO.C,D15*%
X169140000Y-150430000D02*
X169940000Y-150430000D01*
X169540000Y-150430000D02*
X169540000Y-149930000D01*
X169540000Y-151030000D02*
X168990000Y-151030000D01*
X169540000Y-151030000D02*
X169140000Y-150430000D01*
X169540000Y-151030000D02*
X170090000Y-151030000D01*
X169540000Y-151430000D02*
X169540000Y-151030000D01*
X169940000Y-150430000D02*
X169540000Y-151030000D01*
%TO.C,D28*%
X246140000Y-112430000D02*
X246940000Y-112430000D01*
X246540000Y-112430000D02*
X246540000Y-111930000D01*
X246540000Y-113030000D02*
X245990000Y-113030000D01*
X246540000Y-113030000D02*
X246140000Y-112430000D01*
X246540000Y-113030000D02*
X247090000Y-113030000D01*
X246540000Y-113430000D02*
X246540000Y-113030000D01*
X246940000Y-112430000D02*
X246540000Y-113030000D01*
%TO.C,D26*%
X246140000Y-150430000D02*
X246940000Y-150430000D01*
X246540000Y-150430000D02*
X246540000Y-149930000D01*
X246540000Y-151030000D02*
X245990000Y-151030000D01*
X246540000Y-151030000D02*
X246140000Y-150430000D01*
X246540000Y-151030000D02*
X247090000Y-151030000D01*
X246540000Y-151430000D02*
X246540000Y-151030000D01*
X246940000Y-150430000D02*
X246540000Y-151030000D01*
%TO.C,D8*%
X131140000Y-131430000D02*
X131940000Y-131430000D01*
X131540000Y-131430000D02*
X131540000Y-130930000D01*
X131540000Y-132030000D02*
X130990000Y-132030000D01*
X131540000Y-132030000D02*
X131140000Y-131430000D01*
X131540000Y-132030000D02*
X132090000Y-132030000D01*
X131540000Y-132430000D02*
X131540000Y-132030000D01*
X131940000Y-131430000D02*
X131540000Y-132030000D01*
%TO.C,D22*%
X227140000Y-169430000D02*
X227940000Y-169430000D01*
X227540000Y-169430000D02*
X227540000Y-168930000D01*
X227540000Y-170030000D02*
X226990000Y-170030000D01*
X227540000Y-170030000D02*
X227140000Y-169430000D01*
X227540000Y-170030000D02*
X228090000Y-170030000D01*
X227540000Y-170430000D02*
X227540000Y-170030000D01*
X227940000Y-169430000D02*
X227540000Y-170030000D01*
%TO.C,D3*%
X93140000Y-112430000D02*
X93940000Y-112430000D01*
X93540000Y-112430000D02*
X93540000Y-111930000D01*
X93540000Y-113030000D02*
X92990000Y-113030000D01*
X93540000Y-113030000D02*
X93140000Y-112430000D01*
X93540000Y-113030000D02*
X94090000Y-113030000D01*
X93540000Y-113430000D02*
X93540000Y-113030000D01*
X93940000Y-112430000D02*
X93540000Y-113030000D01*
%TO.C,D27*%
X246140000Y-131430000D02*
X246940000Y-131430000D01*
X246540000Y-131430000D02*
X246540000Y-130930000D01*
X246540000Y-132030000D02*
X245990000Y-132030000D01*
X246540000Y-132030000D02*
X246140000Y-131430000D01*
X246540000Y-132030000D02*
X247090000Y-132030000D01*
X246540000Y-132430000D02*
X246540000Y-132030000D01*
X246940000Y-131430000D02*
X246540000Y-132030000D01*
%TO.C,D10*%
X150140000Y-169430000D02*
X150940000Y-169430000D01*
X150540000Y-169430000D02*
X150540000Y-168930000D01*
X150540000Y-170030000D02*
X149990000Y-170030000D01*
X150540000Y-170030000D02*
X150140000Y-169430000D01*
X150540000Y-170030000D02*
X151090000Y-170030000D01*
X150540000Y-170430000D02*
X150540000Y-170030000D01*
X150940000Y-169430000D02*
X150540000Y-170030000D01*
%TO.C,D17*%
X169140000Y-112430000D02*
X169940000Y-112430000D01*
X169540000Y-112430000D02*
X169540000Y-111930000D01*
X169540000Y-113030000D02*
X168990000Y-113030000D01*
X169540000Y-113030000D02*
X169140000Y-112430000D01*
X169540000Y-113030000D02*
X170090000Y-113030000D01*
X169540000Y-113430000D02*
X169540000Y-113030000D01*
X169940000Y-112430000D02*
X169540000Y-113030000D01*
%TO.C,D25*%
X227140000Y-112430000D02*
X227940000Y-112430000D01*
X227540000Y-112430000D02*
X227540000Y-111930000D01*
X227540000Y-113030000D02*
X226990000Y-113030000D01*
X227540000Y-113030000D02*
X227140000Y-112430000D01*
X227540000Y-113030000D02*
X228090000Y-113030000D01*
X227540000Y-113430000D02*
X227540000Y-113030000D01*
X227940000Y-112430000D02*
X227540000Y-113030000D01*
%TO.C,D34*%
X284140000Y-112430000D02*
X284940000Y-112430000D01*
X284540000Y-112430000D02*
X284540000Y-111930000D01*
X284540000Y-113030000D02*
X283990000Y-113030000D01*
X284540000Y-113030000D02*
X284140000Y-112430000D01*
X284540000Y-113030000D02*
X285090000Y-113030000D01*
X284540000Y-113430000D02*
X284540000Y-113030000D01*
X284940000Y-112430000D02*
X284540000Y-113030000D01*
%TO.C,D9*%
X131140000Y-112430000D02*
X131940000Y-112430000D01*
X131540000Y-112430000D02*
X131540000Y-111930000D01*
X131540000Y-113030000D02*
X130990000Y-113030000D01*
X131540000Y-113030000D02*
X131140000Y-112430000D01*
X131540000Y-113030000D02*
X132090000Y-113030000D01*
X131540000Y-113430000D02*
X131540000Y-113030000D01*
X131940000Y-112430000D02*
X131540000Y-113030000D01*
%TO.C,D6*%
X112140000Y-112430000D02*
X112940000Y-112430000D01*
X112540000Y-112430000D02*
X112540000Y-111930000D01*
X112540000Y-113030000D02*
X111990000Y-113030000D01*
X112540000Y-113030000D02*
X112140000Y-112430000D01*
X112540000Y-113030000D02*
X113090000Y-113030000D01*
X112540000Y-113430000D02*
X112540000Y-113030000D01*
X112940000Y-112430000D02*
X112540000Y-113030000D01*
%TO.C,D18*%
X208140000Y-169430000D02*
X208940000Y-169430000D01*
X208540000Y-169430000D02*
X208540000Y-168930000D01*
X208540000Y-170030000D02*
X207990000Y-170030000D01*
X208540000Y-170030000D02*
X208140000Y-169430000D01*
X208540000Y-170030000D02*
X209090000Y-170030000D01*
X208540000Y-170430000D02*
X208540000Y-170030000D01*
X208940000Y-169430000D02*
X208540000Y-170030000D01*
%TO.C,D33*%
X284140000Y-131430000D02*
X284940000Y-131430000D01*
X284540000Y-131430000D02*
X284540000Y-130930000D01*
X284540000Y-132030000D02*
X283990000Y-132030000D01*
X284540000Y-132030000D02*
X284140000Y-131430000D01*
X284540000Y-132030000D02*
X285090000Y-132030000D01*
X284540000Y-132430000D02*
X284540000Y-132030000D01*
X284940000Y-131430000D02*
X284540000Y-132030000D01*
%TO.C,D32*%
X284140000Y-150430000D02*
X284940000Y-150430000D01*
X284540000Y-150430000D02*
X284540000Y-149930000D01*
X284540000Y-151030000D02*
X283990000Y-151030000D01*
X284540000Y-151030000D02*
X284140000Y-150430000D01*
X284540000Y-151030000D02*
X285090000Y-151030000D01*
X284540000Y-151430000D02*
X284540000Y-151030000D01*
X284940000Y-150430000D02*
X284540000Y-151030000D01*
D11*
%TO.C,S65*%
X270500000Y-109800000D02*
X270000000Y-110300000D01*
X270500000Y-114300000D02*
X270000000Y-113800000D01*
X272800000Y-114300000D02*
X270500000Y-114300000D01*
X273500000Y-109800000D02*
X270500000Y-109800000D01*
X274000000Y-110300000D02*
X273500000Y-109800000D01*
X274000000Y-110300000D02*
X274000000Y-111220000D01*
X274500000Y-116500000D02*
X274500000Y-115800000D01*
X274520000Y-111800000D02*
X279000000Y-111800000D01*
X279000000Y-111800000D02*
X279000000Y-112400000D01*
X279000000Y-116000000D02*
X279000000Y-116500000D01*
X279000000Y-116500000D02*
X274500000Y-116500000D01*
X272800000Y-114300000D02*
G75*
G02*
X274500000Y-115780000I110000J-1590000D01*
G01*
X274520000Y-111800000D02*
G75*
G02*
X274000000Y-111220000I30000J550000D01*
G01*
%TO.C,S49*%
X174500000Y-147800000D02*
X174000000Y-148300000D01*
X174500000Y-152300000D02*
X174000000Y-151800000D01*
X176800000Y-152300000D02*
X174500000Y-152300000D01*
X177500000Y-147800000D02*
X174500000Y-147800000D01*
X178000000Y-148300000D02*
X177500000Y-147800000D01*
X178000000Y-148300000D02*
X178000000Y-149220000D01*
X178500000Y-154500000D02*
X178500000Y-153800000D01*
X178520000Y-149800000D02*
X183000000Y-149800000D01*
X183000000Y-149800000D02*
X183000000Y-150400000D01*
X183000000Y-154000000D02*
X183000000Y-154500000D01*
X183000000Y-154500000D02*
X178500000Y-154500000D01*
X176800000Y-152300000D02*
G75*
G02*
X178500000Y-153780000I110000J-1590000D01*
G01*
X178520000Y-149800000D02*
G75*
G02*
X178000000Y-149220000I30000J550000D01*
G01*
%TO.C,S42*%
X136500000Y-128800000D02*
X136000000Y-129300000D01*
X136500000Y-133300000D02*
X136000000Y-132800000D01*
X138800000Y-133300000D02*
X136500000Y-133300000D01*
X139500000Y-128800000D02*
X136500000Y-128800000D01*
X140000000Y-129300000D02*
X139500000Y-128800000D01*
X140000000Y-129300000D02*
X140000000Y-130220000D01*
X140500000Y-135500000D02*
X140500000Y-134800000D01*
X140520000Y-130800000D02*
X145000000Y-130800000D01*
X145000000Y-130800000D02*
X145000000Y-131400000D01*
X145000000Y-135000000D02*
X145000000Y-135500000D01*
X145000000Y-135500000D02*
X140500000Y-135500000D01*
X138800000Y-133300000D02*
G75*
G02*
X140500000Y-134780000I110000J-1590000D01*
G01*
X140520000Y-130800000D02*
G75*
G02*
X140000000Y-130220000I30000J550000D01*
G01*
D13*
%TO.C,CONN1*%
X193290000Y-126910000D02*
X194340000Y-126910000D01*
X193290000Y-130240000D02*
X193290000Y-126910000D01*
X194500000Y-133350000D02*
X194500000Y-132350000D01*
X194860000Y-131630000D02*
X194360000Y-131630000D01*
X195000000Y-132850000D02*
X194000000Y-132850000D01*
X195160000Y-131130000D02*
X194860000Y-131630000D01*
X195840000Y-131130000D02*
X195160000Y-131130000D01*
X196000000Y-132850000D02*
X197000000Y-132850000D01*
X196140000Y-131630000D02*
X195840000Y-131130000D01*
X196640000Y-131630000D02*
X196140000Y-131630000D01*
X196660000Y-126910000D02*
X196660000Y-126700000D01*
X197710000Y-126910000D02*
X196660000Y-126910000D01*
X197710000Y-130240000D02*
X197710000Y-126910000D01*
D11*
%TO.C,S64*%
X270500000Y-128800000D02*
X270000000Y-129300000D01*
X270500000Y-133300000D02*
X270000000Y-132800000D01*
X272800000Y-133300000D02*
X270500000Y-133300000D01*
X273500000Y-128800000D02*
X270500000Y-128800000D01*
X274000000Y-129300000D02*
X273500000Y-128800000D01*
X274000000Y-129300000D02*
X274000000Y-130220000D01*
X274500000Y-135500000D02*
X274500000Y-134800000D01*
X274520000Y-130800000D02*
X279000000Y-130800000D01*
X279000000Y-130800000D02*
X279000000Y-131400000D01*
X279000000Y-135000000D02*
X279000000Y-135500000D01*
X279000000Y-135500000D02*
X274500000Y-135500000D01*
X272800000Y-133300000D02*
G75*
G02*
X274500000Y-134780000I110000J-1590000D01*
G01*
X274520000Y-130800000D02*
G75*
G02*
X274000000Y-130220000I30000J550000D01*
G01*
%TO.C,S63*%
X270500000Y-147800000D02*
X270000000Y-148300000D01*
X270500000Y-152300000D02*
X270000000Y-151800000D01*
X272800000Y-152300000D02*
X270500000Y-152300000D01*
X273500000Y-147800000D02*
X270500000Y-147800000D01*
X274000000Y-148300000D02*
X273500000Y-147800000D01*
X274000000Y-148300000D02*
X274000000Y-149220000D01*
X274500000Y-154500000D02*
X274500000Y-153800000D01*
X274520000Y-149800000D02*
X279000000Y-149800000D01*
X279000000Y-149800000D02*
X279000000Y-150400000D01*
X279000000Y-154000000D02*
X279000000Y-154500000D01*
X279000000Y-154500000D02*
X274500000Y-154500000D01*
X272800000Y-152300000D02*
G75*
G02*
X274500000Y-153780000I110000J-1590000D01*
G01*
X274520000Y-149800000D02*
G75*
G02*
X274000000Y-149220000I30000J550000D01*
G01*
%TO.C,S59*%
X232500000Y-109800000D02*
X232000000Y-110300000D01*
X232500000Y-114300000D02*
X232000000Y-113800000D01*
X234800000Y-114300000D02*
X232500000Y-114300000D01*
X235500000Y-109800000D02*
X232500000Y-109800000D01*
X236000000Y-110300000D02*
X235500000Y-109800000D01*
X236000000Y-110300000D02*
X236000000Y-111220000D01*
X236500000Y-116500000D02*
X236500000Y-115800000D01*
X236520000Y-111800000D02*
X241000000Y-111800000D01*
X241000000Y-111800000D02*
X241000000Y-112400000D01*
X241000000Y-116000000D02*
X241000000Y-116500000D01*
X241000000Y-116500000D02*
X236500000Y-116500000D01*
X234800000Y-114300000D02*
G75*
G02*
X236500000Y-115780000I110000J-1590000D01*
G01*
X236520000Y-111800000D02*
G75*
G02*
X236000000Y-111220000I30000J550000D01*
G01*
%TO.C,S39*%
X117500000Y-128800000D02*
X117000000Y-129300000D01*
X117500000Y-133300000D02*
X117000000Y-132800000D01*
X119800000Y-133300000D02*
X117500000Y-133300000D01*
X120500000Y-128800000D02*
X117500000Y-128800000D01*
X121000000Y-129300000D02*
X120500000Y-128800000D01*
X121000000Y-129300000D02*
X121000000Y-130220000D01*
X121500000Y-135500000D02*
X121500000Y-134800000D01*
X121520000Y-130800000D02*
X126000000Y-130800000D01*
X126000000Y-130800000D02*
X126000000Y-131400000D01*
X126000000Y-135000000D02*
X126000000Y-135500000D01*
X126000000Y-135500000D02*
X121500000Y-135500000D01*
X119800000Y-133300000D02*
G75*
G02*
X121500000Y-134780000I110000J-1590000D01*
G01*
X121520000Y-130800000D02*
G75*
G02*
X121000000Y-130220000I30000J550000D01*
G01*
%TO.C,S41*%
X136500000Y-147800000D02*
X136000000Y-148300000D01*
X136500000Y-152300000D02*
X136000000Y-151800000D01*
X138800000Y-152300000D02*
X136500000Y-152300000D01*
X139500000Y-147800000D02*
X136500000Y-147800000D01*
X140000000Y-148300000D02*
X139500000Y-147800000D01*
X140000000Y-148300000D02*
X140000000Y-149220000D01*
X140500000Y-154500000D02*
X140500000Y-153800000D01*
X140520000Y-149800000D02*
X145000000Y-149800000D01*
X145000000Y-149800000D02*
X145000000Y-150400000D01*
X145000000Y-154000000D02*
X145000000Y-154500000D01*
X145000000Y-154500000D02*
X140500000Y-154500000D01*
X138800000Y-152300000D02*
G75*
G02*
X140500000Y-153780000I110000J-1590000D01*
G01*
X140520000Y-149800000D02*
G75*
G02*
X140000000Y-149220000I30000J550000D01*
G01*
%TO.C,S47*%
X155500000Y-109800000D02*
X155000000Y-110300000D01*
X155500000Y-114300000D02*
X155000000Y-113800000D01*
X157800000Y-114300000D02*
X155500000Y-114300000D01*
X158500000Y-109800000D02*
X155500000Y-109800000D01*
X159000000Y-110300000D02*
X158500000Y-109800000D01*
X159000000Y-110300000D02*
X159000000Y-111220000D01*
X159500000Y-116500000D02*
X159500000Y-115800000D01*
X159520000Y-111800000D02*
X164000000Y-111800000D01*
X164000000Y-111800000D02*
X164000000Y-112400000D01*
X164000000Y-116000000D02*
X164000000Y-116500000D01*
X164000000Y-116500000D02*
X159500000Y-116500000D01*
X157800000Y-114300000D02*
G75*
G02*
X159500000Y-115780000I110000J-1590000D01*
G01*
X159520000Y-111800000D02*
G75*
G02*
X159000000Y-111220000I30000J550000D01*
G01*
%TO.C,S55*%
X213500000Y-109800000D02*
X213000000Y-110300000D01*
X213500000Y-114300000D02*
X213000000Y-113800000D01*
X215800000Y-114300000D02*
X213500000Y-114300000D01*
X216500000Y-109800000D02*
X213500000Y-109800000D01*
X217000000Y-110300000D02*
X216500000Y-109800000D01*
X217000000Y-110300000D02*
X217000000Y-111220000D01*
X217500000Y-116500000D02*
X217500000Y-115800000D01*
X217520000Y-111800000D02*
X222000000Y-111800000D01*
X222000000Y-111800000D02*
X222000000Y-112400000D01*
X222000000Y-116000000D02*
X222000000Y-116500000D01*
X222000000Y-116500000D02*
X217500000Y-116500000D01*
X215800000Y-114300000D02*
G75*
G02*
X217500000Y-115780000I110000J-1590000D01*
G01*
X217520000Y-111800000D02*
G75*
G02*
X217000000Y-111220000I30000J550000D01*
G01*
%TO.C,S52*%
X213500000Y-166800000D02*
X213000000Y-167300000D01*
X213500000Y-171300000D02*
X213000000Y-170800000D01*
X215800000Y-171300000D02*
X213500000Y-171300000D01*
X216500000Y-166800000D02*
X213500000Y-166800000D01*
X217000000Y-167300000D02*
X216500000Y-166800000D01*
X217000000Y-167300000D02*
X217000000Y-168220000D01*
X217500000Y-173500000D02*
X217500000Y-172800000D01*
X217520000Y-168800000D02*
X222000000Y-168800000D01*
X222000000Y-168800000D02*
X222000000Y-169400000D01*
X222000000Y-173000000D02*
X222000000Y-173500000D01*
X222000000Y-173500000D02*
X217500000Y-173500000D01*
X215800000Y-171300000D02*
G75*
G02*
X217500000Y-172780000I110000J-1590000D01*
G01*
X217520000Y-168800000D02*
G75*
G02*
X217000000Y-168220000I30000J550000D01*
G01*
%TO.C,S35*%
X98500000Y-147800000D02*
X98000000Y-148300000D01*
X98500000Y-152300000D02*
X98000000Y-151800000D01*
X100800000Y-152300000D02*
X98500000Y-152300000D01*
X101500000Y-147800000D02*
X98500000Y-147800000D01*
X102000000Y-148300000D02*
X101500000Y-147800000D01*
X102000000Y-148300000D02*
X102000000Y-149220000D01*
X102500000Y-154500000D02*
X102500000Y-153800000D01*
X102520000Y-149800000D02*
X107000000Y-149800000D01*
X107000000Y-149800000D02*
X107000000Y-150400000D01*
X107000000Y-154000000D02*
X107000000Y-154500000D01*
X107000000Y-154500000D02*
X102500000Y-154500000D01*
X100800000Y-152300000D02*
G75*
G02*
X102500000Y-153780000I110000J-1590000D01*
G01*
X102520000Y-149800000D02*
G75*
G02*
X102000000Y-149220000I30000J550000D01*
G01*
%TO.C,S45*%
X155500000Y-147800000D02*
X155000000Y-148300000D01*
X155500000Y-152300000D02*
X155000000Y-151800000D01*
X157800000Y-152300000D02*
X155500000Y-152300000D01*
X158500000Y-147800000D02*
X155500000Y-147800000D01*
X159000000Y-148300000D02*
X158500000Y-147800000D01*
X159000000Y-148300000D02*
X159000000Y-149220000D01*
X159500000Y-154500000D02*
X159500000Y-153800000D01*
X159520000Y-149800000D02*
X164000000Y-149800000D01*
X164000000Y-149800000D02*
X164000000Y-150400000D01*
X164000000Y-154000000D02*
X164000000Y-154500000D01*
X164000000Y-154500000D02*
X159500000Y-154500000D01*
X157800000Y-152300000D02*
G75*
G02*
X159500000Y-153780000I110000J-1590000D01*
G01*
X159520000Y-149800000D02*
G75*
G02*
X159000000Y-149220000I30000J550000D01*
G01*
%TO.C,S57*%
X232500000Y-147800000D02*
X232000000Y-148300000D01*
X232500000Y-152300000D02*
X232000000Y-151800000D01*
X234800000Y-152300000D02*
X232500000Y-152300000D01*
X235500000Y-147800000D02*
X232500000Y-147800000D01*
X236000000Y-148300000D02*
X235500000Y-147800000D01*
X236000000Y-148300000D02*
X236000000Y-149220000D01*
X236500000Y-154500000D02*
X236500000Y-153800000D01*
X236520000Y-149800000D02*
X241000000Y-149800000D01*
X241000000Y-149800000D02*
X241000000Y-150400000D01*
X241000000Y-154000000D02*
X241000000Y-154500000D01*
X241000000Y-154500000D02*
X236500000Y-154500000D01*
X234800000Y-152300000D02*
G75*
G02*
X236500000Y-153780000I110000J-1590000D01*
G01*
X236520000Y-149800000D02*
G75*
G02*
X236000000Y-149220000I30000J550000D01*
G01*
%TO.C,S54*%
X213500000Y-128800000D02*
X213000000Y-129300000D01*
X213500000Y-133300000D02*
X213000000Y-132800000D01*
X215800000Y-133300000D02*
X213500000Y-133300000D01*
X216500000Y-128800000D02*
X213500000Y-128800000D01*
X217000000Y-129300000D02*
X216500000Y-128800000D01*
X217000000Y-129300000D02*
X217000000Y-130220000D01*
X217500000Y-135500000D02*
X217500000Y-134800000D01*
X217520000Y-130800000D02*
X222000000Y-130800000D01*
X222000000Y-130800000D02*
X222000000Y-131400000D01*
X222000000Y-135000000D02*
X222000000Y-135500000D01*
X222000000Y-135500000D02*
X217500000Y-135500000D01*
X215800000Y-133300000D02*
G75*
G02*
X217500000Y-134780000I110000J-1590000D01*
G01*
X217520000Y-130800000D02*
G75*
G02*
X217000000Y-130220000I30000J550000D01*
G01*
%TO.C,S62*%
X251500000Y-109800000D02*
X251000000Y-110300000D01*
X251500000Y-114300000D02*
X251000000Y-113800000D01*
X253800000Y-114300000D02*
X251500000Y-114300000D01*
X254500000Y-109800000D02*
X251500000Y-109800000D01*
X255000000Y-110300000D02*
X254500000Y-109800000D01*
X255000000Y-110300000D02*
X255000000Y-111220000D01*
X255500000Y-116500000D02*
X255500000Y-115800000D01*
X255520000Y-111800000D02*
X260000000Y-111800000D01*
X260000000Y-111800000D02*
X260000000Y-112400000D01*
X260000000Y-116000000D02*
X260000000Y-116500000D01*
X260000000Y-116500000D02*
X255500000Y-116500000D01*
X253800000Y-114300000D02*
G75*
G02*
X255500000Y-115780000I110000J-1590000D01*
G01*
X255520000Y-111800000D02*
G75*
G02*
X255000000Y-111220000I30000J550000D01*
G01*
%TO.C,S37*%
X98500000Y-109800000D02*
X98000000Y-110300000D01*
X98500000Y-114300000D02*
X98000000Y-113800000D01*
X100800000Y-114300000D02*
X98500000Y-114300000D01*
X101500000Y-109800000D02*
X98500000Y-109800000D01*
X102000000Y-110300000D02*
X101500000Y-109800000D01*
X102000000Y-110300000D02*
X102000000Y-111220000D01*
X102500000Y-116500000D02*
X102500000Y-115800000D01*
X102520000Y-111800000D02*
X107000000Y-111800000D01*
X107000000Y-111800000D02*
X107000000Y-112400000D01*
X107000000Y-116000000D02*
X107000000Y-116500000D01*
X107000000Y-116500000D02*
X102500000Y-116500000D01*
X100800000Y-114300000D02*
G75*
G02*
X102500000Y-115780000I110000J-1590000D01*
G01*
X102520000Y-111800000D02*
G75*
G02*
X102000000Y-111220000I30000J550000D01*
G01*
D12*
%TO.C,RST1*%
X199530000Y-108500000D02*
X199530000Y-108250000D01*
X199530000Y-111500000D02*
X199530000Y-111750000D01*
X199780000Y-108250000D02*
X199530000Y-108250000D01*
X199780000Y-111750000D02*
X199530000Y-111750000D01*
X203980000Y-108250000D02*
X204230000Y-108250000D01*
X203980000Y-111750000D02*
X204230000Y-111750000D01*
X204230000Y-108500000D02*
X204230000Y-108250000D01*
X204230000Y-111500000D02*
X204230000Y-111750000D01*
D11*
%TO.C,S68*%
X289500000Y-109800000D02*
X289000000Y-110300000D01*
X289500000Y-114300000D02*
X289000000Y-113800000D01*
X291800000Y-114300000D02*
X289500000Y-114300000D01*
X292500000Y-109800000D02*
X289500000Y-109800000D01*
X293000000Y-110300000D02*
X292500000Y-109800000D01*
X293000000Y-110300000D02*
X293000000Y-111220000D01*
X293500000Y-116500000D02*
X293500000Y-115800000D01*
X293520000Y-111800000D02*
X298000000Y-111800000D01*
X298000000Y-111800000D02*
X298000000Y-112400000D01*
X298000000Y-116000000D02*
X298000000Y-116500000D01*
X298000000Y-116500000D02*
X293500000Y-116500000D01*
X291800000Y-114300000D02*
G75*
G02*
X293500000Y-115780000I110000J-1590000D01*
G01*
X293520000Y-111800000D02*
G75*
G02*
X293000000Y-111220000I30000J550000D01*
G01*
%TO.C,S58*%
X232500000Y-128800000D02*
X232000000Y-129300000D01*
X232500000Y-133300000D02*
X232000000Y-132800000D01*
X234800000Y-133300000D02*
X232500000Y-133300000D01*
X235500000Y-128800000D02*
X232500000Y-128800000D01*
X236000000Y-129300000D02*
X235500000Y-128800000D01*
X236000000Y-129300000D02*
X236000000Y-130220000D01*
X236500000Y-135500000D02*
X236500000Y-134800000D01*
X236520000Y-130800000D02*
X241000000Y-130800000D01*
X241000000Y-130800000D02*
X241000000Y-131400000D01*
X241000000Y-135000000D02*
X241000000Y-135500000D01*
X241000000Y-135500000D02*
X236500000Y-135500000D01*
X234800000Y-133300000D02*
G75*
G02*
X236500000Y-134780000I110000J-1590000D01*
G01*
X236520000Y-130800000D02*
G75*
G02*
X236000000Y-130220000I30000J550000D01*
G01*
%TO.C,S67*%
X289500000Y-128800000D02*
X289000000Y-129300000D01*
X289500000Y-133300000D02*
X289000000Y-132800000D01*
X291800000Y-133300000D02*
X289500000Y-133300000D01*
X292500000Y-128800000D02*
X289500000Y-128800000D01*
X293000000Y-129300000D02*
X292500000Y-128800000D01*
X293000000Y-129300000D02*
X293000000Y-130220000D01*
X293500000Y-135500000D02*
X293500000Y-134800000D01*
X293520000Y-130800000D02*
X298000000Y-130800000D01*
X298000000Y-130800000D02*
X298000000Y-131400000D01*
X298000000Y-135000000D02*
X298000000Y-135500000D01*
X298000000Y-135500000D02*
X293500000Y-135500000D01*
X291800000Y-133300000D02*
G75*
G02*
X293500000Y-134780000I110000J-1590000D01*
G01*
X293520000Y-130800000D02*
G75*
G02*
X293000000Y-130220000I30000J550000D01*
G01*
%TO.C,S44*%
X155500000Y-166800000D02*
X155000000Y-167300000D01*
X155500000Y-171300000D02*
X155000000Y-170800000D01*
X157800000Y-171300000D02*
X155500000Y-171300000D01*
X158500000Y-166800000D02*
X155500000Y-166800000D01*
X159000000Y-167300000D02*
X158500000Y-166800000D01*
X159000000Y-167300000D02*
X159000000Y-168220000D01*
X159500000Y-173500000D02*
X159500000Y-172800000D01*
X159520000Y-168800000D02*
X164000000Y-168800000D01*
X164000000Y-168800000D02*
X164000000Y-169400000D01*
X164000000Y-173000000D02*
X164000000Y-173500000D01*
X164000000Y-173500000D02*
X159500000Y-173500000D01*
X157800000Y-171300000D02*
G75*
G02*
X159500000Y-172780000I110000J-1590000D01*
G01*
X159520000Y-168800000D02*
G75*
G02*
X159000000Y-168220000I30000J550000D01*
G01*
%TO.C,S38*%
X117500000Y-147800000D02*
X117000000Y-148300000D01*
X117500000Y-152300000D02*
X117000000Y-151800000D01*
X119800000Y-152300000D02*
X117500000Y-152300000D01*
X120500000Y-147800000D02*
X117500000Y-147800000D01*
X121000000Y-148300000D02*
X120500000Y-147800000D01*
X121000000Y-148300000D02*
X121000000Y-149220000D01*
X121500000Y-154500000D02*
X121500000Y-153800000D01*
X121520000Y-149800000D02*
X126000000Y-149800000D01*
X126000000Y-149800000D02*
X126000000Y-150400000D01*
X126000000Y-154000000D02*
X126000000Y-154500000D01*
X126000000Y-154500000D02*
X121500000Y-154500000D01*
X119800000Y-152300000D02*
G75*
G02*
X121500000Y-153780000I110000J-1590000D01*
G01*
X121520000Y-149800000D02*
G75*
G02*
X121000000Y-149220000I30000J550000D01*
G01*
%TO.C,S43*%
X136500000Y-109800000D02*
X136000000Y-110300000D01*
X136500000Y-114300000D02*
X136000000Y-113800000D01*
X138800000Y-114300000D02*
X136500000Y-114300000D01*
X139500000Y-109800000D02*
X136500000Y-109800000D01*
X140000000Y-110300000D02*
X139500000Y-109800000D01*
X140000000Y-110300000D02*
X140000000Y-111220000D01*
X140500000Y-116500000D02*
X140500000Y-115800000D01*
X140520000Y-111800000D02*
X145000000Y-111800000D01*
X145000000Y-111800000D02*
X145000000Y-112400000D01*
X145000000Y-116000000D02*
X145000000Y-116500000D01*
X145000000Y-116500000D02*
X140500000Y-116500000D01*
X138800000Y-114300000D02*
G75*
G02*
X140500000Y-115780000I110000J-1590000D01*
G01*
X140520000Y-111800000D02*
G75*
G02*
X140000000Y-111220000I30000J550000D01*
G01*
%TO.C,S48*%
X174500000Y-166800000D02*
X174000000Y-167300000D01*
X174500000Y-171300000D02*
X174000000Y-170800000D01*
X176800000Y-171300000D02*
X174500000Y-171300000D01*
X177500000Y-166800000D02*
X174500000Y-166800000D01*
X178000000Y-167300000D02*
X177500000Y-166800000D01*
X178000000Y-167300000D02*
X178000000Y-168220000D01*
X178500000Y-173500000D02*
X178500000Y-172800000D01*
X178520000Y-168800000D02*
X183000000Y-168800000D01*
X183000000Y-168800000D02*
X183000000Y-169400000D01*
X183000000Y-173000000D02*
X183000000Y-173500000D01*
X183000000Y-173500000D02*
X178500000Y-173500000D01*
X176800000Y-171300000D02*
G75*
G02*
X178500000Y-172780000I110000J-1590000D01*
G01*
X178520000Y-168800000D02*
G75*
G02*
X178000000Y-168220000I30000J550000D01*
G01*
%TO.C,S46*%
X155500000Y-128800000D02*
X155000000Y-129300000D01*
X155500000Y-133300000D02*
X155000000Y-132800000D01*
X157800000Y-133300000D02*
X155500000Y-133300000D01*
X158500000Y-128800000D02*
X155500000Y-128800000D01*
X159000000Y-129300000D02*
X158500000Y-128800000D01*
X159000000Y-129300000D02*
X159000000Y-130220000D01*
X159500000Y-135500000D02*
X159500000Y-134800000D01*
X159520000Y-130800000D02*
X164000000Y-130800000D01*
X164000000Y-130800000D02*
X164000000Y-131400000D01*
X164000000Y-135000000D02*
X164000000Y-135500000D01*
X164000000Y-135500000D02*
X159500000Y-135500000D01*
X157800000Y-133300000D02*
G75*
G02*
X159500000Y-134780000I110000J-1590000D01*
G01*
X159520000Y-130800000D02*
G75*
G02*
X159000000Y-130220000I30000J550000D01*
G01*
%TO.C,S50*%
X174500000Y-128800000D02*
X174000000Y-129300000D01*
X174500000Y-133300000D02*
X174000000Y-132800000D01*
X176800000Y-133300000D02*
X174500000Y-133300000D01*
X177500000Y-128800000D02*
X174500000Y-128800000D01*
X178000000Y-129300000D02*
X177500000Y-128800000D01*
X178000000Y-129300000D02*
X178000000Y-130220000D01*
X178500000Y-135500000D02*
X178500000Y-134800000D01*
X178520000Y-130800000D02*
X183000000Y-130800000D01*
X183000000Y-130800000D02*
X183000000Y-131400000D01*
X183000000Y-135000000D02*
X183000000Y-135500000D01*
X183000000Y-135500000D02*
X178500000Y-135500000D01*
X176800000Y-133300000D02*
G75*
G02*
X178500000Y-134780000I110000J-1590000D01*
G01*
X178520000Y-130800000D02*
G75*
G02*
X178000000Y-130220000I30000J550000D01*
G01*
%TO.C,S36*%
X98500000Y-128800000D02*
X98000000Y-129300000D01*
X98500000Y-133300000D02*
X98000000Y-132800000D01*
X100800000Y-133300000D02*
X98500000Y-133300000D01*
X101500000Y-128800000D02*
X98500000Y-128800000D01*
X102000000Y-129300000D02*
X101500000Y-128800000D01*
X102000000Y-129300000D02*
X102000000Y-130220000D01*
X102500000Y-135500000D02*
X102500000Y-134800000D01*
X102520000Y-130800000D02*
X107000000Y-130800000D01*
X107000000Y-130800000D02*
X107000000Y-131400000D01*
X107000000Y-135000000D02*
X107000000Y-135500000D01*
X107000000Y-135500000D02*
X102500000Y-135500000D01*
X100800000Y-133300000D02*
G75*
G02*
X102500000Y-134780000I110000J-1590000D01*
G01*
X102520000Y-130800000D02*
G75*
G02*
X102000000Y-130220000I30000J550000D01*
G01*
%TO.C,S40*%
X117500000Y-109800000D02*
X117000000Y-110300000D01*
X117500000Y-114300000D02*
X117000000Y-113800000D01*
X119800000Y-114300000D02*
X117500000Y-114300000D01*
X120500000Y-109800000D02*
X117500000Y-109800000D01*
X121000000Y-110300000D02*
X120500000Y-109800000D01*
X121000000Y-110300000D02*
X121000000Y-111220000D01*
X121500000Y-116500000D02*
X121500000Y-115800000D01*
X121520000Y-111800000D02*
X126000000Y-111800000D01*
X126000000Y-111800000D02*
X126000000Y-112400000D01*
X126000000Y-116000000D02*
X126000000Y-116500000D01*
X126000000Y-116500000D02*
X121500000Y-116500000D01*
X119800000Y-114300000D02*
G75*
G02*
X121500000Y-115780000I110000J-1590000D01*
G01*
X121520000Y-111800000D02*
G75*
G02*
X121000000Y-111220000I30000J550000D01*
G01*
D13*
%TO.C,PWR1*%
X185230000Y-110125000D02*
X185230000Y-109335000D01*
X185830000Y-108325000D02*
X191530000Y-108325000D01*
X187080000Y-111175000D02*
X188780000Y-111175000D01*
X190080000Y-111175000D02*
X190280000Y-111175000D01*
X192130000Y-109335000D02*
X192130000Y-110125000D01*
D11*
%TO.C,S51*%
X174500000Y-109800000D02*
X174000000Y-110300000D01*
X174500000Y-114300000D02*
X174000000Y-113800000D01*
X176800000Y-114300000D02*
X174500000Y-114300000D01*
X177500000Y-109800000D02*
X174500000Y-109800000D01*
X178000000Y-110300000D02*
X177500000Y-109800000D01*
X178000000Y-110300000D02*
X178000000Y-111220000D01*
X178500000Y-116500000D02*
X178500000Y-115800000D01*
X178520000Y-111800000D02*
X183000000Y-111800000D01*
X183000000Y-111800000D02*
X183000000Y-112400000D01*
X183000000Y-116000000D02*
X183000000Y-116500000D01*
X183000000Y-116500000D02*
X178500000Y-116500000D01*
X176800000Y-114300000D02*
G75*
G02*
X178500000Y-115780000I110000J-1590000D01*
G01*
X178520000Y-111800000D02*
G75*
G02*
X178000000Y-111220000I30000J550000D01*
G01*
%TO.C,S53*%
X213500000Y-147800000D02*
X213000000Y-148300000D01*
X213500000Y-152300000D02*
X213000000Y-151800000D01*
X215800000Y-152300000D02*
X213500000Y-152300000D01*
X216500000Y-147800000D02*
X213500000Y-147800000D01*
X217000000Y-148300000D02*
X216500000Y-147800000D01*
X217000000Y-148300000D02*
X217000000Y-149220000D01*
X217500000Y-154500000D02*
X217500000Y-153800000D01*
X217520000Y-149800000D02*
X222000000Y-149800000D01*
X222000000Y-149800000D02*
X222000000Y-150400000D01*
X222000000Y-154000000D02*
X222000000Y-154500000D01*
X222000000Y-154500000D02*
X217500000Y-154500000D01*
X215800000Y-152300000D02*
G75*
G02*
X217500000Y-153780000I110000J-1590000D01*
G01*
X217520000Y-149800000D02*
G75*
G02*
X217000000Y-149220000I30000J550000D01*
G01*
%TO.C,S56*%
X232500000Y-166800000D02*
X232000000Y-167300000D01*
X232500000Y-171300000D02*
X232000000Y-170800000D01*
X234800000Y-171300000D02*
X232500000Y-171300000D01*
X235500000Y-166800000D02*
X232500000Y-166800000D01*
X236000000Y-167300000D02*
X235500000Y-166800000D01*
X236000000Y-167300000D02*
X236000000Y-168220000D01*
X236500000Y-173500000D02*
X236500000Y-172800000D01*
X236520000Y-168800000D02*
X241000000Y-168800000D01*
X241000000Y-168800000D02*
X241000000Y-169400000D01*
X241000000Y-173000000D02*
X241000000Y-173500000D01*
X241000000Y-173500000D02*
X236500000Y-173500000D01*
X234800000Y-171300000D02*
G75*
G02*
X236500000Y-172780000I110000J-1590000D01*
G01*
X236520000Y-168800000D02*
G75*
G02*
X236000000Y-168220000I30000J550000D01*
G01*
%TO.C,S60*%
X251500000Y-147800000D02*
X251000000Y-148300000D01*
X251500000Y-152300000D02*
X251000000Y-151800000D01*
X253800000Y-152300000D02*
X251500000Y-152300000D01*
X254500000Y-147800000D02*
X251500000Y-147800000D01*
X255000000Y-148300000D02*
X254500000Y-147800000D01*
X255000000Y-148300000D02*
X255000000Y-149220000D01*
X255500000Y-154500000D02*
X255500000Y-153800000D01*
X255520000Y-149800000D02*
X260000000Y-149800000D01*
X260000000Y-149800000D02*
X260000000Y-150400000D01*
X260000000Y-154000000D02*
X260000000Y-154500000D01*
X260000000Y-154500000D02*
X255500000Y-154500000D01*
X253800000Y-152300000D02*
G75*
G02*
X255500000Y-153780000I110000J-1590000D01*
G01*
X255520000Y-149800000D02*
G75*
G02*
X255000000Y-149220000I30000J550000D01*
G01*
%TO.C,S61*%
X251500000Y-128800000D02*
X251000000Y-129300000D01*
X251500000Y-133300000D02*
X251000000Y-132800000D01*
X253800000Y-133300000D02*
X251500000Y-133300000D01*
X254500000Y-128800000D02*
X251500000Y-128800000D01*
X255000000Y-129300000D02*
X254500000Y-128800000D01*
X255000000Y-129300000D02*
X255000000Y-130220000D01*
X255500000Y-135500000D02*
X255500000Y-134800000D01*
X255520000Y-130800000D02*
X260000000Y-130800000D01*
X260000000Y-130800000D02*
X260000000Y-131400000D01*
X260000000Y-135000000D02*
X260000000Y-135500000D01*
X260000000Y-135500000D02*
X255500000Y-135500000D01*
X253800000Y-133300000D02*
G75*
G02*
X255500000Y-134780000I110000J-1590000D01*
G01*
X255520000Y-130800000D02*
G75*
G02*
X255000000Y-130220000I30000J550000D01*
G01*
%TO.C,S66*%
X289500000Y-147800000D02*
X289000000Y-148300000D01*
X289500000Y-152300000D02*
X289000000Y-151800000D01*
X291800000Y-152300000D02*
X289500000Y-152300000D01*
X292500000Y-147800000D02*
X289500000Y-147800000D01*
X293000000Y-148300000D02*
X292500000Y-147800000D01*
X293000000Y-148300000D02*
X293000000Y-149220000D01*
X293500000Y-154500000D02*
X293500000Y-153800000D01*
X293520000Y-149800000D02*
X298000000Y-149800000D01*
X298000000Y-149800000D02*
X298000000Y-150400000D01*
X298000000Y-154000000D02*
X298000000Y-154500000D01*
X298000000Y-154500000D02*
X293500000Y-154500000D01*
X291800000Y-152300000D02*
G75*
G02*
X293500000Y-153780000I110000J-1590000D01*
G01*
X293520000Y-149800000D02*
G75*
G02*
X293000000Y-149220000I30000J550000D01*
G01*
%TD*%
M02*
