%TF.GenerationSoftware,KiCad,Pcbnew,9.0.1*%
%TF.CreationDate,2025-05-04T05:29:54+08:00*%
%TF.ProjectId,board,626f6172-642e-46b6-9963-61645f706362,v1.0.0*%
%TF.SameCoordinates,Original*%
%TF.FileFunction,Paste,Top*%
%TF.FilePolarity,Positive*%
%FSLAX46Y46*%
G04 Gerber Fmt 4.6, Leading zero omitted, Abs format (unit mm)*
G04 Created by KiCad (PCBNEW 9.0.1) date 2025-05-04 05:29:54*
%MOMM*%
%LPD*%
G01*
G04 APERTURE LIST*
%ADD10R,0.900000X1.200000*%
G04 APERTURE END LIST*
D10*
%TO.C,D23*%
X232350000Y-161320000D03*
X235650000Y-161320000D03*
%TD*%
%TO.C,D13*%
X155350000Y-123320000D03*
X158650000Y-123320000D03*
%TD*%
%TO.C,D10*%
X155350000Y-180320000D03*
X158650000Y-180320000D03*
%TD*%
%TO.C,D31*%
X270350000Y-123320000D03*
X273650000Y-123320000D03*
%TD*%
%TO.C,D33*%
X289350000Y-142320000D03*
X292650000Y-142320000D03*
%TD*%
%TO.C,D29*%
X270350000Y-161320000D03*
X273650000Y-161320000D03*
%TD*%
%TO.C,D9*%
X136350000Y-123320000D03*
X139650000Y-123320000D03*
%TD*%
%TO.C,D1*%
X98350000Y-161320000D03*
X101650000Y-161320000D03*
%TD*%
%TO.C,D32*%
X289350000Y-161320000D03*
X292650000Y-161320000D03*
%TD*%
%TO.C,D17*%
X174350000Y-123320000D03*
X177650000Y-123320000D03*
%TD*%
%TO.C,D6*%
X117350000Y-123320000D03*
X120650000Y-123320000D03*
%TD*%
%TO.C,D18*%
X213350000Y-180320000D03*
X216650000Y-180320000D03*
%TD*%
%TO.C,D20*%
X213350000Y-142320000D03*
X216650000Y-142320000D03*
%TD*%
%TO.C,D2*%
X98350000Y-142320000D03*
X101650000Y-142320000D03*
%TD*%
%TO.C,D4*%
X117350000Y-161320000D03*
X120650000Y-161320000D03*
%TD*%
%TO.C,D25*%
X232350000Y-123320000D03*
X235650000Y-123320000D03*
%TD*%
%TO.C,D21*%
X213350000Y-123320000D03*
X216650000Y-123320000D03*
%TD*%
%TO.C,D8*%
X136350000Y-142320000D03*
X139650000Y-142320000D03*
%TD*%
%TO.C,D19*%
X213350000Y-161320000D03*
X216650000Y-161320000D03*
%TD*%
%TO.C,D5*%
X117350000Y-142320000D03*
X120650000Y-142320000D03*
%TD*%
%TO.C,D3*%
X98350000Y-123320000D03*
X101650000Y-123320000D03*
%TD*%
%TO.C,D16*%
X174350000Y-142320000D03*
X177650000Y-142320000D03*
%TD*%
%TO.C,D7*%
X136350000Y-161320000D03*
X139650000Y-161320000D03*
%TD*%
%TO.C,D15*%
X174350000Y-161320000D03*
X177650000Y-161320000D03*
%TD*%
%TO.C,D22*%
X232350000Y-180320000D03*
X235650000Y-180320000D03*
%TD*%
%TO.C,D34*%
X289350000Y-123320000D03*
X292650000Y-123320000D03*
%TD*%
%TO.C,D11*%
X155350000Y-161320000D03*
X158650000Y-161320000D03*
%TD*%
%TO.C,D14*%
X174350000Y-180320000D03*
X177650000Y-180320000D03*
%TD*%
%TO.C,D24*%
X232350000Y-142320000D03*
X235650000Y-142320000D03*
%TD*%
%TO.C,D26*%
X251350000Y-161320000D03*
X254650000Y-161320000D03*
%TD*%
%TO.C,D28*%
X251350000Y-123320000D03*
X254650000Y-123320000D03*
%TD*%
%TO.C,D30*%
X270350000Y-142320000D03*
X273650000Y-142320000D03*
%TD*%
%TO.C,D12*%
X155350000Y-142320000D03*
X158650000Y-142320000D03*
%TD*%
%TO.C,D27*%
X251350000Y-142320000D03*
X254650000Y-142320000D03*
%TD*%
M02*
