%TF.GenerationSoftware,KiCad,Pcbnew,9.0.1*%
%TF.CreationDate,2025-05-05T07:00:38+08:00*%
%TF.ProjectId,board,626f6172-642e-46b6-9963-61645f706362,v1.0.0*%
%TF.SameCoordinates,Original*%
%TF.FileFunction,Paste,Bot*%
%TF.FilePolarity,Positive*%
%FSLAX46Y46*%
G04 Gerber Fmt 4.6, Leading zero omitted, Abs format (unit mm)*
G04 Created by KiCad (PCBNEW 9.0.1) date 2025-05-05 07:00:38*
%MOMM*%
%LPD*%
G01*
G04 APERTURE LIST*
G04 Aperture macros list*
%AMRoundRect*
0 Rectangle with rounded corners*
0 $1 Rounding radius*
0 $2 $3 $4 $5 $6 $7 $8 $9 X,Y pos of 4 corners*
0 Add a 4 corners polygon primitive as box body*
4,1,4,$2,$3,$4,$5,$6,$7,$8,$9,$2,$3,0*
0 Add four circle primitives for the rounded corners*
1,1,$1+$1,$2,$3*
1,1,$1+$1,$4,$5*
1,1,$1+$1,$6,$7*
1,1,$1+$1,$8,$9*
0 Add four rect primitives between the rounded corners*
20,1,$1+$1,$2,$3,$4,$5,0*
20,1,$1+$1,$4,$5,$6,$7,0*
20,1,$1+$1,$6,$7,$8,$9,0*
20,1,$1+$1,$8,$9,$2,$3,0*%
G04 Aperture macros list end*
%ADD10R,1.200000X0.900000*%
%ADD11RoundRect,0.250000X-1.050000X-1.000000X1.050000X-1.000000X1.050000X1.000000X-1.050000X1.000000X0*%
%ADD12R,2.600000X2.600000*%
%ADD13RoundRect,0.175000X0.175000X0.225000X-0.175000X0.225000X-0.175000X-0.225000X0.175000X-0.225000X0*%
%ADD14RoundRect,0.150000X0.150000X0.275000X-0.150000X0.275000X-0.150000X-0.275000X0.150000X-0.275000X0*%
%ADD15R,1.550000X1.000000*%
%ADD16R,1.000000X0.800000*%
%ADD17R,0.700000X1.500000*%
G04 APERTURE END LIST*
D10*
%TO.C,D29*%
X265540000Y-152330000D03*
X265540000Y-149030000D03*
%TD*%
%TO.C,D12*%
X150540000Y-133330000D03*
X150540000Y-130030000D03*
%TD*%
%TO.C,D23*%
X227540000Y-152330000D03*
X227540000Y-149030000D03*
%TD*%
%TO.C,D4*%
X112540000Y-152330000D03*
X112540000Y-149030000D03*
%TD*%
%TO.C,D16*%
X169540000Y-133330000D03*
X169540000Y-130030000D03*
%TD*%
%TO.C,D14*%
X169540000Y-171330000D03*
X169540000Y-168030000D03*
%TD*%
%TO.C,D1*%
X93540000Y-152330000D03*
X93540000Y-149030000D03*
%TD*%
%TO.C,D21*%
X208540000Y-114330000D03*
X208540000Y-111030000D03*
%TD*%
%TO.C,D30*%
X265540000Y-133330000D03*
X265540000Y-130030000D03*
%TD*%
%TO.C,D20*%
X208540000Y-133330000D03*
X208540000Y-130030000D03*
%TD*%
%TO.C,D11*%
X150540000Y-152330000D03*
X150540000Y-149030000D03*
%TD*%
%TO.C,D5*%
X112540000Y-133330000D03*
X112540000Y-130030000D03*
%TD*%
%TO.C,D19*%
X208540000Y-152330000D03*
X208540000Y-149030000D03*
%TD*%
%TO.C,D2*%
X93540000Y-133330000D03*
X93540000Y-130030000D03*
%TD*%
%TO.C,D7*%
X131540000Y-152330000D03*
X131540000Y-149030000D03*
%TD*%
%TO.C,D31*%
X265540000Y-114330000D03*
X265540000Y-111030000D03*
%TD*%
%TO.C,D13*%
X150540000Y-114330000D03*
X150540000Y-111030000D03*
%TD*%
%TO.C,D24*%
X227540000Y-133330000D03*
X227540000Y-130030000D03*
%TD*%
%TO.C,D15*%
X169540000Y-152330000D03*
X169540000Y-149030000D03*
%TD*%
%TO.C,D28*%
X246540000Y-114330000D03*
X246540000Y-111030000D03*
%TD*%
%TO.C,D26*%
X246540000Y-152330000D03*
X246540000Y-149030000D03*
%TD*%
%TO.C,D8*%
X131540000Y-133330000D03*
X131540000Y-130030000D03*
%TD*%
%TO.C,D22*%
X227540000Y-171330000D03*
X227540000Y-168030000D03*
%TD*%
%TO.C,D3*%
X93540000Y-114330000D03*
X93540000Y-111030000D03*
%TD*%
%TO.C,D27*%
X246540000Y-133330000D03*
X246540000Y-130030000D03*
%TD*%
%TO.C,D10*%
X150540000Y-171330000D03*
X150540000Y-168030000D03*
%TD*%
%TO.C,D17*%
X169540000Y-114330000D03*
X169540000Y-111030000D03*
%TD*%
%TO.C,D25*%
X227540000Y-114330000D03*
X227540000Y-111030000D03*
%TD*%
%TO.C,D34*%
X284540000Y-114330000D03*
X284540000Y-111030000D03*
%TD*%
%TO.C,D9*%
X131540000Y-114330000D03*
X131540000Y-111030000D03*
%TD*%
%TO.C,D6*%
X112540000Y-114330000D03*
X112540000Y-111030000D03*
%TD*%
%TO.C,D18*%
X208540000Y-171330000D03*
X208540000Y-168030000D03*
%TD*%
%TO.C,D33*%
X284540000Y-133330000D03*
X284540000Y-130030000D03*
%TD*%
%TO.C,D32*%
X284540000Y-152330000D03*
X284540000Y-149030000D03*
%TD*%
D11*
%TO.C,S31*%
X263950000Y-122700000D03*
X278250000Y-123750000D03*
%TD*%
%TO.C,S7*%
X129950000Y-160700000D03*
X144250000Y-161750000D03*
%TD*%
D12*
%TO.C,S65*%
X268725000Y-112050000D03*
X280275000Y-114250000D03*
%TD*%
%TO.C,S49*%
X172725000Y-150050000D03*
X184275000Y-152250000D03*
%TD*%
%TO.C,S42*%
X134725000Y-131050000D03*
X146275000Y-133250000D03*
%TD*%
D13*
%TO.C,CONN1*%
X193750000Y-130900000D03*
X197250000Y-130900000D03*
D14*
X196100000Y-127125000D03*
X194900000Y-127125000D03*
%TD*%
D11*
%TO.C,S4*%
X110950000Y-160700000D03*
X125250000Y-161750000D03*
%TD*%
D12*
%TO.C,S64*%
X268725000Y-131050000D03*
X280275000Y-133250000D03*
%TD*%
%TO.C,S63*%
X268725000Y-150050000D03*
X280275000Y-152250000D03*
%TD*%
D11*
%TO.C,S29*%
X263950000Y-160700000D03*
X278250000Y-161750000D03*
%TD*%
%TO.C,S26*%
X244950000Y-160700000D03*
X259250000Y-161750000D03*
%TD*%
D12*
%TO.C,S59*%
X230725000Y-112050000D03*
X242275000Y-114250000D03*
%TD*%
D11*
%TO.C,S16*%
X167950000Y-141700000D03*
X182250000Y-142750000D03*
%TD*%
%TO.C,S6*%
X110950000Y-122700000D03*
X125250000Y-123750000D03*
%TD*%
%TO.C,S5*%
X110950000Y-141700000D03*
X125250000Y-142750000D03*
%TD*%
%TO.C,S1*%
X91950000Y-160700000D03*
X106250000Y-161750000D03*
%TD*%
D12*
%TO.C,S39*%
X115725000Y-131050000D03*
X127275000Y-133250000D03*
%TD*%
%TO.C,S41*%
X134725000Y-150050000D03*
X146275000Y-152250000D03*
%TD*%
D11*
%TO.C,S2*%
X91950000Y-141700000D03*
X106250000Y-142750000D03*
%TD*%
D12*
%TO.C,S47*%
X153725000Y-112050000D03*
X165275000Y-114250000D03*
%TD*%
%TO.C,S55*%
X211725000Y-112050000D03*
X223275000Y-114250000D03*
%TD*%
D11*
%TO.C,S24*%
X225950000Y-141700000D03*
X240250000Y-142750000D03*
%TD*%
D12*
%TO.C,S52*%
X211725000Y-169050000D03*
X223275000Y-171250000D03*
%TD*%
D11*
%TO.C,S12*%
X148950000Y-141700000D03*
X163250000Y-142750000D03*
%TD*%
D12*
%TO.C,S35*%
X96725000Y-150050000D03*
X108275000Y-152250000D03*
%TD*%
D11*
%TO.C,S14*%
X167950000Y-179700000D03*
X182250000Y-180750000D03*
%TD*%
%TO.C,S33*%
X282950000Y-141700000D03*
X297250000Y-142750000D03*
%TD*%
D12*
%TO.C,S45*%
X153725000Y-150050000D03*
X165275000Y-152250000D03*
%TD*%
%TO.C,S57*%
X230725000Y-150050000D03*
X242275000Y-152250000D03*
%TD*%
%TO.C,S54*%
X211725000Y-131050000D03*
X223275000Y-133250000D03*
%TD*%
%TO.C,S62*%
X249725000Y-112050000D03*
X261275000Y-114250000D03*
%TD*%
%TO.C,S37*%
X96725000Y-112050000D03*
X108275000Y-114250000D03*
%TD*%
D15*
%TO.C,RST1*%
X199255000Y-109150000D03*
X199255000Y-110850000D03*
X204505000Y-109150000D03*
X204505000Y-110850000D03*
%TD*%
D11*
%TO.C,S15*%
X167950000Y-160700000D03*
X182250000Y-161750000D03*
%TD*%
%TO.C,S30*%
X263950000Y-141700000D03*
X278250000Y-142750000D03*
%TD*%
D12*
%TO.C,S68*%
X287725000Y-112050000D03*
X299275000Y-114250000D03*
%TD*%
%TO.C,S58*%
X230725000Y-131050000D03*
X242275000Y-133250000D03*
%TD*%
D11*
%TO.C,S8*%
X129950000Y-141700000D03*
X144250000Y-142750000D03*
%TD*%
%TO.C,S9*%
X129950000Y-122700000D03*
X144250000Y-123750000D03*
%TD*%
D12*
%TO.C,S67*%
X287725000Y-131050000D03*
X299275000Y-133250000D03*
%TD*%
D11*
%TO.C,S22*%
X225950000Y-179700000D03*
X240250000Y-180750000D03*
%TD*%
D12*
%TO.C,S44*%
X153725000Y-169050000D03*
X165275000Y-171250000D03*
%TD*%
%TO.C,S38*%
X115725000Y-150050000D03*
X127275000Y-152250000D03*
%TD*%
D11*
%TO.C,S13*%
X148950000Y-122700000D03*
X163250000Y-123750000D03*
%TD*%
%TO.C,S23*%
X225950000Y-160700000D03*
X240250000Y-161750000D03*
%TD*%
D12*
%TO.C,S43*%
X134725000Y-112050000D03*
X146275000Y-114250000D03*
%TD*%
D11*
%TO.C,S3*%
X91950000Y-122700000D03*
X106250000Y-123750000D03*
%TD*%
D12*
%TO.C,S48*%
X172725000Y-169050000D03*
X184275000Y-171250000D03*
%TD*%
D11*
%TO.C,S34*%
X282950000Y-122700000D03*
X297250000Y-123750000D03*
%TD*%
%TO.C,S25*%
X225950000Y-122700000D03*
X240250000Y-123750000D03*
%TD*%
D12*
%TO.C,S46*%
X153725000Y-131050000D03*
X165275000Y-133250000D03*
%TD*%
D11*
%TO.C,S10*%
X148950000Y-179700000D03*
X163250000Y-180750000D03*
%TD*%
%TO.C,S28*%
X244950000Y-122700000D03*
X259250000Y-123750000D03*
%TD*%
D12*
%TO.C,S50*%
X172725000Y-131050000D03*
X184275000Y-133250000D03*
%TD*%
D11*
%TO.C,S20*%
X206950000Y-141700000D03*
X221250000Y-142750000D03*
%TD*%
D12*
%TO.C,S36*%
X96725000Y-131050000D03*
X108275000Y-133250000D03*
%TD*%
%TO.C,S40*%
X115725000Y-112050000D03*
X127275000Y-114250000D03*
%TD*%
D11*
%TO.C,S17*%
X167950000Y-122700000D03*
X182250000Y-123750000D03*
%TD*%
D16*
%TO.C,PWR1*%
X185030000Y-110835000D03*
X192330000Y-110835000D03*
X185030000Y-108625000D03*
X192330000Y-108625000D03*
D17*
X186430000Y-111485000D03*
X189430000Y-111485000D03*
X190930000Y-111485000D03*
%TD*%
D11*
%TO.C,S27*%
X244950000Y-141700000D03*
X259250000Y-142750000D03*
%TD*%
D12*
%TO.C,S51*%
X172725000Y-112050000D03*
X184275000Y-114250000D03*
%TD*%
%TO.C,S53*%
X211725000Y-150050000D03*
X223275000Y-152250000D03*
%TD*%
D11*
%TO.C,S21*%
X206950000Y-122700000D03*
X221250000Y-123750000D03*
%TD*%
%TO.C,S11*%
X148950000Y-160700000D03*
X163250000Y-161750000D03*
%TD*%
D12*
%TO.C,S56*%
X230725000Y-169050000D03*
X242275000Y-171250000D03*
%TD*%
D11*
%TO.C,S18*%
X206950000Y-179700000D03*
X221250000Y-180750000D03*
%TD*%
D12*
%TO.C,S60*%
X249725000Y-150050000D03*
X261275000Y-152250000D03*
%TD*%
%TO.C,S61*%
X249725000Y-131050000D03*
X261275000Y-133250000D03*
%TD*%
%TO.C,S66*%
X287725000Y-150050000D03*
X299275000Y-152250000D03*
%TD*%
D11*
%TO.C,S32*%
X282950000Y-160700000D03*
X297250000Y-161750000D03*
%TD*%
%TO.C,S19*%
X206950000Y-160700000D03*
X221250000Y-161750000D03*
%TD*%
M02*
