%TF.GenerationSoftware,KiCad,Pcbnew,9.0.1*%
%TF.CreationDate,2025-05-04T05:29:55+08:00*%
%TF.ProjectId,board,626f6172-642e-46b6-9963-61645f706362,v1.0.0*%
%TF.SameCoordinates,Original*%
%TF.FileFunction,Profile,NP*%
%FSLAX46Y46*%
G04 Gerber Fmt 4.6, Leading zero omitted, Abs format (unit mm)*
G04 Created by KiCad (PCBNEW 9.0.1) date 2025-05-04 05:29:55*
%MOMM*%
%LPD*%
G01*
G04 APERTURE LIST*
%TA.AperFunction,Profile*%
%ADD10C,0.150000*%
%TD*%
G04 APERTURE END LIST*
D10*
X186550000Y-143325000D02*
X204450000Y-143325000D01*
X299950000Y-165750000D02*
X244550000Y-165750000D01*
X90250000Y-109050000D02*
G75*
G02*
X91050000Y-108250000I800000J0D01*
G01*
X91050000Y-108250000D02*
X299950000Y-108250000D01*
X299950000Y-108250000D02*
G75*
G02*
X300750000Y-109050000I0J-800000D01*
G01*
X146450000Y-165750000D02*
G75*
G02*
X147250000Y-166550000I0J-800000D01*
G01*
X185750000Y-183950000D02*
X185750000Y-144125000D01*
X184950000Y-184750000D02*
X148050000Y-184750000D01*
X185750000Y-183950000D02*
G75*
G02*
X184950000Y-184750000I-800000J0D01*
G01*
X300750000Y-109050000D02*
X300750000Y-164950000D01*
X243750000Y-166550000D02*
X243750000Y-183950000D01*
X147250000Y-183950000D02*
X147250000Y-166550000D01*
X206050000Y-184750000D02*
G75*
G02*
X205250000Y-183950000I0J800000D01*
G01*
X185750000Y-144125000D02*
G75*
G02*
X186550000Y-143325000I800000J0D01*
G01*
X146450000Y-165750000D02*
X91050000Y-165750000D01*
X90250000Y-164950000D02*
X90250000Y-109050000D01*
X204450000Y-143325000D02*
G75*
G02*
X205250000Y-144125000I0J-800000D01*
G01*
X242950000Y-184750000D02*
X206050000Y-184750000D01*
X148050000Y-184750000D02*
G75*
G02*
X147250000Y-183950000I0J800000D01*
G01*
X91050000Y-165750000D02*
G75*
G02*
X90250000Y-164950000I0J800000D01*
G01*
X205250000Y-144125000D02*
X205250000Y-183950000D01*
X300750000Y-164950000D02*
G75*
G02*
X299950000Y-165750000I-800000J0D01*
G01*
X243750000Y-183950000D02*
G75*
G02*
X242950000Y-184750000I-800000J0D01*
G01*
X243750000Y-166550000D02*
G75*
G02*
X244550000Y-165750000I800000J0D01*
G01*
M02*
