%TF.GenerationSoftware,KiCad,Pcbnew,9.0.1*%
%TF.CreationDate,2025-05-05T17:51:07+08:00*%
%TF.ProjectId,board,626f6172-642e-46b6-9963-61645f706362,v1.0.0*%
%TF.SameCoordinates,Original*%
%TF.FileFunction,Copper,L2,Bot*%
%TF.FilePolarity,Positive*%
%FSLAX46Y46*%
G04 Gerber Fmt 4.6, Leading zero omitted, Abs format (unit mm)*
G04 Created by KiCad (PCBNEW 9.0.1) date 2025-05-05 17:51:07*
%MOMM*%
%LPD*%
G01*
G04 APERTURE LIST*
G04 Aperture macros list*
%AMRoundRect*
0 Rectangle with rounded corners*
0 $1 Rounding radius*
0 $2 $3 $4 $5 $6 $7 $8 $9 X,Y pos of 4 corners*
0 Add a 4 corners polygon primitive as box body*
4,1,4,$2,$3,$4,$5,$6,$7,$8,$9,$2,$3,0*
0 Add four circle primitives for the rounded corners*
1,1,$1+$1,$2,$3*
1,1,$1+$1,$4,$5*
1,1,$1+$1,$6,$7*
1,1,$1+$1,$8,$9*
0 Add four rect primitives between the rounded corners*
20,1,$1+$1,$2,$3,$4,$5,0*
20,1,$1+$1,$4,$5,$6,$7,0*
20,1,$1+$1,$6,$7,$8,$9,0*
20,1,$1+$1,$8,$9,$2,$3,0*%
G04 Aperture macros list end*
%TA.AperFunction,SMDPad,CuDef*%
%ADD10R,1.200000X0.900000*%
%TD*%
%TA.AperFunction,ComponentPad*%
%ADD11C,1.700000*%
%TD*%
%TA.AperFunction,ComponentPad*%
%ADD12C,5.600000*%
%TD*%
%TA.AperFunction,SMDPad,CuDef*%
%ADD13RoundRect,0.250000X-1.750000X-1.000000X1.750000X-1.000000X1.750000X1.000000X-1.750000X1.000000X0*%
%TD*%
%TA.AperFunction,ComponentPad*%
%ADD14C,3.500000*%
%TD*%
%TA.AperFunction,SMDPad,CuDef*%
%ADD15R,2.600000X2.600000*%
%TD*%
%TA.AperFunction,SMDPad,CuDef*%
%ADD16RoundRect,0.175000X0.175000X0.225000X-0.175000X0.225000X-0.175000X-0.225000X0.175000X-0.225000X0*%
%TD*%
%TA.AperFunction,SMDPad,CuDef*%
%ADD17RoundRect,0.150000X0.150000X0.275000X-0.150000X0.275000X-0.150000X-0.275000X0.150000X-0.275000X0*%
%TD*%
%TA.AperFunction,SMDPad,CuDef*%
%ADD18R,1.550000X1.000000*%
%TD*%
%TA.AperFunction,SMDPad,CuDef*%
%ADD19R,1.000000X0.800000*%
%TD*%
%TA.AperFunction,SMDPad,CuDef*%
%ADD20R,0.700000X1.500000*%
%TD*%
%TA.AperFunction,ViaPad*%
%ADD21C,0.600000*%
%TD*%
%TA.AperFunction,Conductor*%
%ADD22C,0.200000*%
%TD*%
%TA.AperFunction,Conductor*%
%ADD23C,0.250000*%
%TD*%
G04 APERTURE END LIST*
D10*
%TO.P,D29,1*%
%TO.N,P15*%
X265540000Y-152330000D03*
%TO.P,D29,2*%
%TO.N,rightring_bottom*%
X265540000Y-149030000D03*
%TD*%
%TO.P,D12,1*%
%TO.N,P18*%
X150540000Y-133330000D03*
%TO.P,D12,2*%
%TO.N,leftindex_home*%
X150540000Y-130030000D03*
%TD*%
%TO.P,D23,1*%
%TO.N,P15*%
X227540000Y-152330000D03*
%TO.P,D23,2*%
%TO.N,rightindex_bottom*%
X227540000Y-149030000D03*
%TD*%
%TO.P,D4,1*%
%TO.N,P15*%
X112540000Y-152330000D03*
%TO.P,D4,2*%
%TO.N,leftring_bottom*%
X112540000Y-149030000D03*
%TD*%
%TO.P,D16,1*%
%TO.N,P18*%
X169540000Y-133330000D03*
%TO.P,D16,2*%
%TO.N,leftinner_home*%
X169540000Y-130030000D03*
%TD*%
%TO.P,D14,1*%
%TO.N,P14*%
X169540000Y-171330000D03*
%TO.P,D14,2*%
%TO.N,leftinner_thumb*%
X169540000Y-168030000D03*
%TD*%
%TO.P,D1,1*%
%TO.N,P15*%
X93540000Y-152330000D03*
%TO.P,D1,2*%
%TO.N,leftpinky_bottom*%
X93540000Y-149030000D03*
%TD*%
%TO.P,D21,1*%
%TO.N,P19*%
X208540000Y-114330000D03*
%TO.P,D21,2*%
%TO.N,rightinner_top*%
X208540000Y-111030000D03*
%TD*%
%TO.P,D30,1*%
%TO.N,P18*%
X265540000Y-133330000D03*
%TO.P,D30,2*%
%TO.N,rightring_home*%
X265540000Y-130030000D03*
%TD*%
%TO.P,D20,1*%
%TO.N,P18*%
X208540000Y-133330000D03*
%TO.P,D20,2*%
%TO.N,rightinner_home*%
X208540000Y-130030000D03*
%TD*%
%TO.P,D11,1*%
%TO.N,P15*%
X150540000Y-152330000D03*
%TO.P,D11,2*%
%TO.N,leftindex_bottom*%
X150540000Y-149030000D03*
%TD*%
%TO.P,D5,1*%
%TO.N,P18*%
X112540000Y-133330000D03*
%TO.P,D5,2*%
%TO.N,leftring_home*%
X112540000Y-130030000D03*
%TD*%
%TO.P,D19,1*%
%TO.N,P15*%
X208540000Y-152330000D03*
%TO.P,D19,2*%
%TO.N,rightinner_bottom*%
X208540000Y-149030000D03*
%TD*%
D11*
%TO.P,MCU1,1*%
%TO.N,RAW*%
X203120000Y-112300000D03*
%TO.P,MCU1,2*%
%TO.N,GND*%
X203120000Y-114840000D03*
%TO.P,MCU1,3*%
%TO.N,RST*%
X203120000Y-117380000D03*
%TO.P,MCU1,4*%
%TO.N,VCC*%
X203120000Y-119920000D03*
%TO.P,MCU1,5*%
%TO.N,P21*%
X203120000Y-122460000D03*
%TO.P,MCU1,6*%
%TO.N,P20*%
X203120000Y-125000000D03*
%TO.P,MCU1,7*%
%TO.N,P19*%
X203120000Y-127540000D03*
%TO.P,MCU1,8*%
%TO.N,P18*%
X203120000Y-130080000D03*
%TO.P,MCU1,9*%
%TO.N,P15*%
X203120000Y-132620000D03*
%TO.P,MCU1,10*%
%TO.N,P14*%
X203120000Y-135160000D03*
%TO.P,MCU1,11*%
%TO.N,P16*%
X203120000Y-137700000D03*
%TO.P,MCU1,12*%
%TO.N,P10*%
X203120000Y-140240000D03*
%TO.P,MCU1,13*%
%TO.N,P9*%
X187880000Y-140240000D03*
%TO.P,MCU1,14*%
%TO.N,P8*%
X187880000Y-137700000D03*
%TO.P,MCU1,15*%
%TO.N,P7*%
X187880000Y-135160000D03*
%TO.P,MCU1,16*%
%TO.N,P6*%
X187880000Y-132620000D03*
%TO.P,MCU1,17*%
%TO.N,P5*%
X187880000Y-130080000D03*
%TO.P,MCU1,18*%
%TO.N,P4*%
X187880000Y-127540000D03*
%TO.P,MCU1,19*%
%TO.N,P3*%
X187880000Y-125000000D03*
%TO.P,MCU1,20*%
%TO.N,P2*%
X187880000Y-122460000D03*
%TO.P,MCU1,21*%
%TO.N,GND*%
X187880000Y-119920000D03*
%TO.P,MCU1,22*%
X187880000Y-117380000D03*
%TO.P,MCU1,23*%
%TO.N,P0*%
X187880000Y-114840000D03*
%TO.P,MCU1,24*%
%TO.N,P1*%
X187880000Y-112300000D03*
%TD*%
D10*
%TO.P,D2,1*%
%TO.N,P18*%
X93540000Y-133330000D03*
%TO.P,D2,2*%
%TO.N,leftpinky_home*%
X93540000Y-130030000D03*
%TD*%
%TO.P,D7,1*%
%TO.N,P15*%
X131540000Y-152330000D03*
%TO.P,D7,2*%
%TO.N,leftmiddle_bottom*%
X131540000Y-149030000D03*
%TD*%
%TO.P,D31,1*%
%TO.N,P19*%
X265540000Y-114330000D03*
%TO.P,D31,2*%
%TO.N,rightring_top*%
X265540000Y-111030000D03*
%TD*%
%TO.P,D13,1*%
%TO.N,P19*%
X150540000Y-114330000D03*
%TO.P,D13,2*%
%TO.N,leftindex_top*%
X150540000Y-111030000D03*
%TD*%
%TO.P,D24,1*%
%TO.N,P18*%
X227540000Y-133330000D03*
%TO.P,D24,2*%
%TO.N,rightindex_home*%
X227540000Y-130030000D03*
%TD*%
%TO.P,D15,1*%
%TO.N,P15*%
X169540000Y-152330000D03*
%TO.P,D15,2*%
%TO.N,leftinner_bottom*%
X169540000Y-149030000D03*
%TD*%
%TO.P,D28,1*%
%TO.N,P19*%
X246540000Y-114330000D03*
%TO.P,D28,2*%
%TO.N,rightmiddle_top*%
X246540000Y-111030000D03*
%TD*%
%TO.P,D26,1*%
%TO.N,P15*%
X246540000Y-152330000D03*
%TO.P,D26,2*%
%TO.N,rightmiddle_bottom*%
X246540000Y-149030000D03*
%TD*%
%TO.P,D8,1*%
%TO.N,P18*%
X131540000Y-133330000D03*
%TO.P,D8,2*%
%TO.N,leftmiddle_home*%
X131540000Y-130030000D03*
%TD*%
%TO.P,D22,1*%
%TO.N,P14*%
X227540000Y-171330000D03*
%TO.P,D22,2*%
%TO.N,rightindex_thumb*%
X227540000Y-168030000D03*
%TD*%
%TO.P,D3,1*%
%TO.N,P19*%
X93540000Y-114330000D03*
%TO.P,D3,2*%
%TO.N,leftpinky_top*%
X93540000Y-111030000D03*
%TD*%
%TO.P,D27,1*%
%TO.N,P18*%
X246540000Y-133330000D03*
%TO.P,D27,2*%
%TO.N,rightmiddle_home*%
X246540000Y-130030000D03*
%TD*%
%TO.P,D10,1*%
%TO.N,P14*%
X150540000Y-171330000D03*
%TO.P,D10,2*%
%TO.N,leftindex_thumb*%
X150540000Y-168030000D03*
%TD*%
%TO.P,D17,1*%
%TO.N,P19*%
X169540000Y-114330000D03*
%TO.P,D17,2*%
%TO.N,leftinner_top*%
X169540000Y-111030000D03*
%TD*%
%TO.P,D25,1*%
%TO.N,P19*%
X227540000Y-114330000D03*
%TO.P,D25,2*%
%TO.N,rightindex_top*%
X227540000Y-111030000D03*
%TD*%
%TO.P,D34,1*%
%TO.N,P19*%
X284540000Y-114330000D03*
%TO.P,D34,2*%
%TO.N,rightpinky_top*%
X284540000Y-111030000D03*
%TD*%
%TO.P,D9,1*%
%TO.N,P19*%
X131540000Y-114330000D03*
%TO.P,D9,2*%
%TO.N,leftmiddle_top*%
X131540000Y-111030000D03*
%TD*%
%TO.P,D6,1*%
%TO.N,P19*%
X112540000Y-114330000D03*
%TO.P,D6,2*%
%TO.N,leftring_top*%
X112540000Y-111030000D03*
%TD*%
%TO.P,D18,1*%
%TO.N,P14*%
X208540000Y-171330000D03*
%TO.P,D18,2*%
%TO.N,rightinner_thumb*%
X208540000Y-168030000D03*
%TD*%
%TO.P,D33,1*%
%TO.N,P18*%
X284540000Y-133330000D03*
%TO.P,D33,2*%
%TO.N,rightpinky_home*%
X284540000Y-130030000D03*
%TD*%
%TO.P,D32,1*%
%TO.N,P15*%
X284540000Y-152330000D03*
%TO.P,D32,2*%
%TO.N,rightpinky_bottom*%
X284540000Y-149030000D03*
%TD*%
D12*
%TO.P,S31,*%
%TO.N,*%
X272000000Y-118000000D03*
D13*
%TO.P,S31,1*%
%TO.N,P10*%
X264650000Y-122700000D03*
D14*
X267600000Y-122700000D03*
%TO.P,S31,2*%
%TO.N,rightring_top*%
X274600000Y-123750000D03*
D13*
X277550000Y-123750000D03*
%TD*%
D12*
%TO.P,S7,*%
%TO.N,*%
X138000000Y-156000000D03*
D13*
%TO.P,S7,1*%
%TO.N,P4*%
X130650000Y-160700000D03*
D14*
X133600000Y-160700000D03*
%TO.P,S7,2*%
%TO.N,leftmiddle_bottom*%
X140600000Y-161750000D03*
D13*
X143550000Y-161750000D03*
%TD*%
D15*
%TO.P,S65,1*%
%TO.N,P10*%
X268725000Y-112050000D03*
%TO.P,S65,2*%
%TO.N,rightring_top*%
X280275000Y-114250000D03*
%TD*%
%TO.P,S49,1*%
%TO.N,P6*%
X172725000Y-150050000D03*
%TO.P,S49,2*%
%TO.N,leftinner_bottom*%
X184275000Y-152250000D03*
%TD*%
%TO.P,S42,1*%
%TO.N,P4*%
X134725000Y-131050000D03*
%TO.P,S42,2*%
%TO.N,leftmiddle_home*%
X146275000Y-133250000D03*
%TD*%
D16*
%TO.P,CONN1,*%
%TO.N,*%
X193750000Y-130900000D03*
X197250000Y-130900000D03*
D17*
%TO.P,CONN1,1*%
%TO.N,GND*%
X196100000Y-127125000D03*
%TO.P,CONN1,2*%
%TO.N,BAT_P*%
X194900000Y-127125000D03*
%TD*%
D12*
%TO.P,S4,*%
%TO.N,*%
X119000000Y-156000000D03*
D13*
%TO.P,S4,1*%
%TO.N,P3*%
X111650000Y-160700000D03*
D14*
X114600000Y-160700000D03*
%TO.P,S4,2*%
%TO.N,leftring_bottom*%
X121600000Y-161750000D03*
D13*
X124550000Y-161750000D03*
%TD*%
D15*
%TO.P,S64,1*%
%TO.N,P10*%
X268725000Y-131050000D03*
%TO.P,S64,2*%
%TO.N,rightring_home*%
X280275000Y-133250000D03*
%TD*%
%TO.P,S63,1*%
%TO.N,P10*%
X268725000Y-150050000D03*
%TO.P,S63,2*%
%TO.N,rightring_bottom*%
X280275000Y-152250000D03*
%TD*%
D12*
%TO.P,S29,*%
%TO.N,*%
X272000000Y-156000000D03*
D13*
%TO.P,S29,1*%
%TO.N,P10*%
X264650000Y-160700000D03*
D14*
X267600000Y-160700000D03*
%TO.P,S29,2*%
%TO.N,rightring_bottom*%
X274600000Y-161750000D03*
D13*
X277550000Y-161750000D03*
%TD*%
D12*
%TO.P,S26,*%
%TO.N,*%
X253000000Y-156000000D03*
D13*
%TO.P,S26,1*%
%TO.N,P9*%
X245650000Y-160700000D03*
D14*
X248600000Y-160700000D03*
%TO.P,S26,2*%
%TO.N,rightmiddle_bottom*%
X255600000Y-161750000D03*
D13*
X258550000Y-161750000D03*
%TD*%
D15*
%TO.P,S59,1*%
%TO.N,P8*%
X230725000Y-112050000D03*
%TO.P,S59,2*%
%TO.N,rightindex_top*%
X242275000Y-114250000D03*
%TD*%
D12*
%TO.P,S16,*%
%TO.N,*%
X176000000Y-137000000D03*
D13*
%TO.P,S16,1*%
%TO.N,P6*%
X168650000Y-141700000D03*
D14*
X171600000Y-141700000D03*
%TO.P,S16,2*%
%TO.N,leftinner_home*%
X178600000Y-142750000D03*
D13*
X181550000Y-142750000D03*
%TD*%
D12*
%TO.P,S6,*%
%TO.N,*%
X119000000Y-118000000D03*
D13*
%TO.P,S6,1*%
%TO.N,P3*%
X111650000Y-122700000D03*
D14*
X114600000Y-122700000D03*
%TO.P,S6,2*%
%TO.N,leftring_top*%
X121600000Y-123750000D03*
D13*
X124550000Y-123750000D03*
%TD*%
D12*
%TO.P,S5,*%
%TO.N,*%
X119000000Y-137000000D03*
D13*
%TO.P,S5,1*%
%TO.N,P3*%
X111650000Y-141700000D03*
D14*
X114600000Y-141700000D03*
%TO.P,S5,2*%
%TO.N,leftring_home*%
X121600000Y-142750000D03*
D13*
X124550000Y-142750000D03*
%TD*%
D12*
%TO.P,S1,*%
%TO.N,*%
X100000000Y-156000000D03*
D13*
%TO.P,S1,1*%
%TO.N,P2*%
X92650000Y-160700000D03*
D14*
X95600000Y-160700000D03*
%TO.P,S1,2*%
%TO.N,leftpinky_bottom*%
X102600000Y-161750000D03*
D13*
X105550000Y-161750000D03*
%TD*%
D15*
%TO.P,S39,1*%
%TO.N,P3*%
X115725000Y-131050000D03*
%TO.P,S39,2*%
%TO.N,leftring_home*%
X127275000Y-133250000D03*
%TD*%
%TO.P,S41,1*%
%TO.N,P4*%
X134725000Y-150050000D03*
%TO.P,S41,2*%
%TO.N,leftmiddle_bottom*%
X146275000Y-152250000D03*
%TD*%
D12*
%TO.P,S2,*%
%TO.N,*%
X100000000Y-137000000D03*
D13*
%TO.P,S2,1*%
%TO.N,P2*%
X92650000Y-141700000D03*
D14*
X95600000Y-141700000D03*
%TO.P,S2,2*%
%TO.N,leftpinky_home*%
X102600000Y-142750000D03*
D13*
X105550000Y-142750000D03*
%TD*%
D15*
%TO.P,S47,1*%
%TO.N,P5*%
X153725000Y-112050000D03*
%TO.P,S47,2*%
%TO.N,leftindex_top*%
X165275000Y-114250000D03*
%TD*%
%TO.P,S55,1*%
%TO.N,P7*%
X211725000Y-112050000D03*
%TO.P,S55,2*%
%TO.N,rightinner_top*%
X223275000Y-114250000D03*
%TD*%
D12*
%TO.P,S24,*%
%TO.N,*%
X234000000Y-137000000D03*
D13*
%TO.P,S24,1*%
%TO.N,P8*%
X226650000Y-141700000D03*
D14*
X229600000Y-141700000D03*
%TO.P,S24,2*%
%TO.N,rightindex_home*%
X236600000Y-142750000D03*
D13*
X239550000Y-142750000D03*
%TD*%
D15*
%TO.P,S52,1*%
%TO.N,P7*%
X211725000Y-169050000D03*
%TO.P,S52,2*%
%TO.N,rightinner_thumb*%
X223275000Y-171250000D03*
%TD*%
D12*
%TO.P,S12,*%
%TO.N,*%
X157000000Y-137000000D03*
D13*
%TO.P,S12,1*%
%TO.N,P5*%
X149650000Y-141700000D03*
D14*
X152600000Y-141700000D03*
%TO.P,S12,2*%
%TO.N,leftindex_home*%
X159600000Y-142750000D03*
D13*
X162550000Y-142750000D03*
%TD*%
D15*
%TO.P,S35,1*%
%TO.N,P2*%
X96725000Y-150050000D03*
%TO.P,S35,2*%
%TO.N,leftpinky_bottom*%
X108275000Y-152250000D03*
%TD*%
D12*
%TO.P,S14,*%
%TO.N,*%
X176000000Y-175000000D03*
D13*
%TO.P,S14,1*%
%TO.N,P6*%
X168650000Y-179700000D03*
D14*
X171600000Y-179700000D03*
%TO.P,S14,2*%
%TO.N,leftinner_thumb*%
X178600000Y-180750000D03*
D13*
X181550000Y-180750000D03*
%TD*%
D12*
%TO.P,S33,*%
%TO.N,*%
X291000000Y-137000000D03*
D13*
%TO.P,S33,1*%
%TO.N,P16*%
X283650000Y-141700000D03*
D14*
X286600000Y-141700000D03*
%TO.P,S33,2*%
%TO.N,rightpinky_home*%
X293600000Y-142750000D03*
D13*
X296550000Y-142750000D03*
%TD*%
D15*
%TO.P,S45,1*%
%TO.N,P5*%
X153725000Y-150050000D03*
%TO.P,S45,2*%
%TO.N,leftindex_bottom*%
X165275000Y-152250000D03*
%TD*%
%TO.P,S57,1*%
%TO.N,P8*%
X230725000Y-150050000D03*
%TO.P,S57,2*%
%TO.N,rightindex_bottom*%
X242275000Y-152250000D03*
%TD*%
%TO.P,S54,1*%
%TO.N,P7*%
X211725000Y-131050000D03*
%TO.P,S54,2*%
%TO.N,rightinner_home*%
X223275000Y-133250000D03*
%TD*%
%TO.P,S62,1*%
%TO.N,P9*%
X249725000Y-112050000D03*
%TO.P,S62,2*%
%TO.N,rightmiddle_top*%
X261275000Y-114250000D03*
%TD*%
%TO.P,S37,1*%
%TO.N,P2*%
X96725000Y-112050000D03*
%TO.P,S37,2*%
%TO.N,leftpinky_top*%
X108275000Y-114250000D03*
%TD*%
D18*
%TO.P,RST1,1*%
%TO.N,GND*%
X199255000Y-109150000D03*
%TO.P,RST1,2*%
%TO.N,RST*%
X199255000Y-110850000D03*
%TO.P,RST1,3*%
%TO.N,GND*%
X204505000Y-109150000D03*
%TO.P,RST1,4*%
%TO.N,RST*%
X204505000Y-110850000D03*
%TD*%
D12*
%TO.P,S15,*%
%TO.N,*%
X176000000Y-156000000D03*
D13*
%TO.P,S15,1*%
%TO.N,P6*%
X168650000Y-160700000D03*
D14*
X171600000Y-160700000D03*
%TO.P,S15,2*%
%TO.N,leftinner_bottom*%
X178600000Y-161750000D03*
D13*
X181550000Y-161750000D03*
%TD*%
D12*
%TO.P,S30,*%
%TO.N,*%
X272000000Y-137000000D03*
D13*
%TO.P,S30,1*%
%TO.N,P10*%
X264650000Y-141700000D03*
D14*
X267600000Y-141700000D03*
%TO.P,S30,2*%
%TO.N,rightring_home*%
X274600000Y-142750000D03*
D13*
X277550000Y-142750000D03*
%TD*%
D15*
%TO.P,S68,1*%
%TO.N,P16*%
X287725000Y-112050000D03*
%TO.P,S68,2*%
%TO.N,rightpinky_top*%
X299275000Y-114250000D03*
%TD*%
%TO.P,S58,1*%
%TO.N,P8*%
X230725000Y-131050000D03*
%TO.P,S58,2*%
%TO.N,rightindex_home*%
X242275000Y-133250000D03*
%TD*%
D12*
%TO.P,S8,*%
%TO.N,*%
X138000000Y-137000000D03*
D13*
%TO.P,S8,1*%
%TO.N,P4*%
X130650000Y-141700000D03*
D14*
X133600000Y-141700000D03*
%TO.P,S8,2*%
%TO.N,leftmiddle_home*%
X140600000Y-142750000D03*
D13*
X143550000Y-142750000D03*
%TD*%
D12*
%TO.P,S9,*%
%TO.N,*%
X138000000Y-118000000D03*
D13*
%TO.P,S9,1*%
%TO.N,P4*%
X130650000Y-122700000D03*
D14*
X133600000Y-122700000D03*
%TO.P,S9,2*%
%TO.N,leftmiddle_top*%
X140600000Y-123750000D03*
D13*
X143550000Y-123750000D03*
%TD*%
D15*
%TO.P,S67,1*%
%TO.N,P16*%
X287725000Y-131050000D03*
%TO.P,S67,2*%
%TO.N,rightpinky_home*%
X299275000Y-133250000D03*
%TD*%
D12*
%TO.P,S22,*%
%TO.N,*%
X234000000Y-175000000D03*
D13*
%TO.P,S22,1*%
%TO.N,P8*%
X226650000Y-179700000D03*
D14*
X229600000Y-179700000D03*
%TO.P,S22,2*%
%TO.N,rightindex_thumb*%
X236600000Y-180750000D03*
D13*
X239550000Y-180750000D03*
%TD*%
D15*
%TO.P,S44,1*%
%TO.N,P5*%
X153725000Y-169050000D03*
%TO.P,S44,2*%
%TO.N,leftindex_thumb*%
X165275000Y-171250000D03*
%TD*%
%TO.P,S38,1*%
%TO.N,P3*%
X115725000Y-150050000D03*
%TO.P,S38,2*%
%TO.N,leftring_bottom*%
X127275000Y-152250000D03*
%TD*%
D12*
%TO.P,S13,*%
%TO.N,*%
X157000000Y-118000000D03*
D13*
%TO.P,S13,1*%
%TO.N,P5*%
X149650000Y-122700000D03*
D14*
X152600000Y-122700000D03*
%TO.P,S13,2*%
%TO.N,leftindex_top*%
X159600000Y-123750000D03*
D13*
X162550000Y-123750000D03*
%TD*%
D12*
%TO.P,S23,*%
%TO.N,*%
X234000000Y-156000000D03*
D13*
%TO.P,S23,1*%
%TO.N,P8*%
X226650000Y-160700000D03*
D14*
X229600000Y-160700000D03*
%TO.P,S23,2*%
%TO.N,rightindex_bottom*%
X236600000Y-161750000D03*
D13*
X239550000Y-161750000D03*
%TD*%
D15*
%TO.P,S43,1*%
%TO.N,P4*%
X134725000Y-112050000D03*
%TO.P,S43,2*%
%TO.N,leftmiddle_top*%
X146275000Y-114250000D03*
%TD*%
D12*
%TO.P,S3,*%
%TO.N,*%
X100000000Y-118000000D03*
D13*
%TO.P,S3,1*%
%TO.N,P2*%
X92650000Y-122700000D03*
D14*
X95600000Y-122700000D03*
%TO.P,S3,2*%
%TO.N,leftpinky_top*%
X102600000Y-123750000D03*
D13*
X105550000Y-123750000D03*
%TD*%
D15*
%TO.P,S48,1*%
%TO.N,P6*%
X172725000Y-169050000D03*
%TO.P,S48,2*%
%TO.N,leftinner_thumb*%
X184275000Y-171250000D03*
%TD*%
D12*
%TO.P,S34,*%
%TO.N,*%
X291000000Y-118000000D03*
D13*
%TO.P,S34,1*%
%TO.N,P16*%
X283650000Y-122700000D03*
D14*
X286600000Y-122700000D03*
%TO.P,S34,2*%
%TO.N,rightpinky_top*%
X293600000Y-123750000D03*
D13*
X296550000Y-123750000D03*
%TD*%
D12*
%TO.P,S25,*%
%TO.N,*%
X234000000Y-118000000D03*
D13*
%TO.P,S25,1*%
%TO.N,P8*%
X226650000Y-122700000D03*
D14*
X229600000Y-122700000D03*
%TO.P,S25,2*%
%TO.N,rightindex_top*%
X236600000Y-123750000D03*
D13*
X239550000Y-123750000D03*
%TD*%
D15*
%TO.P,S46,1*%
%TO.N,P5*%
X153725000Y-131050000D03*
%TO.P,S46,2*%
%TO.N,leftindex_home*%
X165275000Y-133250000D03*
%TD*%
D12*
%TO.P,S10,*%
%TO.N,*%
X157000000Y-175000000D03*
D13*
%TO.P,S10,1*%
%TO.N,P5*%
X149650000Y-179700000D03*
D14*
X152600000Y-179700000D03*
%TO.P,S10,2*%
%TO.N,leftindex_thumb*%
X159600000Y-180750000D03*
D13*
X162550000Y-180750000D03*
%TD*%
D12*
%TO.P,S28,*%
%TO.N,*%
X253000000Y-118000000D03*
D13*
%TO.P,S28,1*%
%TO.N,P9*%
X245650000Y-122700000D03*
D14*
X248600000Y-122700000D03*
%TO.P,S28,2*%
%TO.N,rightmiddle_top*%
X255600000Y-123750000D03*
D13*
X258550000Y-123750000D03*
%TD*%
D15*
%TO.P,S50,1*%
%TO.N,P6*%
X172725000Y-131050000D03*
%TO.P,S50,2*%
%TO.N,leftinner_home*%
X184275000Y-133250000D03*
%TD*%
D12*
%TO.P,S20,*%
%TO.N,*%
X215000000Y-137000000D03*
D13*
%TO.P,S20,1*%
%TO.N,P7*%
X207650000Y-141700000D03*
D14*
X210600000Y-141700000D03*
%TO.P,S20,2*%
%TO.N,rightinner_home*%
X217600000Y-142750000D03*
D13*
X220550000Y-142750000D03*
%TD*%
D15*
%TO.P,S36,1*%
%TO.N,P2*%
X96725000Y-131050000D03*
%TO.P,S36,2*%
%TO.N,leftpinky_home*%
X108275000Y-133250000D03*
%TD*%
%TO.P,S40,1*%
%TO.N,P3*%
X115725000Y-112050000D03*
%TO.P,S40,2*%
%TO.N,leftring_top*%
X127275000Y-114250000D03*
%TD*%
D12*
%TO.P,S17,*%
%TO.N,*%
X176000000Y-118000000D03*
D13*
%TO.P,S17,1*%
%TO.N,P6*%
X168650000Y-122700000D03*
D14*
X171600000Y-122700000D03*
%TO.P,S17,2*%
%TO.N,leftinner_top*%
X178600000Y-123750000D03*
D13*
X181550000Y-123750000D03*
%TD*%
D19*
%TO.P,PWR1,*%
%TO.N,*%
X185030000Y-110835000D03*
X192330000Y-110835000D03*
X185030000Y-108625000D03*
X192330000Y-108625000D03*
D20*
%TO.P,PWR1,1*%
%TO.N,BAT_P*%
X186430000Y-111485000D03*
%TO.P,PWR1,2*%
%TO.N,RAW*%
X189430000Y-111485000D03*
%TO.P,PWR1,3*%
%TO.N,N/C*%
X190930000Y-111485000D03*
%TD*%
D12*
%TO.P,S27,*%
%TO.N,*%
X253000000Y-137000000D03*
D13*
%TO.P,S27,1*%
%TO.N,P9*%
X245650000Y-141700000D03*
D14*
X248600000Y-141700000D03*
%TO.P,S27,2*%
%TO.N,rightmiddle_home*%
X255600000Y-142750000D03*
D13*
X258550000Y-142750000D03*
%TD*%
D15*
%TO.P,S51,1*%
%TO.N,P6*%
X172725000Y-112050000D03*
%TO.P,S51,2*%
%TO.N,leftinner_top*%
X184275000Y-114250000D03*
%TD*%
%TO.P,S53,1*%
%TO.N,P7*%
X211725000Y-150050000D03*
%TO.P,S53,2*%
%TO.N,rightinner_bottom*%
X223275000Y-152250000D03*
%TD*%
D12*
%TO.P,S21,*%
%TO.N,*%
X215000000Y-118000000D03*
D13*
%TO.P,S21,1*%
%TO.N,P7*%
X207650000Y-122700000D03*
D14*
X210600000Y-122700000D03*
%TO.P,S21,2*%
%TO.N,rightinner_top*%
X217600000Y-123750000D03*
D13*
X220550000Y-123750000D03*
%TD*%
D12*
%TO.P,S11,*%
%TO.N,*%
X157000000Y-156000000D03*
D13*
%TO.P,S11,1*%
%TO.N,P5*%
X149650000Y-160700000D03*
D14*
X152600000Y-160700000D03*
%TO.P,S11,2*%
%TO.N,leftindex_bottom*%
X159600000Y-161750000D03*
D13*
X162550000Y-161750000D03*
%TD*%
D15*
%TO.P,S56,1*%
%TO.N,P8*%
X230725000Y-169050000D03*
%TO.P,S56,2*%
%TO.N,rightindex_thumb*%
X242275000Y-171250000D03*
%TD*%
D12*
%TO.P,S18,*%
%TO.N,*%
X215000000Y-175000000D03*
D13*
%TO.P,S18,1*%
%TO.N,P7*%
X207650000Y-179700000D03*
D14*
X210600000Y-179700000D03*
%TO.P,S18,2*%
%TO.N,rightinner_thumb*%
X217600000Y-180750000D03*
D13*
X220550000Y-180750000D03*
%TD*%
D15*
%TO.P,S60,1*%
%TO.N,P9*%
X249725000Y-150050000D03*
%TO.P,S60,2*%
%TO.N,rightmiddle_bottom*%
X261275000Y-152250000D03*
%TD*%
%TO.P,S61,1*%
%TO.N,P9*%
X249725000Y-131050000D03*
%TO.P,S61,2*%
%TO.N,rightmiddle_home*%
X261275000Y-133250000D03*
%TD*%
%TO.P,S66,1*%
%TO.N,P16*%
X287725000Y-150050000D03*
%TO.P,S66,2*%
%TO.N,rightpinky_bottom*%
X299275000Y-152250000D03*
%TD*%
D12*
%TO.P,S32,*%
%TO.N,*%
X291000000Y-156000000D03*
D13*
%TO.P,S32,1*%
%TO.N,P16*%
X283650000Y-160700000D03*
D14*
X286600000Y-160700000D03*
%TO.P,S32,2*%
%TO.N,rightpinky_bottom*%
X293600000Y-161750000D03*
D13*
X296550000Y-161750000D03*
%TD*%
D12*
%TO.P,S19,*%
%TO.N,*%
X215000000Y-156000000D03*
D13*
%TO.P,S19,1*%
%TO.N,P7*%
X207650000Y-160700000D03*
D14*
X210600000Y-160700000D03*
%TO.P,S19,2*%
%TO.N,rightinner_bottom*%
X217600000Y-161750000D03*
D13*
X220550000Y-161750000D03*
%TD*%
D21*
%TO.N,leftpinky_top*%
X108275000Y-114250000D03*
%TO.N,P2*%
X96725000Y-126775000D03*
%TO.N,leftpinky_bottom*%
X93540000Y-147830000D03*
X108275000Y-152250000D03*
%TO.N,leftpinky_home*%
X108275000Y-133250000D03*
X93540000Y-128830000D03*
%TO.N,leftpinky_top*%
X93540000Y-109830000D03*
%TO.N,P3*%
X115725000Y-126860000D03*
%TO.N,leftring_bottom*%
X112540000Y-147830000D03*
X127275000Y-152250000D03*
%TO.N,leftring_home*%
X112540000Y-128830000D03*
X127275000Y-133250000D03*
%TO.N,leftring_top*%
X127275000Y-114250000D03*
X112540000Y-109830000D03*
%TO.N,P4*%
X134725000Y-127130000D03*
%TO.N,leftmiddle_bottom*%
X146275000Y-152250000D03*
X131540000Y-147830000D03*
%TO.N,leftmiddle_home*%
X131540000Y-128830000D03*
X146275000Y-133250000D03*
%TO.N,leftmiddle_top*%
X131540000Y-109830000D03*
X146275000Y-114250000D03*
%TO.N,P5*%
X153725000Y-127780000D03*
%TO.N,leftindex_thumb*%
X165275000Y-171250000D03*
X150540000Y-166830000D03*
%TO.N,leftindex_bottom*%
X150540000Y-147830000D03*
X165275000Y-152250000D03*
%TO.N,leftindex_home*%
X150540000Y-128830000D03*
X165275000Y-133250000D03*
%TO.N,leftindex_top*%
X165275000Y-114250000D03*
X150540000Y-109830000D03*
%TO.N,P6*%
X172725000Y-128330000D03*
%TO.N,leftinner_thumb*%
X184275000Y-171250000D03*
X169540000Y-166830000D03*
%TO.N,leftinner_bottom*%
X184275000Y-152250000D03*
X169540000Y-147830000D03*
%TO.N,leftinner_home*%
X184275000Y-133250000D03*
X169540000Y-128830000D03*
%TO.N,leftinner_top*%
X169540000Y-109830000D03*
X184275000Y-114250000D03*
%TO.N,P7*%
X207460000Y-141720000D03*
%TO.N,rightinner_thumb*%
X223275000Y-171250000D03*
X208540000Y-166830000D03*
%TO.N,rightinner_bottom*%
X208540000Y-147830000D03*
X223275000Y-152250000D03*
%TO.N,rightinner_home*%
X208540000Y-128830000D03*
X223275000Y-133250000D03*
%TO.N,rightinner_top*%
X208540000Y-109830000D03*
X223275000Y-114250000D03*
%TO.N,P8*%
X226680000Y-141910000D03*
%TO.N,rightindex_thumb*%
X242275000Y-171250000D03*
X227540000Y-166830000D03*
%TO.N,rightindex_bottom*%
X242275000Y-152250000D03*
X227540000Y-147830000D03*
%TO.N,rightindex_home*%
X242275000Y-133250000D03*
X227540000Y-128830000D03*
%TO.N,rightindex_top*%
X242275000Y-114250000D03*
X227540000Y-109830000D03*
%TO.N,P9*%
X245600000Y-141810000D03*
%TO.N,rightmiddle_bottom*%
X246540000Y-147830000D03*
X261275000Y-152250000D03*
%TO.N,rightmiddle_home*%
X246540000Y-128830000D03*
X261275000Y-133250000D03*
%TO.N,rightmiddle_top*%
X261275000Y-114250000D03*
X246540000Y-109830000D03*
%TO.N,P10*%
X268725000Y-131210000D03*
X268725000Y-131210000D03*
%TO.N,rightring_bottom*%
X280275000Y-152250000D03*
X265540000Y-147830000D03*
%TO.N,rightring_home*%
X265540000Y-128830000D03*
X280275000Y-133250000D03*
%TO.N,rightring_top*%
X265540000Y-109830000D03*
X280275000Y-114250000D03*
%TO.N,P16*%
X287850000Y-130960000D03*
%TO.N,rightpinky_bottom*%
X299275000Y-152250000D03*
X284540000Y-147830000D03*
%TO.N,rightpinky_home*%
X284540000Y-128830000D03*
X299275000Y-133250000D03*
%TO.N,rightpinky_top*%
X299275000Y-114250000D03*
X284540000Y-109830000D03*
%TO.N,P15*%
X208540000Y-153530000D03*
X93540000Y-153530000D03*
X246540000Y-153530000D03*
X131540000Y-153530000D03*
X169540000Y-153530000D03*
X150540000Y-153530000D03*
X181950000Y-147310000D03*
X265540000Y-153530000D03*
X112540000Y-153530000D03*
X227540000Y-153530000D03*
X284540000Y-153530000D03*
%TO.N,P18*%
X131540000Y-134530000D03*
X208540000Y-134530000D03*
X227540000Y-134530000D03*
X169540000Y-134530000D03*
X93540000Y-134530000D03*
X112540000Y-134530000D03*
X265540000Y-134530000D03*
X246540000Y-134530000D03*
X150540000Y-134530000D03*
X284540000Y-134530000D03*
%TO.N,P19*%
X150540000Y-115530000D03*
X169540000Y-115530000D03*
X284540000Y-115530000D03*
X227540000Y-115530000D03*
X131540000Y-115530000D03*
X208540000Y-115530000D03*
X265540000Y-115530000D03*
X246540000Y-115530000D03*
X93540000Y-115530000D03*
X112540000Y-115530000D03*
%TO.N,P14*%
X212800000Y-142710000D03*
X150540000Y-172530000D03*
X227540000Y-172530000D03*
X210730000Y-135130000D03*
X169540000Y-172530000D03*
X206220000Y-135120000D03*
X208540000Y-172530000D03*
X184950000Y-145470000D03*
%TD*%
D22*
%TO.N,P2*%
X96725000Y-145775000D02*
X96725000Y-150050000D01*
X96725000Y-156625000D02*
X92650000Y-160700000D01*
X96725000Y-126775000D02*
X96725000Y-131050000D01*
X92650000Y-141700000D02*
X96725000Y-145775000D01*
X96725000Y-137625000D02*
X92650000Y-141700000D01*
X96725000Y-131050000D02*
X96725000Y-137625000D01*
X96725000Y-150050000D02*
X96725000Y-156625000D01*
X96725000Y-118625000D02*
X92650000Y-122700000D01*
X96725000Y-112050000D02*
X96725000Y-118625000D01*
X92650000Y-122700000D02*
X96725000Y-126775000D01*
D23*
%TO.N,leftpinky_bottom*%
X93540000Y-147830000D02*
X93540000Y-149030000D01*
D22*
X108275000Y-159025000D02*
X105550000Y-161750000D01*
X108275000Y-152250000D02*
X108275000Y-159025000D01*
%TO.N,GND*%
X203120000Y-114840000D02*
X204271000Y-115991000D01*
X196100000Y-125312240D02*
X196100000Y-127125000D01*
X199456000Y-109351000D02*
X204304000Y-109351000D01*
X192920000Y-119920000D02*
X187880000Y-119920000D01*
X194559032Y-127851000D02*
X194000000Y-127291968D01*
X187880000Y-119920000D02*
X187880000Y-117380000D01*
X194000000Y-127291968D02*
X194000000Y-121000000D01*
X194000000Y-121000000D02*
X192920000Y-119920000D01*
X206000000Y-110645000D02*
X206000000Y-111960000D01*
X196100000Y-127125000D02*
X195374000Y-127851000D01*
X204271000Y-115991000D02*
X204271000Y-118094760D01*
X203596760Y-118769000D02*
X202643240Y-118769000D01*
X206000000Y-111960000D02*
X203120000Y-114840000D01*
X204304000Y-109351000D02*
X204505000Y-109150000D01*
X204505000Y-109150000D02*
X206000000Y-110645000D01*
X199255000Y-109150000D02*
X199456000Y-109351000D01*
X204271000Y-118094760D02*
X203596760Y-118769000D01*
X195374000Y-127851000D02*
X194559032Y-127851000D01*
X202643240Y-118769000D02*
X196100000Y-125312240D01*
%TO.N,leftpinky_home*%
X108275000Y-133250000D02*
X108275000Y-140025000D01*
D23*
X93540000Y-128830000D02*
X93540000Y-130030000D01*
D22*
X108275000Y-140025000D02*
X105550000Y-142750000D01*
%TO.N,leftpinky_top*%
X108275000Y-121025000D02*
X105550000Y-123750000D01*
D23*
X93540000Y-109830000D02*
X93540000Y-111030000D01*
D22*
X108275000Y-114250000D02*
X108275000Y-121025000D01*
%TO.N,P3*%
X115725000Y-118625000D02*
X111650000Y-122700000D01*
X115725000Y-126860000D02*
X115725000Y-131050000D01*
X111650000Y-141700000D02*
X115725000Y-145775000D01*
X115725000Y-145775000D02*
X115725000Y-150050000D01*
X115725000Y-150050000D02*
X115725000Y-156625000D01*
X111650000Y-122700000D02*
X115725000Y-126775000D01*
X115725000Y-131050000D02*
X115725000Y-137625000D01*
X115725000Y-156625000D02*
X111650000Y-160700000D01*
X115725000Y-112050000D02*
X115725000Y-118625000D01*
X115725000Y-126775000D02*
X115725000Y-126860000D01*
X115725000Y-137625000D02*
X111650000Y-141700000D01*
%TO.N,leftring_bottom*%
X127275000Y-152250000D02*
X127275000Y-159025000D01*
X127275000Y-159025000D02*
X124550000Y-161750000D01*
D23*
X112540000Y-147830000D02*
X112540000Y-149030000D01*
D22*
%TO.N,leftring_home*%
X127275000Y-133250000D02*
X127275000Y-140025000D01*
X127275000Y-140025000D02*
X124550000Y-142750000D01*
D23*
X112540000Y-128830000D02*
X112540000Y-130030000D01*
D22*
%TO.N,leftring_top*%
X127275000Y-121025000D02*
X124550000Y-123750000D01*
D23*
X112540000Y-109830000D02*
X112540000Y-111030000D01*
D22*
X127275000Y-114250000D02*
X127275000Y-121025000D01*
%TO.N,P4*%
X130650000Y-122700000D02*
X134725000Y-126775000D01*
X134725000Y-156625000D02*
X130650000Y-160700000D01*
X134725000Y-127130000D02*
X134725000Y-131050000D01*
X134725000Y-126775000D02*
X134725000Y-127130000D01*
X134725000Y-112050000D02*
X134725000Y-118625000D01*
X130650000Y-141700000D02*
X134725000Y-145775000D01*
X134725000Y-145775000D02*
X134725000Y-150050000D01*
X134725000Y-137625000D02*
X130650000Y-141700000D01*
X134725000Y-118625000D02*
X130650000Y-122700000D01*
X134725000Y-131050000D02*
X134725000Y-137625000D01*
X134725000Y-150050000D02*
X134725000Y-156625000D01*
%TO.N,leftmiddle_bottom*%
X146275000Y-159025000D02*
X143550000Y-161750000D01*
X146275000Y-152250000D02*
X146275000Y-159025000D01*
D23*
X131540000Y-147830000D02*
X131540000Y-149030000D01*
D22*
%TO.N,leftmiddle_home*%
X146275000Y-133250000D02*
X146275000Y-140025000D01*
D23*
X131540000Y-128830000D02*
X131540000Y-130030000D01*
D22*
X146275000Y-140025000D02*
X143550000Y-142750000D01*
%TO.N,leftmiddle_top*%
X146275000Y-114250000D02*
X146275000Y-121025000D01*
D23*
X131540000Y-109830000D02*
X131540000Y-111030000D01*
D22*
X146275000Y-121025000D02*
X143550000Y-123750000D01*
%TO.N,P5*%
X153725000Y-164775000D02*
X153725000Y-169050000D01*
X153725000Y-127780000D02*
X153725000Y-126775000D01*
X153725000Y-127890000D02*
X153725000Y-131050000D01*
X153725000Y-118625000D02*
X149650000Y-122700000D01*
X149650000Y-141700000D02*
X153725000Y-145775000D01*
X153725000Y-131050000D02*
X153725000Y-137625000D01*
X149650000Y-160700000D02*
X153725000Y-164775000D01*
X153725000Y-175625000D02*
X149650000Y-179700000D01*
X153725000Y-150050000D02*
X153725000Y-156625000D01*
X153725000Y-126775000D02*
X149650000Y-122700000D01*
X153725000Y-112050000D02*
X153725000Y-118625000D01*
X153725000Y-156625000D02*
X149650000Y-160700000D01*
X153725000Y-169050000D02*
X153725000Y-175625000D01*
X153725000Y-137625000D02*
X149650000Y-141700000D01*
X153725000Y-127890000D02*
X153725000Y-127780000D01*
X153725000Y-145775000D02*
X153725000Y-150050000D01*
%TO.N,leftindex_thumb*%
X165275000Y-178025000D02*
X162550000Y-180750000D01*
X165275000Y-171250000D02*
X165275000Y-178025000D01*
D23*
X150540000Y-166830000D02*
X150540000Y-168030000D01*
%TO.N,leftindex_bottom*%
X150540000Y-147830000D02*
X150540000Y-149030000D01*
D22*
X165275000Y-159025000D02*
X162550000Y-161750000D01*
X165275000Y-152250000D02*
X165275000Y-159025000D01*
%TO.N,leftindex_home*%
X165275000Y-133250000D02*
X165275000Y-140025000D01*
X165275000Y-140025000D02*
X162550000Y-142750000D01*
D23*
X150540000Y-128830000D02*
X150540000Y-130030000D01*
%TO.N,leftindex_top*%
X150540000Y-109830000D02*
X150540000Y-111030000D01*
D22*
X165275000Y-114250000D02*
X165275000Y-121025000D01*
X165275000Y-121025000D02*
X162550000Y-123750000D01*
%TO.N,P6*%
X168650000Y-141700000D02*
X172725000Y-145775000D01*
X172725000Y-150050000D02*
X172725000Y-156625000D01*
X172725000Y-137625000D02*
X168650000Y-141700000D01*
X172725000Y-131050000D02*
X172725000Y-137625000D01*
X172725000Y-175625000D02*
X168650000Y-179700000D01*
X172725000Y-128330000D02*
X172725000Y-131050000D01*
X172725000Y-126775000D02*
X172725000Y-128330000D01*
X168650000Y-160700000D02*
X172725000Y-164775000D01*
X172725000Y-118625000D02*
X168650000Y-122700000D01*
X172725000Y-164775000D02*
X172725000Y-169050000D01*
X172725000Y-156625000D02*
X168650000Y-160700000D01*
X168650000Y-122700000D02*
X172725000Y-126775000D01*
X172725000Y-169050000D02*
X172725000Y-175625000D01*
X172725000Y-145775000D02*
X172725000Y-150050000D01*
X172725000Y-112050000D02*
X172725000Y-118625000D01*
%TO.N,leftinner_thumb*%
X184275000Y-171250000D02*
X184275000Y-178025000D01*
X184275000Y-178025000D02*
X181550000Y-180750000D01*
D23*
X169540000Y-166830000D02*
X169540000Y-168030000D01*
D22*
%TO.N,leftinner_bottom*%
X184275000Y-152250000D02*
X184275000Y-159025000D01*
X184275000Y-159025000D02*
X181550000Y-161750000D01*
D23*
X169540000Y-147830000D02*
X169540000Y-149030000D01*
%TO.N,leftinner_home*%
X169540000Y-128830000D02*
X169540000Y-130030000D01*
D22*
X184275000Y-133250000D02*
X184275000Y-140025000D01*
X184275000Y-140025000D02*
X181550000Y-142750000D01*
%TO.N,leftinner_top*%
X184275000Y-121025000D02*
X181550000Y-123750000D01*
D23*
X169540000Y-109830000D02*
X169540000Y-111030000D01*
D22*
X184275000Y-114250000D02*
X184275000Y-121025000D01*
%TO.N,P7*%
X211725000Y-150050000D02*
X211725000Y-156625000D01*
X211725000Y-137625000D02*
X207650000Y-141700000D01*
X211725000Y-131050000D02*
X211725000Y-137625000D01*
X207650000Y-161150000D02*
X211725000Y-165225000D01*
X207650000Y-122700000D02*
X211725000Y-126775000D01*
X211725000Y-169050000D02*
X211725000Y-175625000D01*
X211725000Y-145775000D02*
X211725000Y-150050000D01*
X207650000Y-141700000D02*
X207480000Y-141700000D01*
X207480000Y-141700000D02*
X207460000Y-141720000D01*
X211725000Y-118625000D02*
X207650000Y-122700000D01*
X211725000Y-175625000D02*
X207650000Y-179700000D01*
X211725000Y-112050000D02*
X211725000Y-118625000D01*
X207650000Y-160700000D02*
X207650000Y-161150000D01*
X211725000Y-126775000D02*
X211725000Y-131050000D01*
X207650000Y-141700000D02*
X211725000Y-145775000D01*
X211725000Y-156625000D02*
X207650000Y-160700000D01*
X211725000Y-165225000D02*
X211725000Y-169050000D01*
%TO.N,rightinner_thumb*%
X223275000Y-178025000D02*
X220550000Y-180750000D01*
X223275000Y-171250000D02*
X223275000Y-178025000D01*
D23*
X208540000Y-166830000D02*
X208540000Y-168030000D01*
D22*
%TO.N,rightinner_bottom*%
X223275000Y-159025000D02*
X220550000Y-161750000D01*
X223275000Y-152250000D02*
X223275000Y-159025000D01*
D23*
X208540000Y-147830000D02*
X208540000Y-149030000D01*
D22*
%TO.N,rightinner_home*%
X223275000Y-133250000D02*
X223275000Y-140025000D01*
D23*
X208540000Y-128830000D02*
X208540000Y-130030000D01*
D22*
X223275000Y-140025000D02*
X220550000Y-142750000D01*
%TO.N,rightinner_top*%
X223275000Y-121025000D02*
X220550000Y-123750000D01*
D23*
X208540000Y-109830000D02*
X208540000Y-111030000D01*
D22*
X223275000Y-114250000D02*
X223275000Y-121025000D01*
%TO.N,P8*%
X226650000Y-160700000D02*
X230725000Y-164775000D01*
X230725000Y-112050000D02*
X230725000Y-118625000D01*
X230725000Y-137625000D02*
X226650000Y-141700000D01*
X230725000Y-118625000D02*
X226650000Y-122700000D01*
X230725000Y-164775000D02*
X230725000Y-169050000D01*
X230725000Y-131050000D02*
X230725000Y-137625000D01*
X226650000Y-141880000D02*
X226680000Y-141910000D01*
X230725000Y-169050000D02*
X230725000Y-175625000D01*
X230725000Y-126775000D02*
X230725000Y-131050000D01*
X230725000Y-145775000D02*
X230725000Y-150050000D01*
X230725000Y-150050000D02*
X230725000Y-156625000D01*
X226650000Y-141700000D02*
X230725000Y-145775000D01*
X226650000Y-141700000D02*
X226650000Y-141880000D01*
X230725000Y-175625000D02*
X226650000Y-179700000D01*
X230725000Y-156625000D02*
X226650000Y-160700000D01*
X226650000Y-122700000D02*
X230725000Y-126775000D01*
D23*
%TO.N,rightindex_thumb*%
X227540000Y-166830000D02*
X227540000Y-168030000D01*
D22*
X242275000Y-178025000D02*
X239550000Y-180750000D01*
X242275000Y-171250000D02*
X242275000Y-178025000D01*
%TO.N,rightindex_bottom*%
X242275000Y-152250000D02*
X242275000Y-159025000D01*
X242275000Y-159025000D02*
X239550000Y-161750000D01*
D23*
X227540000Y-147830000D02*
X227540000Y-149030000D01*
D22*
%TO.N,rightindex_home*%
X242275000Y-133250000D02*
X242275000Y-140025000D01*
X242275000Y-140025000D02*
X239550000Y-142750000D01*
D23*
X227540000Y-128830000D02*
X227540000Y-130030000D01*
D22*
%TO.N,rightindex_top*%
X242275000Y-121025000D02*
X239550000Y-123750000D01*
X242275000Y-114250000D02*
X242275000Y-121025000D01*
D23*
X227540000Y-109830000D02*
X227540000Y-111030000D01*
D22*
%TO.N,P9*%
X249725000Y-150050000D02*
X249725000Y-156625000D01*
X249725000Y-118625000D02*
X245650000Y-122700000D01*
X245650000Y-141700000D02*
X245650000Y-141760000D01*
X245650000Y-122700000D02*
X249725000Y-126775000D01*
X249725000Y-145775000D02*
X249725000Y-150050000D01*
X245650000Y-141760000D02*
X245600000Y-141810000D01*
X249725000Y-156625000D02*
X245650000Y-160700000D01*
X245650000Y-141700000D02*
X249725000Y-145775000D01*
X249725000Y-112050000D02*
X249725000Y-118625000D01*
X249725000Y-137625000D02*
X245650000Y-141700000D01*
X249725000Y-131050000D02*
X249725000Y-137625000D01*
X249725000Y-126775000D02*
X249725000Y-131050000D01*
%TO.N,rightmiddle_bottom*%
X261275000Y-159025000D02*
X258550000Y-161750000D01*
D23*
X246540000Y-147830000D02*
X246540000Y-149030000D01*
D22*
X261275000Y-152250000D02*
X261275000Y-159025000D01*
%TO.N,rightmiddle_home*%
X261275000Y-133250000D02*
X261275000Y-140025000D01*
D23*
X246540000Y-128830000D02*
X246540000Y-130030000D01*
D22*
X261275000Y-140025000D02*
X258550000Y-142750000D01*
D23*
%TO.N,rightmiddle_top*%
X246540000Y-109830000D02*
X246540000Y-111030000D01*
D22*
X261275000Y-121025000D02*
X258550000Y-123750000D01*
X261275000Y-114250000D02*
X261275000Y-121025000D01*
%TO.N,P10*%
X268725000Y-126775000D02*
X268725000Y-131050000D01*
X268725000Y-156625000D02*
X264650000Y-160700000D01*
X268725000Y-150050000D02*
X268725000Y-156625000D01*
X268725000Y-118625000D02*
X264650000Y-122700000D01*
X268725000Y-131210000D02*
X268725000Y-137625000D01*
X264650000Y-122700000D02*
X268725000Y-126775000D01*
X268725000Y-112050000D02*
X268725000Y-118625000D01*
X268725000Y-145775000D02*
X268725000Y-150050000D01*
X268725000Y-131050000D02*
X268725000Y-131210000D01*
X264650000Y-141700000D02*
X268725000Y-145775000D01*
X268725000Y-137625000D02*
X264650000Y-141700000D01*
%TO.N,rightring_bottom*%
X280275000Y-159025000D02*
X277550000Y-161750000D01*
D23*
X265540000Y-147830000D02*
X265540000Y-149030000D01*
D22*
X280275000Y-152250000D02*
X280275000Y-159025000D01*
%TO.N,rightring_home*%
X280275000Y-140025000D02*
X277550000Y-142750000D01*
X280275000Y-133250000D02*
X280275000Y-140025000D01*
D23*
X265540000Y-128830000D02*
X265540000Y-130030000D01*
D22*
%TO.N,rightring_top*%
X280275000Y-121025000D02*
X277550000Y-123750000D01*
D23*
X265540000Y-109830000D02*
X265540000Y-111030000D01*
D22*
X280275000Y-114250000D02*
X280275000Y-121025000D01*
%TO.N,P16*%
X287725000Y-145775000D02*
X287725000Y-150050000D01*
X287760000Y-131050000D02*
X287850000Y-130960000D01*
X287725000Y-126775000D02*
X287725000Y-131050000D01*
X287725000Y-156625000D02*
X283650000Y-160700000D01*
X287725000Y-131050000D02*
X287760000Y-131050000D01*
X287725000Y-131050000D02*
X287725000Y-137625000D01*
X287725000Y-112050000D02*
X287725000Y-118625000D01*
X287725000Y-150050000D02*
X287725000Y-156625000D01*
X287725000Y-137625000D02*
X283650000Y-141700000D01*
X283650000Y-122700000D02*
X287725000Y-126775000D01*
X283650000Y-141700000D02*
X287725000Y-145775000D01*
X287725000Y-118625000D02*
X283650000Y-122700000D01*
%TO.N,rightpinky_bottom*%
X299275000Y-159025000D02*
X296550000Y-161750000D01*
D23*
X284540000Y-147830000D02*
X284540000Y-149030000D01*
D22*
X299275000Y-152250000D02*
X299275000Y-159025000D01*
D23*
%TO.N,rightpinky_home*%
X284540000Y-128830000D02*
X284540000Y-130030000D01*
D22*
X299275000Y-140025000D02*
X296550000Y-142750000D01*
X299275000Y-133250000D02*
X299275000Y-140025000D01*
%TO.N,rightpinky_top*%
X299275000Y-114250000D02*
X299275000Y-121025000D01*
D23*
X284540000Y-109830000D02*
X284540000Y-111030000D01*
D22*
X299275000Y-121025000D02*
X296550000Y-123750000D01*
D23*
%TO.N,P15*%
X185663190Y-142219000D02*
X193521000Y-142219000D01*
X193521000Y-142219000D02*
X203120000Y-132620000D01*
X184499000Y-144761000D02*
X184499000Y-143383190D01*
X203120000Y-132620000D02*
X205324000Y-134824000D01*
X93540000Y-153530000D02*
X93540000Y-152330000D01*
X246540000Y-153530000D02*
X246540000Y-152330000D01*
X265540000Y-153530000D02*
X265540000Y-152330000D01*
X150540000Y-153530000D02*
X150540000Y-152330000D01*
X131540000Y-153530000D02*
X131540000Y-152330000D01*
X208540000Y-153530000D02*
X208540000Y-152330000D01*
X205324000Y-142945514D02*
X207614000Y-145235514D01*
X181950000Y-147310000D02*
X184499000Y-144761000D01*
X227540000Y-153530000D02*
X227540000Y-152330000D01*
X207614000Y-145235514D02*
X207614000Y-151404000D01*
X112540000Y-153530000D02*
X112540000Y-152330000D01*
X184499000Y-143383190D02*
X185663190Y-142219000D01*
X169540000Y-153530000D02*
X169540000Y-152330000D01*
X205324000Y-134824000D02*
X205324000Y-142945514D01*
X207614000Y-151404000D02*
X208540000Y-152330000D01*
X284540000Y-153530000D02*
X284540000Y-152330000D01*
%TO.N,P18*%
X112540000Y-134530000D02*
X112540000Y-133330000D01*
X208540000Y-134530000D02*
X208540000Y-133330000D01*
X206370000Y-133330000D02*
X208540000Y-133330000D01*
X169540000Y-134530000D02*
X169540000Y-133330000D01*
X227540000Y-134530000D02*
X227540000Y-133330000D01*
X93540000Y-134530000D02*
X93540000Y-133330000D01*
X246540000Y-134530000D02*
X246540000Y-133330000D01*
X265540000Y-134530000D02*
X265540000Y-133330000D01*
X131540000Y-134530000D02*
X131540000Y-133330000D01*
X284540000Y-134530000D02*
X284540000Y-133330000D01*
X203120000Y-130080000D02*
X206370000Y-133330000D01*
X150540000Y-134530000D02*
X150540000Y-133330000D01*
%TO.N,P19*%
X265540000Y-115530000D02*
X265540000Y-114330000D01*
X208540000Y-115530000D02*
X208540000Y-114330000D01*
X112540000Y-115530000D02*
X112540000Y-114330000D01*
X284540000Y-115530000D02*
X284540000Y-114330000D01*
X93540000Y-115530000D02*
X93540000Y-114330000D01*
X246540000Y-115530000D02*
X246540000Y-114330000D01*
X150540000Y-115530000D02*
X150540000Y-114330000D01*
X131540000Y-115530000D02*
X131540000Y-114330000D01*
X169540000Y-115530000D02*
X169540000Y-114330000D01*
X227540000Y-115530000D02*
X227540000Y-114330000D01*
%TO.N,P14*%
X208540000Y-172530000D02*
X208540000Y-171330000D01*
X227540000Y-172530000D02*
X227540000Y-171330000D01*
X195610000Y-142670000D02*
X203120000Y-135160000D01*
X150540000Y-172530000D02*
X150540000Y-171330000D01*
X184950000Y-145470000D02*
X184950000Y-143570000D01*
X222538092Y-169624000D02*
X225834000Y-169624000D01*
X225834000Y-169624000D02*
X227540000Y-171330000D01*
X210704000Y-135156000D02*
X210730000Y-135130000D01*
X215524000Y-160890092D02*
X215524000Y-162609908D01*
X206256000Y-135156000D02*
X210704000Y-135156000D01*
X218126000Y-158288092D02*
X215524000Y-160890092D01*
X169540000Y-172530000D02*
X169540000Y-171330000D01*
X218126000Y-154705168D02*
X218126000Y-158288092D01*
X212800000Y-142710000D02*
X217030000Y-146940000D01*
X206220000Y-135120000D02*
X206256000Y-135156000D01*
X217030000Y-146940000D02*
X217030000Y-153609168D01*
X217030000Y-153609168D02*
X218126000Y-154705168D01*
X184950000Y-143570000D02*
X185850000Y-142670000D01*
X215524000Y-162609908D02*
X222538092Y-169624000D01*
X185850000Y-142670000D02*
X195610000Y-142670000D01*
D22*
%TO.N,RAW*%
X190279000Y-112536000D02*
X202884000Y-112536000D01*
X202884000Y-112536000D02*
X203120000Y-112300000D01*
X189430000Y-111687000D02*
X190279000Y-112536000D01*
X189430000Y-111485000D02*
X189430000Y-111687000D01*
%TO.N,RST*%
X203358760Y-113689000D02*
X202643240Y-113689000D01*
X199456000Y-110649000D02*
X204304000Y-110649000D01*
X204505000Y-112542760D02*
X203358760Y-113689000D01*
X204505000Y-110850000D02*
X204505000Y-112542760D01*
X204304000Y-110649000D02*
X204505000Y-110850000D01*
X202643240Y-113689000D02*
X201969000Y-114363240D01*
X201969000Y-116229000D02*
X203120000Y-117380000D01*
X199255000Y-110850000D02*
X199456000Y-110649000D01*
X201969000Y-114363240D02*
X201969000Y-116229000D01*
%TO.N,BAT_P*%
X186430000Y-111485000D02*
X186430000Y-112477760D01*
X194900000Y-120232240D02*
X194900000Y-127125000D01*
X187452240Y-113500000D02*
X188167760Y-113500000D01*
X188167760Y-113500000D02*
X194900000Y-120232240D01*
X186430000Y-112477760D02*
X187452240Y-113500000D01*
%TD*%
M02*
